<svg width="32" height="21" viewBox="0 0 21 21" fill="none" xmlns="http://www.w3.org/2000/svg">
                <path
                  d="M11.165 11.165C10.605 11.725 9.715 11.725 9.165 11.175V11.165C8.615 10.615 8.615 9.725 9.165 9.175V9.165C9.715 8.615 10.605 8.615 11.155 9.165H11.165C11.715 9.715 11.715 10.615 11.165 11.165ZM10.165 4.165L12.285 6.285L14.785 3.785L11.585 0.585C10.805 -0.195 9.535 -0.195 8.755 0.585L5.555 3.785L8.055 6.285L10.165 4.165ZM4.165 10.165L6.285 8.045L3.785 5.545L0.585 8.745C-0.195 9.525 -0.195 10.795 0.585 11.575L3.785 14.775L6.285 12.275L4.165 10.165ZM16.165 10.165L14.045 12.285L16.545 14.785L19.745 11.585C20.525 10.805 20.525 9.535 19.745 8.755L16.545 5.555L14.045 8.055L16.165 10.165ZM10.165 16.165L8.045 14.045L5.545 16.545L8.745 19.745C9.525 20.525 10.795 20.525 11.575 19.745L14.775 16.545L12.275 14.045L10.165 16.165Z"
                  fill="#4C2B5E" />
              </svg>
