<svg width="135" height="40" viewBox="0 0 135 40" fill="none" xmlns="http://www.w3.org/2000/svg">
<mask id="mask0_1_627" style="mask-type:luminance" maskUnits="userSpaceOnUse" x="0" y="0" width="135" height="40">
<path d="M0 0H135V40H0V0Z" fill="white"/>
</mask>
<g mask="url(#mask0_1_627)">
<path d="M130.197 40H4.729C3.47499 39.9971 2.27324 39.4974 1.38689 38.6103C0.500547 37.7232 0.00184854 36.521 0 35.267L0 4.726C0.00185325 3.47264 0.500776 2.27118 1.38732 1.3852C2.27386 0.499218 3.47564 0.00105789 4.729 0L130.197 0C132.803 0 135 2.12 135 4.726V35.267C135 37.872 132.803 40 130.197 40Z" fill="white" fill-opacity="0.12"/>
<path d="M134.033 35.2681C134.033 36.0264 133.809 36.7677 133.387 37.398C132.966 38.0283 132.367 38.5191 131.666 38.8081C131.2 39.0003 130.702 39.0988 130.199 39.0981H4.72963C3.71269 39.0992 2.73698 38.6963 2.01705 37.9781C1.29713 37.2598 0.89195 36.2851 0.890625 35.2681V4.72514C0.89195 3.70775 1.29697 2.73246 2.01675 2.01343C2.73653 1.2944 3.71223 0.890402 4.72963 0.890137H130.198C130.956 0.889656 131.698 1.11435 132.328 1.53574C132.959 1.95713 133.45 2.55624 133.74 3.25714C133.933 3.72314 134.032 4.22114 134.032 4.72514L134.033 35.2681Z" fill="black"/>
<path d="M30.1271 19.7838C30.0981 16.5608 32.7661 14.9928 32.8881 14.9198C31.3771 12.7168 29.0351 12.4158 28.2121 12.3918C26.2451 12.1848 24.3371 13.5688 23.3351 13.5688C22.3131 13.5688 20.7701 12.4118 19.1071 12.4458C16.9671 12.4788 14.9651 13.7178 13.8671 15.6418C11.6011 19.5648 13.2911 25.3298 15.4621 28.5008C16.5481 30.0538 17.8171 31.7878 19.4781 31.7268C21.1031 31.6598 21.7101 30.6908 23.6711 30.6908C25.6141 30.6908 26.1841 31.7268 27.8781 31.6878C29.6221 31.6598 30.7201 30.1278 31.7681 28.5608C33.0231 26.7808 33.5271 25.0278 33.5471 24.9378C33.5061 24.9238 30.1601 23.6468 30.1271 19.7838ZM26.9271 10.3058C27.8011 9.2128 28.3991 7.7258 28.2331 6.2168C26.9681 6.2728 25.3861 7.0918 24.4751 8.1608C23.6691 9.1028 22.9491 10.6468 23.1351 12.0988C24.5561 12.2048 26.0151 11.3818 26.9271 10.3058ZM53.6441 31.5038H51.3731L50.1291 27.5948H45.8051L44.6201 31.5038H42.4091L46.6931 18.1958H49.3391L53.6441 31.5038ZM49.7541 25.9548L48.6291 22.4798C48.5101 22.1248 48.2871 21.2888 47.9581 19.9728H47.9181C47.7181 20.8108 47.5081 21.6468 47.2861 22.4798L46.1811 25.9548H49.7541ZM64.6611 26.5878C64.6611 28.2198 64.2201 29.5098 63.3381 30.4568C62.5481 31.2998 61.5671 31.7208 60.3961 31.7208C59.1321 31.7208 58.2241 31.2668 57.6711 30.3588H57.6311V35.4138H55.4991V25.0668C55.4991 24.0408 55.4721 22.9878 55.4201 21.9078H57.2951L57.4141 23.4288H57.4541C58.1651 22.2828 59.2441 21.7108 60.6921 21.7108C61.8241 21.7108 62.7691 22.1578 63.5251 23.0528C64.2831 23.9488 64.6611 25.1268 64.6611 26.5878ZM62.4891 26.6658C62.4891 25.7318 62.2791 24.9618 61.8571 24.3558C61.3961 23.7238 60.7771 23.4078 60.0011 23.4078C59.4751 23.4078 58.9971 23.5838 58.5701 23.9308C58.1421 24.2808 57.8621 24.7378 57.7311 25.3038C57.6651 25.5678 57.6321 25.7838 57.6321 25.9538V27.5538C57.6321 28.2518 57.8461 28.8408 58.2741 29.3218C58.7021 29.8028 59.2581 30.0428 59.9421 30.0428C60.7451 30.0428 61.3701 29.7328 61.8171 29.1148C62.2651 28.4958 62.4891 27.6798 62.4891 26.6658ZM75.6981 26.5878C75.6981 28.2198 75.2571 29.5098 74.3741 30.4568C73.5851 31.2998 72.6041 31.7208 71.4331 31.7208C70.1691 31.7208 69.2611 31.2668 68.7091 30.3588H68.6691V35.4138H66.5371V25.0668C66.5371 24.0408 66.5101 22.9878 66.4581 21.9078H68.3331L68.4521 23.4288H68.4921C69.2021 22.2828 70.2811 21.7108 71.7301 21.7108C72.8611 21.7108 73.8061 22.1578 74.5641 23.0528C75.3191 23.9488 75.6981 25.1268 75.6981 26.5878ZM73.5261 26.6658C73.5261 25.7318 73.3151 24.9618 72.8931 24.3558C72.4321 23.7238 71.8151 23.4078 71.0381 23.4078C70.514 23.4076 70.0067 23.5929 69.6061 23.9308C69.1781 24.2808 68.8991 24.7378 68.7681 25.3038C68.7031 25.5678 68.6691 25.7838 68.6691 25.9538V27.5538C68.6691 28.2518 68.8831 28.8408 69.3091 29.3218C69.7371 29.8018 70.2931 30.0428 70.9791 30.0428C71.7821 30.0428 72.4071 29.7328 72.8541 29.1148C73.3021 28.4958 73.5261 27.6798 73.5261 26.6658ZM88.0381 27.7718C88.0381 28.9038 87.6451 29.8248 86.8561 30.5358C85.9891 31.3128 84.7821 31.7008 83.2311 31.7008C81.7991 31.7008 80.6511 31.4248 79.7821 30.8718L80.2761 29.0948C81.2121 29.6608 82.2391 29.9448 83.3581 29.9448C84.1611 29.9448 84.7861 29.7628 85.2351 29.4008C85.6821 29.0388 85.9051 28.5528 85.9051 27.9468C85.9051 27.4068 85.7211 26.9518 85.3521 26.5828C84.9851 26.2138 84.3721 25.8708 83.5161 25.5538C81.1861 24.6848 80.0221 23.4118 80.0221 21.7378C80.0221 20.6438 80.4301 19.7468 81.2471 19.0488C82.0611 18.3498 83.1471 18.0008 84.5051 18.0008C85.7161 18.0008 86.7221 18.2118 87.5251 18.6328L86.9921 20.3708C86.2421 19.9628 85.3941 19.7588 84.4451 19.7588C83.6951 19.7588 83.1091 19.9438 82.6891 20.3118C82.5188 20.4625 82.383 20.6481 82.291 20.8561C82.199 21.064 82.153 21.2894 82.1561 21.5168C82.1561 22.0428 82.3591 22.4778 82.7671 22.8198C83.1221 23.1358 83.7671 23.4778 84.7031 23.8468C85.8481 24.3078 86.6891 24.8468 87.2301 25.4648C87.7691 26.0808 88.0381 26.8518 88.0381 27.7718ZM95.0871 23.5078H92.7371V28.1668C92.7371 29.3518 93.1511 29.9438 93.9811 29.9438C94.3621 29.9438 94.6781 29.9108 94.9281 29.8448L94.9871 31.4638C94.5671 31.6208 94.0141 31.6998 93.3291 31.6998C92.4871 31.6998 91.8291 31.4428 91.3541 30.9298C90.8811 30.4158 90.6431 29.5538 90.6431 28.3428V23.5058H89.2431V21.9058H90.6431V20.1488L92.7371 19.5168V21.9058H95.0871V23.5078ZM105.69 26.6268C105.69 28.1018 105.268 29.3128 104.426 30.2598C103.543 31.2348 102.371 31.7208 100.91 31.7208C99.5021 31.7208 98.3811 31.2538 97.5451 30.3198C96.7091 29.3858 96.2911 28.2068 96.2911 26.7858C96.2911 25.2988 96.7211 24.0808 97.5841 23.1338C98.4451 22.1858 99.6071 21.7118 101.068 21.7118C102.476 21.7118 103.609 22.1788 104.464 23.1138C105.282 24.0208 105.69 25.1918 105.69 26.6268ZM103.478 26.6958C103.478 25.8108 103.289 25.0518 102.906 24.4188C102.459 23.6528 101.82 23.2708 100.992 23.2708C100.135 23.2708 99.4841 23.6538 99.0371 24.4188C98.6541 25.0528 98.4651 25.8238 98.4651 26.7358C98.4651 27.6208 98.6541 28.3798 99.0371 29.0118C99.4981 29.7778 100.142 30.1598 100.973 30.1598C101.787 30.1598 102.426 29.7698 102.887 28.9918C103.28 28.3468 103.478 27.5798 103.478 26.6958ZM112.62 23.7828C112.398 23.7428 112.173 23.723 111.948 23.7238C111.198 23.7238 110.618 24.0068 110.21 24.5738C109.855 25.0738 109.677 25.7058 109.677 26.4688V31.5038H107.546L107.566 24.9298C107.566 23.8238 107.539 22.8168 107.486 21.9088H109.343L109.421 23.7448H109.48C109.705 23.1138 110.06 22.6058 110.546 22.2248C110.991 21.8919 111.531 21.7116 112.087 21.7108C112.284 21.7108 112.462 21.7248 112.62 21.7498V23.7828ZM122.155 26.2518C122.16 26.5758 122.134 26.8998 122.077 27.2188H115.681C115.706 28.1668 116.015 28.8918 116.609 29.3918C117.148 29.8388 117.845 30.0628 118.701 30.0628C119.648 30.0628 120.512 29.9118 121.289 29.6088L121.623 31.0888C120.715 31.4848 119.643 31.6818 118.406 31.6818C116.918 31.6818 115.75 31.2438 114.9 30.3688C114.052 29.4938 113.627 28.3188 113.627 26.8448C113.627 25.3978 114.022 24.1928 114.813 23.2318C115.641 22.2058 116.76 21.6928 118.168 21.6928C119.551 21.6928 120.598 22.2058 121.309 23.2318C121.872 24.0468 122.155 25.0548 122.155 26.2518ZM120.122 25.6988C120.136 25.0668 119.997 24.5208 119.708 24.0598C119.339 23.4668 118.772 23.1708 118.009 23.1708C117.312 23.1708 116.745 23.4598 116.312 24.0398C115.957 24.5008 115.746 25.0538 115.681 25.6978L120.122 25.6988ZM49.0491 10.0088C49.0491 11.1858 48.6961 12.0718 47.9911 12.6668C47.3381 13.2158 46.4101 13.4908 45.2081 13.4908C44.6121 13.4908 44.1021 13.4648 43.6751 13.4128V6.9818C44.2321 6.8918 44.8321 6.8458 45.4801 6.8458C46.6251 6.8458 47.4881 7.0948 48.0701 7.5928C48.7221 8.1558 49.0491 8.9608 49.0491 10.0088ZM47.9441 10.0378C47.9441 9.2748 47.7421 8.6898 47.3381 8.2818C46.9341 7.8748 46.3441 7.6708 45.5671 7.6708C45.2371 7.6708 44.9561 7.6928 44.7231 7.7388V12.6278C44.8521 12.6478 45.0881 12.6568 45.4311 12.6568C46.2331 12.6568 46.8521 12.4338 47.2881 11.9878C47.7241 11.5418 47.9441 10.8918 47.9441 10.0378ZM54.9081 11.0368C54.9081 11.7618 54.7011 12.3558 54.2871 12.8218C53.8531 13.3008 53.2781 13.5398 52.5601 13.5398C51.8681 13.5398 51.3171 13.3108 50.9061 12.8508C50.4961 12.3918 50.2911 11.8128 50.2911 11.1148C50.2911 10.3848 50.5021 9.7858 50.9261 9.3208C51.3501 8.8558 51.9201 8.6228 52.6381 8.6228C53.3301 8.6228 53.8861 8.8518 54.3071 9.3108C54.7071 9.7568 54.9081 10.3328 54.9081 11.0368ZM53.8211 11.0708C53.8211 10.6358 53.7271 10.2628 53.5401 9.9518C53.3201 9.5758 53.0071 9.3878 52.6001 9.3878C52.1791 9.3878 51.8591 9.5758 51.6391 9.9518C51.4511 10.2628 51.3581 10.6418 51.3581 11.0898C51.3581 11.5248 51.4521 11.8978 51.6391 12.2088C51.8661 12.5848 52.1821 12.7728 52.5901 12.7728C52.9901 12.7728 53.3041 12.5818 53.5301 12.1988C53.7241 11.8818 53.8211 11.5058 53.8211 11.0708ZM62.7641 8.7188L61.2891 13.4328H60.3291L59.7181 11.3858C59.5661 10.8858 59.4391 10.3758 59.3391 9.8628H59.3201C59.2297 10.3787 59.1031 10.8877 58.9411 11.3858L58.2921 13.4328H57.3211L55.9341 8.7188H57.0111L57.5441 10.9598C57.6731 11.4898 57.7791 11.9948 57.8641 12.4728H57.8831C57.9611 12.0788 58.0901 11.5768 58.2721 10.9698L58.9411 8.7198H59.7951L60.4361 10.9218C60.5911 11.4588 60.7171 11.9758 60.8141 12.4738H60.8431C60.9141 11.9888 61.0211 11.4718 61.1631 10.9218L61.7351 8.7198H62.7641V8.7188ZM68.1971 13.4328H67.1491V10.7328C67.1491 9.9008 66.8331 9.4848 66.1991 9.4848C66.0551 9.48057 65.9121 9.50927 65.7809 9.56872C65.6497 9.62816 65.5339 9.71677 65.4421 9.8278C65.2501 10.0528 65.1467 10.34 65.1511 10.6358V13.4318H64.1031V10.0658C64.1031 9.6518 64.0901 9.2028 64.0651 8.7168H64.9861L65.0351 9.4538H65.0641C65.1861 9.2248 65.3681 9.0358 65.6071 8.8848C65.8911 8.7088 66.2091 8.6198 66.5571 8.6198C66.9971 8.6198 67.3631 8.7618 67.6541 9.0468C68.0161 9.3958 68.1971 9.9168 68.1971 10.6088V13.4328ZM71.0871 13.4328H70.0401V6.5558H71.0871V13.4328ZM77.2571 11.0368C77.2571 11.7618 77.0501 12.3558 76.6361 12.8218C76.2021 13.3008 75.6261 13.5398 74.9091 13.5398C74.2161 13.5398 73.6651 13.3108 73.2551 12.8508C72.8451 12.3918 72.6401 11.8128 72.6401 11.1148C72.6401 10.3848 72.8511 9.7858 73.2751 9.3208C73.6991 8.8558 74.2691 8.6228 74.9861 8.6228C75.6791 8.6228 76.2341 8.8518 76.6561 9.3108C77.0561 9.7568 77.2571 10.3328 77.2571 11.0368ZM76.1691 11.0708C76.1691 10.6358 76.0751 10.2628 75.8881 9.9518C75.6691 9.5758 75.3551 9.3878 74.9491 9.3878C74.5271 9.3878 74.2071 9.5758 73.9881 9.9518C73.8001 10.2628 73.7071 10.6418 73.7071 11.0898C73.7071 11.5248 73.8011 11.8978 73.9881 12.2088C74.2151 12.5848 74.5311 12.7728 74.9391 12.7728C75.3391 12.7728 75.6521 12.5818 75.8781 12.1988C76.0731 11.8818 76.1691 11.5058 76.1691 11.0708ZM82.3291 13.4328H81.3881L81.3101 12.8898H81.2811C80.9591 13.3228 80.5001 13.5398 79.9041 13.5398C79.4591 13.5398 79.0991 13.3968 78.8281 13.1128C78.7064 12.985 78.6112 12.8344 78.5478 12.6696C78.4845 12.5049 78.4544 12.3292 78.4591 12.1528C78.4591 11.5768 78.6991 11.1378 79.1821 10.8338C79.6641 10.5298 80.3421 10.3808 81.2151 10.3878V10.2998C81.2151 9.6788 80.8891 9.3688 80.2361 9.3688C79.7711 9.3688 79.3611 9.4858 79.0071 9.7178L78.7941 9.0298C79.2321 8.7588 79.7731 8.6228 80.4111 8.6228C81.6431 8.6228 82.2611 9.2728 82.2611 10.5728V12.3088C82.2611 12.7798 82.2841 13.1548 82.3291 13.4328ZM81.2411 11.8128V11.0858C80.0851 11.0658 79.5071 11.3828 79.5071 12.0358C79.5071 12.2818 79.5731 12.4658 79.7081 12.5888C79.8481 12.7138 80.0321 12.7788 80.2201 12.7728C80.4501 12.7728 80.6651 12.6998 80.8611 12.5548C80.98 12.4714 81.0768 12.3602 81.143 12.2309C81.2092 12.1016 81.2429 11.9581 81.2411 11.8128ZM88.2841 13.4328H87.3541L87.3051 12.6758H87.2761C86.9791 13.2518 86.4731 13.5398 85.7621 13.5398C85.1941 13.5398 84.7211 13.3168 84.3461 12.8708C83.9711 12.4248 83.7841 11.8458 83.7841 11.1348C83.7841 10.3718 83.9871 9.7538 84.3951 9.2818C84.7901 8.8418 85.2741 8.6218 85.8501 8.6218C86.4831 8.6218 86.9261 8.8348 87.1781 9.2618H87.1981V6.5558H88.2471V12.1628C88.2471 12.6218 88.2591 13.0448 88.2841 13.4328ZM87.1981 11.4448V10.6588C87.208 10.4775 87.1764 10.2963 87.1057 10.1291C87.035 9.96188 86.9271 9.813 86.7901 9.6938C86.5968 9.52347 86.3467 9.43178 86.0891 9.4368C85.6981 9.4368 85.3921 9.5918 85.1671 9.9028C84.9441 10.2138 84.8311 10.6108 84.8311 11.0958C84.8311 11.5618 84.9381 11.9398 85.1531 12.2308C85.3801 12.5408 85.6861 12.6958 86.0691 12.6958C86.4131 12.6958 86.6881 12.5668 86.8971 12.3078C87.0991 12.0688 87.1981 11.7808 87.1981 11.4448ZM97.2471 11.0368C97.2471 11.7618 97.0401 12.3558 96.6261 12.8218C96.1921 13.3008 95.6181 13.5398 94.8991 13.5398C94.2081 13.5398 93.6571 13.3108 93.2451 12.8508C92.8351 12.3918 92.6301 11.8128 92.6301 11.1148C92.6301 10.3848 92.8411 9.7858 93.2651 9.3208C93.6891 8.8558 94.2591 8.6228 94.9781 8.6228C95.6691 8.6228 96.2261 8.8518 96.6461 9.3108C97.0461 9.7568 97.2471 10.3328 97.2471 11.0368ZM96.1611 11.0708C96.1611 10.6358 96.0671 10.2628 95.8801 9.9518C95.6591 9.5758 95.3471 9.3878 94.9391 9.3878C94.5191 9.3878 94.1991 9.5758 93.9781 9.9518C93.7901 10.2628 93.6971 10.6418 93.6971 11.0898C93.6971 11.5248 93.7911 11.8978 93.9781 12.2088C94.2051 12.5848 94.5211 12.7728 94.9291 12.7728C95.3291 12.7728 95.6441 12.5818 95.8701 12.1988C96.0631 11.8818 96.1611 11.5058 96.1611 11.0708ZM102.882 13.4328H101.835V10.7328C101.835 9.9008 101.519 9.4848 100.884 9.4848C100.74 9.48042 100.597 9.50907 100.466 9.56853C100.335 9.62798 100.22 9.71668 100.128 9.8278C99.9357 10.0526 99.8322 10.34 99.8371 10.6358V13.4318H98.7881V10.0658C98.7881 9.6518 98.7761 9.2028 98.7511 8.7168H99.6711L99.7201 9.4538H99.7491C99.8771 9.2198 100.065 9.0238 100.292 8.8848C100.577 8.7088 100.894 8.6198 101.243 8.6198C101.682 8.6198 102.048 8.7618 102.339 9.0468C102.702 9.3958 102.882 9.9168 102.882 10.6088V13.4328ZM109.935 9.5038H108.781V11.7938C108.781 12.3758 108.986 12.6668 109.392 12.6668C109.58 12.6668 109.736 12.6508 109.859 12.6178L109.886 13.4128C109.679 13.4908 109.407 13.5298 109.072 13.5298C108.658 13.5298 108.336 13.4038 108.103 13.1518C107.869 12.8998 107.753 12.4758 107.753 11.8808V9.5038H107.064V8.7188H107.753V7.8548L108.78 7.5448V8.7178H109.934L109.935 9.5038ZM115.483 13.4328H114.434V10.7528C114.434 9.9078 114.118 9.4848 113.485 9.4848C112.999 9.4848 112.667 9.7298 112.485 10.2198C112.451 10.3428 112.434 10.4698 112.436 10.5968V13.4318H111.389V6.5558H112.436V9.3968H112.456C112.786 8.8798 113.259 8.6218 113.872 8.6218C114.306 8.6218 114.665 8.7638 114.95 9.0488C115.305 9.4038 115.483 9.9318 115.483 10.6298V13.4328ZM121.206 10.8528C121.206 11.0408 121.192 11.1988 121.167 11.3278H118.024C118.038 11.7938 118.188 12.1488 118.479 12.3948C118.745 12.6148 119.088 12.7248 119.508 12.7248C119.973 12.7248 120.397 12.6508 120.779 12.5018L120.943 13.2298C120.496 13.4238 119.97 13.5208 119.361 13.5208C118.631 13.5208 118.056 13.3058 117.64 12.8758C117.222 12.4458 117.015 11.8688 117.015 11.1448C117.015 10.4338 117.208 9.8418 117.597 9.3698C118.003 8.8658 118.552 8.6138 119.245 8.6138C119.923 8.6138 120.438 8.8658 120.786 9.3698C121.067 9.7698 121.206 10.2648 121.206 10.8528ZM120.206 10.5818C120.221 10.2992 120.15 10.0186 120.003 9.7768C119.821 9.4858 119.544 9.3398 119.169 9.3398C119.006 9.33684 118.844 9.37426 118.699 9.44875C118.553 9.52324 118.428 9.63248 118.335 9.7668C118.157 10.0039 118.049 10.2863 118.024 10.5818H120.206Z" fill="white"/>
</g>
</svg>
