<svg width="16" height="16" viewBox="0 0 16 16" fill="none" xmlns="http://www.w3.org/2000/svg">
<path fill-rule="evenodd" clip-rule="evenodd" d="M9.21146 1.50961C8.51177 0.919038 7.48821 0.919039 6.78852 1.50961L6.1513 2.04745C5.85391 2.29846 5.48589 2.45091 5.09811 2.4837L4.26722 2.55397C3.35486 2.63112 2.63109 3.35489 2.55394 4.26725L2.48367 5.09814C2.45088 5.48592 2.29843 5.85394 2.04742 6.15134L1.50958 6.78855C0.919007 7.48824 0.919008 8.5118 1.50958 9.21149L2.04742 9.84871C2.29843 10.1461 2.45088 10.5141 2.48367 10.9019L2.55394 11.7328C2.63109 12.6452 3.35486 13.369 4.26722 13.4461L5.09811 13.5163C5.48589 13.5492 5.85391 13.7016 6.15131 13.9526L6.78852 14.4905C7.48821 15.081 8.51177 15.081 9.21146 14.4905L9.84867 13.9526C10.1461 13.7016 10.5141 13.5492 10.9019 13.5163L11.7328 13.4461C12.6452 13.369 13.3689 12.6452 13.446 11.7328L13.5163 10.9019C13.5492 10.5141 13.7016 10.1461 13.9526 9.84871L14.4904 9.21149C15.0809 8.5118 15.0809 7.48824 14.4904 6.78855L13.9526 6.15133C13.7016 5.85394 13.5492 5.48592 13.5163 5.09814L13.446 4.26725C13.3689 3.35489 12.6452 2.63112 11.7328 2.55397L10.9019 2.4837C10.5141 2.45091 10.1461 2.29846 9.84867 2.04745L9.21146 1.50961ZM11.4154 6.71948C11.7455 6.3894 11.7455 5.85425 11.4154 5.52417C11.0854 5.19409 10.5502 5.19409 10.2201 5.52417L7.06128 8.683L5.78069 7.40241C5.45062 7.07233 4.91546 7.07233 4.58539 7.40241C4.25531 7.73248 4.25531 8.26764 4.58539 8.59771L6.46363 10.4759C6.7937 10.806 7.32886 10.806 7.65893 10.4759L11.4154 6.71948Z" fill="#63C381"/>
</svg>
