<svg width="86" height="24" viewBox="0 0 86 24" fill="none" xmlns="http://www.w3.org/2000/svg">
<g clip-path="url(#clip0_1_543)">
<path d="M6.66473 5.75454C5.66186 5.75454 5.3719 6.19704 5.3719 7.17303V8.79209H8.04694L7.77881 11.4078H5.37294V19.346H2.16268V11.4078H0V8.79209H2.16268V7.21748C2.16268 4.57902 3.23208 3.18534 6.21577 3.18534C6.84099 3.1839 7.4658 3.22081 8.08643 3.29597V5.75764L6.66473 5.75454Z" fill="#1877F2"/>
<path d="M8.26953 13.7361C8.26953 10.7874 9.67356 8.56665 12.6157 8.56665C14.2203 8.56665 15.2003 9.38755 15.6691 10.407V8.79204H18.7441V19.3459H15.6691V17.7496C15.2232 18.7701 14.2203 19.5681 12.6157 19.5681C9.67356 19.5681 8.26953 17.3505 8.26953 14.3988V13.7361ZM11.4787 14.4463C11.4787 16.0199 12.0576 17.062 13.551 17.062C14.8667 17.062 15.5349 16.1088 15.5349 14.6014V13.5417C15.5349 12.0343 14.8667 11.0811 13.551 11.0811C12.0576 11.0811 11.4787 12.1232 11.4787 13.6968V14.4463Z" fill="#1877F2"/>
<path d="M25.4311 8.56958C26.6782 8.56958 27.8598 8.83632 28.5063 9.27882L27.7933 11.541C27.1247 11.2242 26.394 11.0575 25.6535 11.053C23.9148 11.053 23.1594 12.0507 23.1594 13.7586V14.379C23.1594 16.0869 23.9169 17.0846 25.6535 17.0846C26.394 17.08 27.1247 16.9135 27.7933 16.5966L28.5063 18.8577C27.8598 19.3013 26.6792 19.5681 25.4311 19.5681C21.6638 19.5681 19.948 17.5499 19.948 14.3128V13.8248C19.948 10.5877 21.6638 8.56958 25.4311 8.56958Z" fill="#1877F2"/>
<path d="M28.929 14.4722V13.5417C28.929 10.5487 30.6448 8.5791 34.145 8.5791C37.4436 8.5791 38.8922 10.5745 38.8922 13.5014V15.1867H32.137C32.2047 16.6279 32.8511 17.2709 34.6314 17.2709C35.8359 17.2709 37.1058 17.027 38.0422 16.6279L38.6293 18.8146C37.7823 19.2591 36.0436 19.591 34.5066 19.591C30.4441 19.5899 28.929 17.5739 28.929 14.4722ZM32.1381 13.0972H36.0166V12.8315C36.0166 11.6787 35.5489 10.7637 34.1459 10.7637C32.6962 10.7647 32.1381 11.6746 32.1381 13.093V13.0972Z" fill="#1877F2"/>
<path d="M50.7882 14.4019C50.7882 17.3505 49.3623 19.5713 46.4233 19.5713C44.8187 19.5713 43.7046 18.7732 43.2587 17.7527V19.349H40.2283V3.49237L43.4376 3.20288V10.254C43.9051 9.32347 44.9309 8.56873 46.4244 8.56873C49.3664 8.56873 50.7892 10.7864 50.7892 13.7381L50.7882 14.4019ZM47.579 13.6699C47.579 12.1842 47.0001 11.0759 45.462 11.0759C44.1463 11.0759 43.4334 12.0064 43.4334 13.5148V14.6232C43.4334 16.1306 44.1463 17.062 45.462 17.062C47.0001 17.062 47.579 15.9538 47.579 14.4681V13.6699Z" fill="#1877F2"/>
<path d="M51.8616 14.3345V13.8031C51.8616 10.7645 53.6003 8.56958 57.1441 8.56958C60.688 8.56958 62.4276 10.7645 62.4276 13.8031V14.3345C62.4276 17.3721 60.6891 19.5681 57.1452 19.5681C53.6012 19.5681 51.8616 17.3721 51.8616 14.3345ZM59.2174 13.5808C59.2174 12.184 58.6375 11.0757 57.139 11.0757C55.6403 11.0757 55.0656 12.184 55.0656 13.5808V14.5568C55.0656 15.9536 55.6455 17.0618 57.139 17.0618C58.6323 17.0618 59.2174 15.9536 59.2174 14.5568V13.5808Z" fill="#1877F2"/>
<path d="M63.4954 14.3345V13.8031C63.4954 10.7645 65.2341 8.56958 68.7779 8.56958C72.3217 8.56958 74.0605 10.7645 74.0605 13.8031V14.3345C74.0605 17.3721 72.3217 19.5681 68.7779 19.5681C65.2341 19.5681 63.4954 17.3721 63.4954 14.3345ZM70.8512 13.5808C70.8512 12.184 70.2713 11.0757 68.7779 11.0757C67.2844 11.0757 66.7056 12.184 66.7056 13.5808V14.5568C66.7056 15.9536 67.2844 17.0618 68.7779 17.0618C70.2713 17.0618 70.8512 15.9536 70.8512 14.5568V13.5808Z" fill="#1877F2"/>
<path d="M78.4727 13.825L81.6373 8.79206H85.047L81.7266 14.0028L85.1811 19.3459H81.7713L78.4727 14.1765V19.3459H75.2625V3.49237L78.4727 3.20288V13.825Z" fill="#1877F2"/>
</g>
<defs>
<clipPath id="clip0_1_543">
<rect width="86" height="24" fill="white"/>
</clipPath>
</defs>
</svg>
