<svg width="143" height="24" viewBox="0 0 143 24" fill="none" xmlns="http://www.w3.org/2000/svg">
<g clip-path="url(#clip0_1_547)">
<path d="M85.8922 8.60481L87.8772 13.8162H84.0306L85.8922 8.60481ZM85.1475 6.86768L80.8047 18.283H82.4179L83.5348 15.181H88.3739L89.4908 18.283H91.104L86.7612 6.86768H85.148H85.1475ZM108.597 18.283H110.086V6.86768H108.597V18.283ZM93.3312 11.5823C93.8279 10.8377 94.8199 10.2175 95.8129 10.2175C97.7979 10.2175 98.7909 11.5823 98.7909 13.5678V18.4069H97.3022V13.8157C97.3022 12.2025 96.4341 11.5828 95.3171 11.5828C94.0763 11.5828 93.2077 12.8237 93.2077 13.9402V18.283H91.7189V10.3419H93.2077L93.3316 11.5828L93.3312 11.5823ZM100.032 15.9257C100.032 14.1885 101.645 13.196 103.507 13.196C104.623 13.196 105.368 13.4444 105.616 13.6928V13.4444C105.616 12.2035 104.624 11.5828 103.631 11.5828C102.763 11.5828 102.018 11.9551 101.769 12.6998L100.408 12.0786C100.657 11.334 101.649 10.217 103.64 10.217C105.501 10.217 107.114 11.334 107.114 13.5674V18.2825H105.749V17.1603H105.625C105.253 17.7805 104.384 18.5251 103.019 18.5251C101.406 18.5251 100.041 17.5326 100.041 15.9194L100.032 15.9257ZM105.625 14.9269C105.625 14.9269 105.005 14.4301 103.764 14.4301C102.275 14.4301 101.654 15.2982 101.654 15.9189C101.654 16.787 102.522 17.1598 103.267 17.1598C104.384 17.1598 105.625 16.1673 105.625 14.9269" fill="#757575"/>
<path fill-rule="evenodd" clip-rule="evenodd" d="M112.191 21.7564L113.928 17.6571L110.826 10.4607H112.315L114.672 15.92L117.03 10.4607H118.518L113.68 21.7564H112.191H112.191ZM134.028 13.0717C133.655 12.0782 132.787 11.4585 131.919 11.4585C130.678 11.4585 129.562 12.5754 129.562 14.1881C129.562 15.8008 130.679 16.9178 131.919 16.9178C132.787 16.9178 133.656 16.2976 134.029 15.429L135.27 16.1736C134.649 17.5385 133.408 18.4065 131.919 18.4065C129.81 18.4065 128.073 16.545 128.073 14.1881C128.073 11.7064 129.81 9.96924 131.919 9.96924C133.408 9.96924 134.649 10.8373 135.27 12.2021L134.029 13.0702L134.028 13.0717Z" fill="#757575"/>
<path d="M139.364 18.5311C141.349 18.5311 142.342 17.4141 142.342 16.0493C142.342 13.0713 137.999 14.1877 137.999 12.4516C137.999 11.8314 138.496 11.4591 139.364 11.4591C140.232 11.4591 141.101 11.8314 141.473 12.4516L142.341 11.5835C141.845 10.9633 140.48 10.0947 139.239 10.0947C137.378 10.0947 136.386 11.2117 136.386 12.5765C136.386 15.4301 140.852 14.438 140.852 15.9268C140.852 16.6714 140.356 17.1677 139.364 17.1677C138.372 17.1677 137.875 16.5475 137.379 15.9268L136.262 16.7949C137.006 17.5395 138.123 18.532 139.364 18.532V18.5311ZM125.219 18.2827H126.708V10.3421H125.219V18.2832V18.2827Z" fill="#757575"/>
<path fill-rule="evenodd" clip-rule="evenodd" d="M125.839 6.49561C126.459 6.49561 126.831 6.99234 126.831 7.48812C126.831 8.10832 126.335 8.48063 125.839 8.48063C125.343 8.48063 124.846 7.98389 124.846 7.48812C124.846 6.99234 125.343 6.49561 125.839 6.49561ZM123.73 17.0428L123.978 18.1598H122.489C121.125 18.1598 120.504 17.1673 120.504 15.678V11.8314H119.016V10.3427H120.504V7.98534H121.993V10.3427H123.73V11.8314H121.993V15.9307C121.993 17.0477 122.861 17.0477 123.73 17.0477L123.73 17.0428Z" fill="#757575"/>
<path d="M32.2828 11.4584V13.3199H36.6256C36.5016 14.3124 36.1289 15.0571 35.6331 15.5528C35.0129 16.173 34.0199 16.9177 32.2828 16.9177C29.6771 16.9177 27.5676 14.8082 27.5676 12.0786C27.5676 9.47286 29.6771 7.23947 32.2828 7.23947C33.7715 7.23947 34.7645 7.85967 35.514 8.48035L36.7548 7.23947C35.6379 6.24696 34.2731 5.37793 32.2881 5.37793C28.6903 5.37793 25.5879 8.35592 25.5879 11.9541C25.5879 15.5524 28.685 18.5299 32.2832 18.5299C34.2683 18.5299 35.7575 17.9097 36.8744 16.6683C38.1153 15.4274 38.4876 13.8147 38.4876 12.4494C38.4876 12.0771 38.4876 11.5813 38.3637 11.3325H32.2871L32.2828 11.4584ZM43.3258 9.97442C40.9684 9.97442 39.1069 11.7116 39.1069 14.1933C39.1069 16.6751 40.9684 18.4117 43.3258 18.4117C45.6831 18.4117 47.5447 16.5502 47.5447 14.1933C47.5447 11.7116 45.6831 9.97442 43.3258 9.97442ZM43.3258 16.7985C42.0849 16.7985 40.9684 15.6816 40.9684 14.1928C40.9684 12.7041 42.0854 11.5871 43.3258 11.5871C44.5662 11.5871 45.6831 12.5796 45.6831 14.1928C45.6831 15.806 44.5662 16.7985 43.3258 16.7985ZM63.6746 10.8425C63.1779 10.3458 62.4338 9.85 61.3173 9.85C59.2079 9.85 57.3468 11.7116 57.3468 14.0689C57.3468 16.4262 59.2083 18.2873 61.3173 18.2873C62.3098 18.2873 63.1789 17.7906 63.5502 17.2948H63.6742V17.915C63.6742 19.5282 62.8061 20.3967 61.4413 20.3967C60.3243 20.3967 59.5797 19.5287 59.3318 18.908L57.7186 19.5282C58.2154 20.6451 59.4557 22.0099 61.4408 22.0099C63.6737 22.0099 65.5401 20.7691 65.5401 17.5432V9.85096H63.8029V10.8435L63.6746 10.8425ZM61.5652 16.7985C60.3243 16.7985 59.3323 15.6816 59.3323 14.1928C59.3323 12.7041 60.3248 11.5871 61.5652 11.5871C62.8056 11.5871 63.7981 12.7041 63.7981 14.1928C63.7981 15.6816 62.8056 16.7985 61.5652 16.7985ZM52.5072 9.97442C50.1499 9.97442 48.2883 11.7116 48.2883 14.1933C48.2883 16.6751 50.1499 18.4117 52.5072 18.4117C54.8645 18.4117 56.7261 16.5502 56.7261 14.1933C56.85 11.7116 54.8645 9.97442 52.5072 9.97442ZM52.5072 16.7985C51.2663 16.7985 50.1499 15.6816 50.1499 14.1928C50.1499 12.7041 51.2668 11.5871 52.5072 11.5871C53.7476 11.5871 54.8645 12.5796 54.8645 14.1928C54.8645 15.806 53.7476 16.7985 52.5072 16.7985ZM66.9006 5.50282H68.7621V18.4069H66.9006V5.50282ZM73.8491 16.7937C72.8566 16.7937 72.2359 16.297 71.7396 15.5528L77.4473 13.1955L77.1989 12.6988C76.8266 11.7063 75.7102 9.96912 73.6012 9.96912C71.3683 9.96912 69.6307 11.7063 69.6307 14.188C69.6307 16.5453 71.4922 18.4064 73.8496 18.4064C75.8346 18.4064 76.9515 17.1655 77.4473 16.5449L75.9585 15.5523C75.4618 16.297 74.8416 16.7932 73.8491 16.7932V16.7937ZM73.7251 11.5823C74.4698 11.5823 75.09 11.9546 75.3383 12.5748L71.4917 14.188C71.4917 12.3264 72.7326 11.5823 73.7247 11.5823H73.7251Z" fill="#757575"/>
<path d="M14.4609 3.38329V20.2484C14.4609 22.1355 15.7642 23.1871 17.144 23.1871C18.4217 23.1871 19.8271 22.2927 19.8271 20.2484V3.51105C19.8271 1.7811 18.5495 0.700195 17.144 0.700195C15.7386 0.700195 14.4609 1.89225 14.4609 3.38329Z" fill="#F9AB00"/>
<path d="M7.4375 11.9438V20.2486C7.4375 22.1357 8.74069 23.1873 10.1206 23.1873C11.3982 23.1873 12.8037 22.2929 12.8037 20.2486V12.0716C12.8037 10.3417 11.526 9.26074 10.1206 9.26074C8.71513 9.26074 7.4375 10.4528 7.4375 11.9438Z" fill="#E37400"/>
<path d="M3.09131 23.187C4.57314 23.187 5.77441 21.9857 5.77441 20.5039C5.77441 19.0221 4.57314 17.8208 3.09131 17.8208C1.60947 17.8208 0.408203 19.0221 0.408203 20.5039C0.408203 21.9857 1.60947 23.187 3.09131 23.187Z" fill="#E37400"/>
</g>
<defs>
<clipPath id="clip0_1_547">
<rect width="142.667" height="24" fill="white"/>
</clipPath>
</defs>
</svg>
