<svg width="84" height="33" viewBox="0 0 84 33" fill="none" xmlns="http://www.w3.org/2000/svg">
<g clip-path="url(#clip0_1_662)">
<g clip-path="url(#clip1_1_662)">
<path fill-rule="evenodd" clip-rule="evenodd" d="M21.0674 14.5416L15.9887 19.7284C15.8424 19.8779 15.5534 20.0001 15.3465 20.0001H14.9078C14.7008 20.0001 14.4118 19.8774 14.2658 19.7284L11.8741 17.2801C11.728 17.1306 11.7283 16.8862 11.8748 16.7372L12.816 15.7781C12.9624 15.6286 13.202 15.6286 13.3487 15.7777L14.8766 17.3313C15.0233 17.4806 15.2629 17.4804 15.4091 17.3309L19.597 13.0537C19.7433 12.9044 19.983 12.9036 20.1299 13.0522L21.0661 13.9996C21.2128 14.1485 21.2134 14.3919 21.0674 14.5416Z" fill="white" fill-opacity="0.8"/>
<path d="M16.4706 0L17.0042 1.72702H18.7313L17.3341 2.79433L17.8677 4.52134L16.4706 3.45335L15.0738 4.52134L15.6074 2.79433L14.2099 1.72702H15.9369L16.4706 0Z" fill="white" fill-opacity="0.4"/>
<path d="M16.4706 28.4198L17.0042 30.1474H18.7313L17.3341 31.2145L17.8677 32.9412L16.4706 31.8741L15.0738 32.9412L15.6074 31.2145L14.2099 30.1474H15.9369L16.4706 28.4198Z" fill="white" fill-opacity="0.4"/>
<path d="M23.5755 2.58368L24.1089 4.31067H25.8362L24.4388 5.37841L24.9725 7.10502L23.5755 6.03728L22.1782 7.10502L22.7119 5.37841L21.3148 4.31067H23.0421L23.5755 2.58368Z" fill="white" fill-opacity="0.4"/>
<path d="M29.3198 21.1764L29.8531 22.904H31.5802L30.1829 23.9712L30.717 25.6977L29.3198 24.6309L27.9224 25.6977L28.4562 23.9712L27.0589 22.904H28.7861L29.3198 21.1764Z" fill="white" fill-opacity="0.4"/>
<path d="M30.6806 14.2099L31.214 15.9368H32.9412L31.5439 17.004L32.0775 18.7313L30.6806 17.6644L29.2834 18.7313L29.8174 17.004L28.4198 15.9368H30.1466L30.6806 14.2099Z" fill="white" fill-opacity="0.4"/>
<path d="M2.26099 14.2099L2.79439 15.9368H4.52134L3.124 17.004L3.65805 18.7313L2.26099 17.6644L0.863561 18.7313L1.39733 17.004L0 15.9368H1.72722L2.26099 14.2099Z" fill="white" fill-opacity="0.4"/>
<path d="M3.43748 21.1764L3.97088 22.904H5.69783L4.30086 23.9712L4.83417 25.6977L3.43748 24.6309L2.04015 25.6977L2.57382 23.9712L1.17649 22.904H2.9038L3.43748 21.1764Z" fill="white" fill-opacity="0.4"/>
<path d="M29.3198 7.05881L29.8531 8.7864H31.5802L30.1829 9.85361L30.717 11.5801L29.3198 10.5133L27.9224 11.5801L28.4562 9.85361L27.0589 8.7864H28.7861L29.3198 7.05881Z" fill="white" fill-opacity="0.4"/>
<path d="M4.02567 7.05881L4.55907 8.7864H6.28602L4.88905 9.85361L5.42236 11.5801L4.02567 10.5133L2.62834 11.5801L3.16202 9.85361L1.76468 8.7864H3.492L4.02567 7.05881Z" fill="white" fill-opacity="0.4"/>
<path d="M24.8675 27.128L25.4009 28.8547H27.128L25.7305 29.9226L26.2645 31.6494L24.8675 30.5822L23.4699 31.6494L24.0041 29.9226L22.6067 28.8547H24.3339L24.8675 27.128Z" fill="white" fill-opacity="0.4"/>
<path d="M9.36567 2.58368L9.89899 4.31067H11.6263L10.229 5.37841L10.763 7.10502L9.36567 6.03728L7.96861 7.10502L8.50228 5.37841L7.10495 4.31067H8.83186L9.36567 2.58368Z" fill="white" fill-opacity="0.4"/>
<path d="M8.07369 27.128L8.60736 28.8556H10.3345L8.93727 29.9225L9.47092 31.6494L8.07369 30.5828L6.67675 31.6494L7.21038 29.9225L5.81316 28.8556H7.53996L8.07369 27.128Z" fill="white" fill-opacity="0.4"/>
<path d="M45.5626 11.7221C49.1202 11.7221 50.8546 9.61718 50.8546 6.97859V5.61482H45.7701V7.82353H47.5786C47.5045 8.52024 47.0005 9.17247 45.6664 9.17247C43.9468 9.17247 43.428 7.91247 43.428 6.356V6.23741C43.428 4.44376 44.2433 3.40612 45.5774 3.40612C46.6151 3.40612 47.1635 3.89529 47.2821 4.76988H50.6026C50.4247 1.93859 48.1419 0.767529 45.5626 0.767529C42.3459 0.767529 39.9296 2.93176 39.9296 6.17812V6.29671C39.9296 9.48376 41.9012 11.7221 45.5626 11.7221ZM55.8188 8.95012V3.50988H56.3673C57.9979 3.50988 58.7242 4.22141 58.7242 6.16329V6.28188C58.7242 8.13482 58.0275 8.95012 56.3821 8.95012H55.8188ZM52.4539 11.5294H56.5007C60.2362 11.5294 62.2226 9.58753 62.2226 6.20777V6.104C62.2226 2.73906 60.2955 0.930588 56.5007 0.930588H52.4539V11.5294ZM63.8213 11.5294H67.1714V8.07553H68.1942C70.9366 8.07553 72.4041 6.83035 72.4041 4.62165V4.56235C72.4041 2.29435 71.0997 0.930588 68.046 0.930588H63.8213V11.5294ZM67.1714 5.82235V3.43576H67.8829C68.7575 3.43576 69.2171 3.76188 69.2171 4.57718V4.63647C69.2171 5.42212 68.7575 5.82235 67.8681 5.82235H67.1714ZM73.9003 11.5294H77.2504V7.89765H77.7841L79.7556 11.5294H83.2835L80.8674 7.20094C81.9198 6.72659 82.6609 5.89647 82.6609 4.42894V4.36965C82.6609 2.10165 81.149 0.930588 78.2288 0.930588H73.9003V11.5294ZM77.2504 5.73341V3.45059H78.0509C78.9551 3.45059 79.4147 3.74706 79.4147 4.51788V4.57718C79.4147 5.348 78.97 5.73341 78.0361 5.73341H77.2504Z" fill="white" fill-opacity="0.8"/>
<path d="M40.1635 22.2353H41.4976V19.9541H43.4329V18.9494H41.4976V17.3929H43.9435V16.3471H40.1635V22.2353ZM45.0714 22.2353H46.3972V19.9624H46.9737L48.3819 22.2353H49.7984L48.2419 19.7318C48.9337 19.5259 49.4525 19.0565 49.4525 18.1671V18.1341C49.4525 16.9153 48.5714 16.3471 47.1796 16.3471H45.0714V22.2353ZM46.3972 19.0565V17.3682H47.1466C47.789 17.3682 48.1514 17.5741 48.1514 18.1753V18.2082C48.1514 18.7765 47.8137 19.0565 47.1466 19.0565H46.3972ZM50.8727 22.2353H52.2151V16.3471H50.8727V22.2353ZM53.7532 22.2353H57.7226V21.1976H55.079V19.7318H57.0885V18.76H55.079V17.3847H57.5908V16.3471H53.7532V22.2353ZM58.8862 22.2353H60.0721V18.0435L62.5262 22.2353H63.8603V16.3471H62.6745V20.2259L60.4345 16.3471H58.8862V22.2353ZM65.3623 22.2353H67.2811C69.3482 22.2353 70.3776 21.0576 70.3776 19.2953V19.2294C70.3776 17.4671 69.3564 16.3471 67.2894 16.3471H65.3623V22.2353ZM66.6964 21.1976V17.3847H67.2235C68.467 17.3847 68.9858 18.0353 68.9858 19.2459V19.3118C68.9858 20.5306 68.4258 21.1976 67.2399 21.1976H66.6964ZM71.573 22.2353H75.3036V21.1894H72.9071V16.3471H71.573V22.2353ZM77.1413 22.2353H78.4837V19.6988L80.3201 16.3471H79.0272L77.8578 18.6035L76.6637 16.3471H75.1978L77.1413 19.6988V22.2353Z" fill="white" fill-opacity="0.8"/>
<path d="M41.3165 32.1176H42.6588V27.2671H44.2482V26.2294H39.7271V27.2671H41.3165V32.1176ZM47.789 32.2082C49.6255 32.2082 50.8278 30.9318 50.8278 29.1776V29.1118C50.8278 27.3412 49.5678 26.1471 47.7972 26.1471C46.0513 26.1471 44.7666 27.3906 44.7666 29.1447V29.2106C44.7666 30.9318 45.9443 32.2082 47.789 32.2082ZM47.8137 31.1459C46.8502 31.1459 46.1584 30.4047 46.1584 29.2024V29.1365C46.1584 27.9506 46.7761 27.2012 47.7972 27.2012C48.8266 27.2012 49.4361 27.9835 49.4361 29.1282V29.1941C49.4361 30.38 48.8102 31.1459 47.8137 31.1459ZM54.7477 32.2082C56.5841 32.2082 57.7865 30.9318 57.7865 29.1776V29.1118C57.7865 27.3412 56.5265 26.1471 54.7559 26.1471C53.01 26.1471 51.7253 27.3906 51.7253 29.1447V29.2106C51.7253 30.9318 52.903 32.2082 54.7477 32.2082ZM54.7724 31.1459C53.8088 31.1459 53.1171 30.4047 53.1171 29.2024V29.1365C53.1171 27.9506 53.7347 27.2012 54.7559 27.2012C55.7853 27.2012 56.3947 27.9835 56.3947 29.1282V29.1941C56.3947 30.38 55.7688 31.1459 54.7724 31.1459ZM58.9887 32.1176H62.7193V31.0718H60.3228V26.2294H58.9887V32.1176ZM65.8267 32.2082C67.2184 32.2082 68.0749 31.3765 68.0749 30.3306C68.0749 29.1118 67.342 28.7247 65.9173 28.5435C65.0114 28.4118 64.822 28.2141 64.822 27.7941C64.822 27.3988 65.1184 27.1271 65.7031 27.1271C66.2879 27.1271 66.6008 27.3741 66.6831 27.9094H67.9102C67.8031 26.74 67.029 26.1471 65.7031 26.1471C64.402 26.1471 63.562 26.8965 63.562 27.9012C63.562 29.0376 64.1796 29.4906 65.6867 29.6882C66.5514 29.82 66.7984 29.9847 66.7984 30.4541C66.7984 30.9153 66.4114 31.2365 65.8267 31.2365C64.9537 31.2365 64.7314 30.8 64.6737 30.2729H63.3973C63.4714 31.4506 64.2126 32.2082 65.8267 32.2082Z" fill="white" fill-opacity="0.8"/>
</g>
</g>
<defs>
<clipPath id="clip0_1_662">
<rect width="84" height="32.9412" fill="white"/>
</clipPath>
<clipPath id="clip1_1_662">
<rect width="84" height="32.9412" fill="white"/>
</clipPath>
</defs>
</svg>
