<svg width="16" height="16" viewBox="0 0 16 16" fill="none" xmlns="http://www.w3.org/2000/svg">
                  <g clip-path="url(#clip0_1_372)">
                    <path
                      d="M15.8454 8.17066C15.8454 7.64139 15.7997 7.11211 15.7078 6.58283H8.16309V9.66311H12.4208C12.2132 10.7937 11.5303 11.7766 10.5186 12.4419L10.4908 12.6377L12.9818 14.5422L13.1654 14.5574C14.7176 13.1097 15.8454 10.7483 15.8454 8.17066Z"
                      fill="#4285F4" />
                    <path
                      d="M8.16309 16.0007C10.3013 16.0007 12.1158 15.2891 13.1654 14.5574L10.5186 12.4419C9.75239 12.9465 8.91039 13.2981 8.16309 13.2981C6.27364 13.2981 4.67195 12.0229 4.0847 10.3475L3.99843 10.3541L1.31494 12.3957L1.26189 12.4939C2.56947 14.9392 5.20173 16.0007 8.16309 16.0007Z"
                      fill="#34A853" />
                    <path
                      d="M4.0847 10.3475C3.89693 9.79997 3.7909 9.17622 3.7909 8.50069C3.7909 7.82515 3.89693 7.20141 4.0847 6.65388L4.06733 6.4716L1.36531 4.49896L1.26189 4.54719C0.457816 6.13076 0 7.24584 0 8.50069C0 9.75554 0.457816 10.8706 1.26189 12.4542L4.0847 10.3475Z"
                      fill="#FBBC05" />
                    <path
                      d="M8.16309 2.70425C9.44474 2.70425 10.4851 3.24355 11.1394 3.86477L13.208 1.87977C12.1124 0.725945 10.3013 0 8.16309 0C5.20173 0 2.56947 1.06145 1.26189 3.50678L4.0847 5.6135C4.67195 3.93806 6.27364 2.70425 8.16309 2.70425Z"
                      fill="#EA4335" />
                  </g>
                  <defs>
                    <clipPath id="clip0_1_372">
                      <rect width="16" height="16" fill="white" />
                    </clipPath>
                  </defs>
                </svg>

