<svg width="135" height="40" viewBox="0 0 135 40" fill="none" xmlns="http://www.w3.org/2000/svg">
<path d="M134.072 35.274C134.072 36.0322 133.848 36.7736 133.426 37.4039C133.005 38.0342 132.406 38.525 131.705 38.814C131.239 39.0061 130.741 39.1047 130.238 39.104H4.76869C3.75176 39.1051 2.77604 38.7022 2.05611 37.9839C1.33619 37.2657 0.931013 36.2909 0.929688 35.274V4.731C0.931012 3.71361 1.33603 2.73832 2.05581 2.01929C2.77559 1.30026 3.7513 0.896261 4.76869 0.895997H130.237C130.995 0.895515 131.737 1.12021 132.367 1.5416C132.998 1.96299 133.489 2.5621 133.779 3.263C133.972 3.729 134.071 4.227 134.071 4.731L134.072 35.274Z" fill="black"/>
<path fill-rule="evenodd" clip-rule="evenodd" d="M129.998 0.8C132.31 0.8 134.203 2.688 134.203 5V35C134.203 37.312 132.323 39.2 129.998 39.2H5.002C3.88828 39.1979 2.8207 38.7549 2.03271 37.9678C1.24472 37.1808 0.800435 36.1137 0.797 35V5C0.797 2.688 2.677 0.8 5.002 0.8H129.998ZM129.998 0H5.002C3.67679 0.00342934 2.4068 0.531251 1.46955 1.46813C0.532289 2.40502 0.00395932 3.67479 0 5L0 35C0 37.756 2.245 40 5.002 40H129.998C131.324 39.9979 132.594 39.4705 133.532 38.5333C134.469 37.5962 134.997 36.3256 135 35V5C135 2.254 132.752 0 129.998 0Z" fill="white" fill-opacity="0.12"/>
<path d="M71.1189 13.2321C70.2179 13.2321 69.4579 12.9151 68.8569 12.2921C68.5605 11.9889 68.3271 11.63 68.1702 11.2361C68.0134 10.8422 67.9361 10.4211 67.9429 9.99711C67.9429 9.08711 68.2509 8.31711 68.8569 7.70611C69.4549 7.08211 70.2149 6.76611 71.1169 6.76611C72.0079 6.76611 72.7679 7.08211 73.3789 7.70611C73.9849 8.33611 74.2929 9.10711 74.2929 9.99711C74.2829 10.9101 73.9749 11.6811 73.3789 12.2891C72.7809 12.9181 72.0209 13.2321 71.1189 13.2321ZM44.2949 13.2321C43.8731 13.2383 43.4544 13.1593 43.0639 12.9998C42.6733 12.8403 42.3189 12.6037 42.0219 12.3041C41.4019 11.6911 41.0859 10.9151 41.0859 10.0001C41.0859 9.08511 41.4019 8.31011 42.0219 7.69611C42.6359 7.08011 43.4009 6.76811 44.2949 6.76811C44.7319 6.76811 45.1569 6.85511 45.5639 7.03211C45.9639 7.20411 46.2889 7.43911 46.5299 7.72611L46.5899 7.79811L45.9169 8.46111L45.8469 8.37911C45.4669 7.92511 44.9569 7.70311 44.2849 7.70311C43.6839 7.70311 43.1599 7.91811 42.7279 8.34211C42.2929 8.76811 42.0719 9.32711 42.0719 10.0021C42.0719 10.6781 42.2929 11.2371 42.7279 11.6631C43.1599 12.0871 43.6839 12.3021 44.2849 12.3021C44.9249 12.3021 45.4649 12.0871 45.8849 11.6631C46.1329 11.4131 46.2869 11.0651 46.3409 10.6231H44.1829V9.69111H47.2679L47.2799 9.77511C47.3019 9.93311 47.3249 10.0951 47.3249 10.2451C47.3249 11.1051 47.0669 11.8001 46.5549 12.3151C45.9739 12.9231 45.2139 13.2321 44.2949 13.2321ZM79.9609 13.1001H79.0099L76.0959 8.41911L76.1209 9.26211V13.0971H75.1699V6.90011H76.2549L76.2849 6.94811L79.0249 11.3571L78.9999 10.5171V6.90011H79.9599L79.9609 13.1001ZM63.9709 13.1001H63.0079V7.83311H61.3369V6.90011H65.6409V7.83311H63.9689V13.1001H63.9709ZM60.5519 13.1001H59.5909V6.90011H60.5519V13.1001ZM55.1499 13.1001H54.1899V7.83311H52.5179V6.90011H56.8219V7.83311H55.1499V13.1001ZM51.9099 13.0901H48.2239V6.90011H51.9089V7.83311H49.1869V9.53311H51.6439V10.4561H49.1869V12.1571H51.9089L51.9099 13.0901ZM69.5619 11.6501C69.9919 12.0821 70.5129 12.3001 71.1189 12.3001C71.7429 12.3001 72.2519 12.0871 72.6769 11.6501C73.0989 11.2271 73.3119 10.6701 73.3119 10.0001C73.3119 9.33011 73.0989 8.77011 72.6789 8.34911C72.4773 8.14061 72.2352 7.97556 71.9674 7.86412C71.6997 7.75268 71.4119 7.69721 71.1219 7.70111C70.4989 7.70111 69.9889 7.91311 69.5669 8.34911C69.1449 8.77311 68.9309 9.32911 68.9309 9.99911C68.9309 10.6711 69.1419 11.2291 69.5619 11.6511V11.6501Z" fill="white"/>
<path fill-rule="evenodd" clip-rule="evenodd" d="M67.8535 21.7562C65.5065 21.7562 63.6035 23.5442 63.6035 26.0102C63.6035 28.4542 65.5185 30.2642 67.8535 30.2642C70.2005 30.2642 72.1025 28.4642 72.1025 26.0102C72.1025 23.5442 70.2005 21.7562 67.8535 21.7562ZM67.8535 28.5792C66.5695 28.5792 65.4635 27.5112 65.4635 26.0002C65.4635 24.4662 66.5715 23.4222 67.8535 23.4222C69.1375 23.4222 70.2425 24.4662 70.2425 26.0002C70.2445 27.5212 69.1385 28.5792 67.8535 28.5792ZM58.5825 21.7562C56.2355 21.7562 54.3325 23.5442 54.3325 26.0102C54.3325 28.4542 56.2475 30.2642 58.5825 30.2642C60.9285 30.2642 62.8315 28.4642 62.8315 26.0102C62.8315 23.5442 60.9275 21.7562 58.5825 21.7562ZM58.5825 28.5792C57.2975 28.5792 56.1925 27.5112 56.1925 26.0002C56.1925 24.4662 57.3005 23.4222 58.5825 23.4222C59.8655 23.4222 60.9715 24.4662 60.9715 26.0002C60.9715 27.5212 59.8675 28.5792 58.5825 28.5792ZM47.5505 23.0552V24.8552H51.8545C51.7225 25.8652 51.3895 26.6112 50.8805 27.1222C50.2505 27.7562 49.2765 28.4442 47.5605 28.4442C44.9155 28.4442 42.8465 26.2992 42.8465 23.6442C42.8465 20.9882 44.9155 18.8432 47.5605 18.8432C48.9885 18.8432 50.0285 19.4092 50.8005 20.1332L52.0725 18.8552C50.9995 17.8232 49.5725 17.0322 47.5695 17.0322C43.9415 17.0322 40.8965 20.0002 40.8965 23.6342C40.8965 27.2772 43.9395 30.2342 47.5695 30.2342C49.5295 30.2342 50.9995 29.5912 52.1625 28.3792C53.3465 27.1892 53.7225 25.5112 53.7225 24.1572C53.7225 23.7362 53.6895 23.3572 53.6225 23.0352H47.5475C47.5505 23.0322 47.5505 23.0552 47.5505 23.0552ZM92.6735 24.4562C92.3185 23.5012 91.2455 21.7462 89.0455 21.7462C86.8655 21.7462 85.0515 23.4692 85.0515 26.0002C85.0515 28.3902 86.8445 30.2542 89.2565 30.2542C91.1935 30.2542 92.3205 29.0642 92.7855 28.3672L91.3475 27.3992C90.8705 28.1092 90.2075 28.5762 89.2665 28.5762C88.3145 28.5762 87.6495 28.1422 87.2065 27.2862L92.8725 24.9302C92.8725 24.9332 92.6735 24.4562 92.6735 24.4562ZM86.8965 25.8782C86.8525 24.2352 88.1685 23.3992 89.1095 23.3992C89.8525 23.3992 90.4705 23.7662 90.6815 24.2992L86.8965 25.8782ZM82.2945 30.0002H84.1545V17.5012H82.2945V30.0002ZM79.2405 22.7002H79.1735C78.7535 22.2002 77.9565 21.7462 76.9375 21.7462C74.8245 21.7462 72.8775 23.6132 72.8775 26.0132C72.8775 28.4012 74.8145 30.2472 76.9375 30.2472C77.9435 30.2472 78.7535 29.7912 79.1735 29.2792H79.2405V29.8902C79.2405 31.5142 78.3755 32.3902 76.9825 32.3902C75.8425 32.3902 75.1345 31.5662 74.8465 30.8782L73.2295 31.5562C73.6945 32.6782 74.9335 34.0672 76.9795 34.0672C79.1605 34.0672 81.0085 32.7782 81.0085 29.6342V22.0002H79.2505V22.7002H79.2405ZM77.1045 28.5792C75.8205 28.5792 74.7475 27.5012 74.7475 26.0122C74.7475 24.5122 75.8205 23.4242 77.1045 23.4242C78.3755 23.4242 79.3615 24.5242 79.3615 26.0122C79.3745 27.5022 78.3785 28.5792 77.1045 28.5792ZM101.383 17.5002H96.9355V30.0002H98.7955V25.2662H101.385C103.444 25.2662 105.468 23.7672 105.468 21.3882C105.468 19.0092 103.452 17.5002 101.383 17.5002ZM101.437 23.5202H98.7935V19.2312H101.437C102.831 19.2312 103.618 20.3862 103.618 21.3762C103.618 22.3562 102.821 23.5202 101.437 23.5202ZM112.924 21.7322C111.573 21.7322 110.18 22.3332 109.603 23.6422L111.252 24.3312C111.608 23.6422 112.258 23.4082 112.946 23.4082C113.91 23.4082 114.883 23.9872 114.906 25.0192V25.1512C114.573 24.9612 113.843 24.6722 112.969 24.6722C111.188 24.6722 109.382 25.6502 109.382 27.4822C109.382 29.1622 110.843 30.2382 112.469 30.2382C113.719 30.2382 114.406 29.6722 114.836 29.0162H114.903V29.9842H116.696V25.1962C116.696 22.9662 115.047 21.7322 112.924 21.7322ZM112.69 28.5782C112.082 28.5782 111.23 28.2782 111.23 27.5102C111.23 26.5432 112.293 26.1762 113.199 26.1762C114.019 26.1762 114.407 26.3532 114.893 26.5982C114.83 27.1396 114.571 27.6392 114.165 28.0036C113.76 28.368 113.236 28.5723 112.69 28.5782ZM123.238 22.0002L121.102 27.4222H121.035L118.822 22.0002H116.82L120.141 29.5792L118.249 33.7912H120.186L125.294 22.0002H123.238ZM106.494 30.0002H108.354V17.5012H106.494V30.0002Z" fill="white"/>
<path fill-rule="evenodd" clip-rule="evenodd" d="M10.3915 7.53382C10.1035 7.84482 9.9375 8.32182 9.9375 8.94482V31.0568C9.9375 31.6808 10.1035 32.1568 10.4015 32.4568L10.4785 32.5238L22.8165 20.1338V19.8578L10.4685 7.46582L10.3915 7.53382Z" fill="url(#paint0_linear_1_635)"/>
<path fill-rule="evenodd" clip-rule="evenodd" d="M26.9226 24.2771L22.8066 20.1451V19.8551L26.9226 15.7231L27.0116 15.7781L31.8796 18.5561C33.2726 19.3441 33.2726 20.6461 31.8796 21.4441L27.0116 24.2221L26.9216 24.2771H26.9226Z" fill="url(#paint1_linear_1_635)"/>
<path fill-rule="evenodd" clip-rule="evenodd" d="M27.0096 24.222L22.8066 20L10.3906 32.466C10.8446 32.956 11.6076 33.01 12.4596 32.534L27.0096 24.222Z" fill="url(#paint2_linear_1_635)"/>
<path fill-rule="evenodd" clip-rule="evenodd" d="M27.0096 15.7778L12.4596 7.47781C11.6076 6.98981 10.8426 7.05781 10.3906 7.54581L22.8056 19.9998L27.0096 15.7778Z" fill="url(#paint3_linear_1_635)"/>
<path opacity="0.2" fill-rule="evenodd" clip-rule="evenodd" d="M26.9214 24.1318L12.4694 32.3768C11.6624 32.8428 10.9424 32.8098 10.4774 32.3868L10.4004 32.4638L10.4774 32.5308C10.9424 32.9528 11.6624 32.9868 12.4694 32.5208L27.0194 24.2208L26.9214 24.1318Z" fill="black"/>
<path opacity="0.12" fill-rule="evenodd" clip-rule="evenodd" d="M31.8782 21.3L26.9082 24.132L26.9982 24.222L31.8652 21.444C32.5632 21.044 32.9052 20.521 32.9052 20C32.8642 20.479 32.5092 20.933 31.8782 21.3Z" fill="black"/>
<path opacity="0.25" fill-rule="evenodd" clip-rule="evenodd" d="M12.4605 7.62288L31.8795 18.7009C32.5095 19.0569 32.8655 19.5239 32.9195 19.9999C32.9195 19.4789 32.5775 18.9549 31.8795 18.5559L12.4595 7.47988C11.0675 6.67988 9.9375 7.34788 9.9375 8.94588V9.09088C9.9375 7.48988 11.0675 6.83288 12.4605 7.62288Z" fill="white"/>
<defs>
<linearGradient id="paint0_linear_1_635" x1="21.7105" y1="8.70682" x2="1.9355" y2="13.9538" gradientUnits="userSpaceOnUse">
<stop stop-color="#00A0FF"/>
<stop offset="0.007" stop-color="#00A1FF"/>
<stop offset="0.26" stop-color="#00BEFF"/>
<stop offset="0.512" stop-color="#00D2FF"/>
<stop offset="0.76" stop-color="#00DFFF"/>
<stop offset="1" stop-color="#00E3FF"/>
</linearGradient>
<linearGradient id="paint1_linear_1_635" x1="33.6956" y1="20.0001" x2="9.59864" y2="20.0001" gradientUnits="userSpaceOnUse">
<stop stop-color="#FFE000"/>
<stop offset="0.409" stop-color="#FFBD00"/>
<stop offset="0.775" stop-color="#FFA500"/>
<stop offset="1" stop-color="#FF9C00"/>
</linearGradient>
<linearGradient id="paint2_linear_1_635" x1="24.7236" y1="22.297" x2="8.76162" y2="49.054" gradientUnits="userSpaceOnUse">
<stop stop-color="#FF3A44"/>
<stop offset="1" stop-color="#C31162"/>
</linearGradient>
<linearGradient id="paint3_linear_1_635" x1="7.26463" y1="0.178814" x2="14.3856" y2="12.1288" gradientUnits="userSpaceOnUse">
<stop stop-color="#32A071"/>
<stop offset="0.069" stop-color="#2DA771"/>
<stop offset="0.476" stop-color="#15CF74"/>
<stop offset="0.801" stop-color="#06E775"/>
<stop offset="1" stop-color="#00F076"/>
</linearGradient>
</defs>
</svg>
