<svg width="340" height="280" viewBox="0 0 340 280" fill="none" xmlns="http://www.w3.org/2000/svg">
<g style="mix-blend-mode:multiply" opacity="0.3">
<path d="M99.5254 278.239C99.5254 277.265 100.314 276.477 101.287 276.477H211.379C212.352 276.477 213.141 277.265 213.141 278.239C213.141 279.212 212.352 280 211.379 280H101.287C100.314 280 99.5254 279.212 99.5254 278.239Z" fill="#17151E"/>
</g>
<path d="M339.965 262.46H0V244.845H339.965V262.46Z" fill="#8B7BA6"/>
<path d="M109.213 128.588H153.25V236.038H109.213V128.588Z" fill="#0E0A1E"/>
<path d="M184.955 125.065H287.121V213.139H184.955V125.065Z" fill="#0E0A1E"/>
<path d="M184.955 199.928H287.121V213.139H184.955V199.928Z" fill="#291C40"/>
<path d="M234.938 131.23H237.139V162.937H234.938V131.23Z" fill="#1F1236"/>
<path d="M222.828 175.132C222.828 168.397 228.288 162.937 235.023 162.937H237.056C243.791 162.937 249.25 168.397 249.25 175.132H222.828Z" fill="#1F1236"/>
<path d="M290.644 56.3672H47.5605V125.065H290.644V56.3672Z" fill="#382853"/>
<path d="M290.644 56.3672H47.5605V65.1746H290.644V56.3672Z" fill="#564671"/>
<path d="M105.69 128.588H51.084V213.139H105.69V128.588Z" fill="#0E0A1E"/>
<path d="M65.1758 170.864H91.5979V192.001H65.1758V170.864Z" fill="#523A54"/>
<path d="M47.5605 125.065H156.772V236.038H153.249V128.588H51.0835V236.038H47.5605V125.065Z" fill="#CA7054"/>
<path d="M181.434 125.065H290.645V236.038H287.122V128.588H184.957V236.038H181.434V125.065Z" fill="#CA7054"/>
<path d="M13.2112 1.76148C13.2112 0.789142 13.9994 0 14.9727 0H324.993C325.966 0 326.754 0.789142 326.754 1.76148V15.8533H13.2112V1.76148Z" fill="#74648F"/>
<path d="M326.754 24.6606H13.2112V28.1836H326.754V24.6606Z" fill="#564671"/>
<path d="M326.754 52.8445H13.2112V56.3674H326.754V52.8445Z" fill="#382853"/>
<path d="M329.397 52.8442H10.5701C9.59723 52.8442 8.80859 52.0556 8.80859 51.0828V29.945C8.80859 28.9722 9.59723 28.1836 10.5701 28.1836H329.397C330.37 28.1836 331.159 28.9722 331.159 29.945V51.0828C331.159 52.0556 330.37 52.8442 329.397 52.8442Z" fill="#8B7BA6"/>
<path d="M8.80859 22.8994C8.80859 23.8726 9.59685 24.6609 10.5701 24.6609H329.397C330.371 24.6609 331.159 23.8726 331.159 22.8994V17.615C331.159 16.6427 330.371 15.8535 329.397 15.8535H10.5701C9.59685 15.8535 8.80859 16.6427 8.80859 17.615V22.8994Z" fill="#8B7BA6"/>
<path d="M17.6152 56.3672H52.8448L49.3218 77.5049H21.1382L17.6152 56.3672Z" fill="#8B7BA6"/>
<path d="M151.488 56.3672H186.718L183.195 77.5049H155.011L151.488 56.3672Z" fill="#8B7BA6"/>
<path d="M285.359 56.3672H320.589L317.066 77.5049H288.882L285.359 56.3672Z" fill="#8B7BA6"/>
<path d="M52.8448 204.331H17.6152L21.1382 192.001H49.3218L52.8448 204.331Z" fill="#8B7BA6"/>
<path d="M186.718 204.331H151.488L155.011 192.001H183.195L186.718 204.331Z" fill="#8B7BA6"/>
<path d="M320.589 204.331H285.359L288.882 192.001H317.066L320.589 204.331Z" fill="#8B7BA6"/>
<path d="M20.2578 77.5051H50.2029V81.0281H20.2578V77.5051Z" fill="#74648F"/>
<path d="M154.131 77.5049H184.076V81.0278H154.131V77.5049Z" fill="#74648F"/>
<path d="M288.002 77.5049H317.947V81.0278H288.002V77.5049Z" fill="#74648F"/>
<path d="M21.1386 192.001H49.3223V188.478H21.1386V192.001Z" fill="#74648F"/>
<path d="M155.012 192.001H183.195V188.478H155.012V192.001Z" fill="#74648F"/>
<path d="M288.883 192.001H317.066V188.478H288.883V192.001Z" fill="#74648F"/>
<path d="M54.606 207.854H15.8535V204.331H54.606V207.854Z" fill="#74648F"/>
<path d="M188.477 207.854H149.725V204.331H188.477V207.854Z" fill="#74648F"/>
<path d="M322.35 207.854H283.598V204.331H322.35V207.854Z" fill="#74648F"/>
<path d="M17.6142 207.854L52.8438 207.854L52.8437 236.038L17.6142 236.038L17.6142 207.854Z" fill="#564671"/>
<path d="M151.487 207.854L186.717 207.854L186.717 236.038L151.487 236.038L151.487 207.854Z" fill="#564671"/>
<path d="M285.36 207.854L320.59 207.854L320.59 236.038L285.36 236.038L285.36 207.854Z" fill="#564671"/>
<path d="M49.3223 211.377H21.1387V232.515H49.3223V211.377Z" stroke="#74648F" stroke-width="0.975825"/>
<path d="M183.193 211.377H155.01V232.515H183.193V211.377Z" stroke="#74648F" stroke-width="0.975825"/>
<path d="M317.066 211.377H288.883V232.515H317.066V211.377Z" stroke="#74648F" stroke-width="0.975825"/>
<path d="M331.159 244.845H8.80859V237.799C8.80859 236.827 9.59685 236.038 10.5701 236.038H329.397C330.371 236.038 331.159 236.827 331.159 237.799V244.845Z" fill="#8B7BA6"/>
<path d="M331.159 244.845H8.80859V248.368H331.159V244.845Z" fill="#564671"/>
<path d="M47.5591 188.478H22.8984V81.028H47.5591V188.478Z" fill="#564671"/>
<path d="M181.432 188.478H156.771V81.028H181.432V188.478Z" fill="#564671"/>
<path d="M315.305 188.478H290.645V81.028H315.305V188.478Z" fill="#564671"/>
<path d="M26.4238 84.5508H44.0386V121.542H26.4238V84.5508Z" stroke="#74648F" stroke-width="0.975825"/>
<path d="M160.295 84.5508H177.91V121.542H160.295V84.5508Z" stroke="#74648F" stroke-width="0.975825"/>
<path d="M294.168 84.5508H311.783V121.542H294.168V84.5508Z" stroke="#74648F" stroke-width="0.975825"/>
<path d="M26.4238 139.156H44.0386V184.955H26.4238V139.156Z" stroke="#74648F" stroke-width="0.975825"/>
<path d="M160.295 139.156H177.91V184.955H160.295V139.156Z" stroke="#74648F" stroke-width="0.975825"/>
<path d="M294.168 139.156H311.783V184.955H294.168V139.156Z" stroke="#74648F" stroke-width="0.975825"/>
<path d="M26.4238 125.945H44.0386V134.753H26.4238V125.945Z" stroke="#74648F" stroke-width="0.975825"/>
<path d="M160.295 125.945H177.91V134.753H160.295V125.945Z" stroke="#74648F" stroke-width="0.975825"/>
<path d="M294.168 125.945H311.783V134.753H294.168V125.945Z" stroke="#74648F" stroke-width="0.975825"/>
<path d="M105.688 213.139H52.8438V216.662H105.688V213.139Z" fill="#CA7054"/>
<path d="M285.359 213.139H186.717V216.662H285.359V213.139Z" fill="#CA7054"/>
<path d="M285.359 236.038H186.717V216.661H285.359V236.038Z" fill="#B65C40"/>
<path d="M105.688 216.662H52.8438V236.038H105.688V216.662Z" fill="#B65C40"/>
<path d="M184.718 125.065H287.359L295.929 147.964H176.148L184.718 125.065Z" fill="#F24B57"/>
<path d="M176.148 155.01H295.929V147.964H176.15L176.148 155.01Z" fill="#A92F39"/>
<path d="M287.359 125.065H184.719L183.4 128.588H288.678L287.359 125.065Z" fill="#FF5F6B"/>
<path d="M109.21 128.588H105.688V236.038H109.21V128.588Z" fill="#CA7054"/>
<path d="M50.845 125.065H153.486L162.056 147.964H42.2754L50.845 125.065Z" fill="#F24B57"/>
<path d="M42.2754 155.01H162.056V147.964H42.2772L42.2754 155.01Z" fill="#A92F39"/>
<path d="M153.488 125.065H50.8477L49.5293 128.588H154.807L153.488 125.065Z" fill="#FF5F6B"/>
<path d="M290.645 81.0281H315.305V84.551H290.645V81.0281Z" fill="#382853"/>
<path d="M156.771 81.0278H181.432V84.5508H156.771V81.0278Z" fill="#382853"/>
<path d="M22.8984 81.0278H47.5591V84.5508H22.8984V81.0278Z" fill="#382853"/>
<path d="M156.772 125.065C156.772 94.9079 132.325 70.4595 102.166 70.4595C72.0081 70.4595 47.5605 94.9079 47.5605 125.065H156.772Z" fill="#8B7BA6"/>
<path d="M51.1367 125.065C51.1367 96.8846 73.9822 74.04 102.162 74.04C130.342 74.04 153.187 96.8846 153.187 125.065H149.607C149.607 98.8619 128.365 77.6211 102.162 77.6211C75.9594 77.6211 54.7178 98.8619 54.7178 125.065H51.1367Z" fill="#0E0A1E"/>
<path d="M86.0138 80.4429C83.014 81.5297 80.1463 82.9116 77.4609 84.5524L117.975 125.065H130.633L86.0138 80.4429Z" fill="#D9D9D9"/>
<path d="M107.848 125.065L71.5789 88.7969C69.2917 90.7257 67.1938 92.8659 65.3125 95.1884L95.1889 125.065H107.848Z" fill="#D9D9D9"/>
<path d="M290.645 125.065C290.645 94.9079 266.198 70.4595 236.039 70.4595C205.881 70.4595 181.434 94.9079 181.434 125.065H290.645Z" fill="#8B7BA6"/>
<path d="M185.01 125.065C185.01 96.8846 207.855 74.04 236.035 74.04C264.215 74.04 287.06 96.8846 287.06 125.065H283.48C283.48 98.8619 262.238 77.6211 236.035 77.6211C209.832 77.6211 188.591 98.8619 188.591 125.065H185.01Z" fill="#0E0A1E"/>
<path d="M219.885 80.4429C216.885 81.5297 214.017 82.9116 211.332 84.5524L251.846 125.065H264.504L219.885 80.4429Z" fill="#D9D9D9"/>
<path d="M241.721 125.065L205.452 88.7971C203.165 90.7259 201.067 92.8661 199.186 95.1887L229.062 125.065H241.721Z" fill="#D9D9D9"/>
<path d="M222.387 213.139H229.941C229.766 211.109 227.316 210.218 223.876 209.093L222.387 213.139Z" fill="#33264A"/>
<path d="M217.496 177.433C217.871 179.062 216.706 182.385 215.843 183.659H208.689L205.933 185.789C204.447 183.138 202.486 176.918 207.446 175.005C213.026 172.852 217.027 175.397 217.496 177.433Z" fill="#1F1236"/>
<path d="M203.506 187.631L208.316 182.914L210.791 185.923L208.316 191.572L203.506 187.631Z" fill="#33264A"/>
<path d="M210.345 185.381L210.791 185.922L209.529 188.802L208.385 184.177L210.345 185.381Z" fill="black"/>
<path d="M207.737 181.741C206.663 184.473 210.726 189.404 213.542 189.541C217.209 189.72 217.018 181.82 216.717 179.405C215.04 180.339 212.157 180.661 211.321 180.568L210.175 182.394C209.81 181.306 208.332 180.23 207.737 181.741Z" fill="#33264A"/>
<path d="M197.771 194.469C195.535 199.9 196.22 209.179 196.843 213.139H213.217L211.027 208.65C212.499 202.395 214.866 190.098 206.428 187.461C203.8 186.639 200.566 187.679 197.771 194.469Z" fill="#473A5E"/>
<path d="M206.355 200.05L207.699 213.138H213.218C211.048 208.691 208.811 204.414 206.355 200.05Z" fill="#0E0A1E"/>
<path d="M208.818 210.052L201.869 194.852L210.97 191.571L216.169 206.269L224.993 209.443L223.473 213.139H213.624C211.555 213.139 209.678 211.933 208.818 210.052Z" fill="#473A5E"/>
<path d="M259.757 174.615C258.908 174.854 256.966 175.181 256.029 177.095C252.713 183.878 251.683 203.121 270.851 204.236C280.428 204.794 283.56 198.182 282.772 193.577C282.045 189.319 278.631 188.113 276.819 187.664C269.885 185.948 271.233 171.375 259.757 174.615Z" fill="#1F1236"/>
<path d="M268.921 189.393L264.112 182.914L261.637 185.923L264.112 191.572L268.921 189.393Z" fill="#33264A"/>
<path d="M261.73 186.138L262.758 188.484L264.042 184.177L261.73 186.138Z" fill="black"/>
<path d="M258.103 187.55C254.491 186.897 256.458 179.244 257.297 176.958C261.019 181.721 267.42 179.997 264.409 184.287C262.829 186.264 259.955 187.884 258.103 187.55Z" fill="#33264A"/>
<path d="M276.466 213.139C277.345 207.545 276.601 184.148 266 187.461C261.936 188.731 256.559 197.568 257.057 201.708C257.354 204.176 258.864 205.122 260.772 205.762C260.979 206.812 261.199 207.788 261.401 208.65L259.211 213.139H276.466Z" fill="#473A5E"/>
<path d="M267.164 213.139L268.793 201.084L259.501 212.546L259.211 213.139H267.164Z" fill="black"/>
<path d="M253.46 213.139H245.906C246.082 211.109 248.532 210.218 251.971 209.093L253.46 213.139Z" fill="#33264A"/>
<path d="M267.03 210.052L273.979 194.852L264.879 191.571L259.68 206.269L250.855 209.443L252.376 213.139H262.225C264.293 213.139 266.171 211.933 267.03 210.052Z" fill="#473A5E"/>
<path d="M259.963 205.468L262.42 198.52" stroke="#33264A" stroke-width="0.413083"/>
<path d="M267.029 210.052L270.504 202.452" stroke="#33264A" stroke-width="0.413083"/>
<path d="M115.659 224.874C112.104 220.937 104.994 213.386 104.994 208.038C104.994 202.051 114.236 187.105 118.735 187.71V199.577L113.278 208.038L118.744 221.168L115.659 224.874Z" fill="#523A54"/>
<path d="M114.671 213.958L112.942 221.849C113.358 222.323 113.763 222.776 114.152 223.208L114.671 213.958Z" fill="black"/>
<path d="M137.14 224.874C140.695 220.937 147.805 213.386 147.805 208.038C147.805 202.051 138.564 187.105 134.063 187.71V199.577L139.521 208.038L134.055 221.168L137.14 224.874Z" fill="#523A54"/>
<path d="M138.131 213.958L139.861 221.849C139.445 222.323 139.039 222.776 138.651 223.208L138.131 213.958Z" fill="black"/>
<path d="M110.177 274.582C110.989 273.354 111.318 271.435 111.381 270.629H116.925V277.358H107.989C107.966 276.771 109.162 276.117 110.177 274.582Z" fill="black"/>
<path d="M118.861 270.855H111.305L113.994 228.621H124.146L118.861 270.855Z" fill="#523A54"/>
<path d="M134.834 274.582C134.022 273.354 133.693 271.435 133.63 270.629H128.086V277.358H137.023C137.045 276.771 135.849 276.117 134.834 274.582Z" fill="black"/>
<path d="M128.084 270.855H134.706L138.235 228.621H128.084V270.855Z" fill="#523A54"/>
<path d="M120.896 254.592C118.128 254.277 115.33 253.689 112.453 252.826L113.994 228.621H124.146L120.896 254.592Z" fill="black"/>
<path d="M136.149 253.571C133.416 254.234 130.742 254.643 128.082 254.796V228.621H138.233L136.149 253.571Z" fill="black"/>
<path d="M116.014 190.064C116.077 188.935 116.851 187.964 117.952 187.706C123.802 186.333 129.302 186.333 135.152 187.706C136.253 187.964 137.026 188.935 137.089 190.064L140.506 250.84C130.896 253.86 122.207 253.86 112.598 250.84L116.014 190.064Z" fill="#684A6A"/>
<path d="M137.917 204.798L138.302 211.632C136.968 207.436 134.36 204.488 130.969 201.637L137.917 204.798Z" fill="black"/>
<path d="M136.356 193.649C137.344 192.737 138.127 191.526 138.577 190.266C138.295 189.919 137.918 189.677 137.635 189.36C137.21 188.992 136.793 188.676 136.39 188.422C136.064 188.075 135.64 187.82 135.152 187.706C129.302 186.333 123.801 186.333 117.951 187.706C117.047 187.918 116.363 188.613 116.113 189.48C116.536 191.099 117.296 192.531 118.508 193.649C121.364 196.285 123.947 198.053 127.433 198.053C130.918 198.053 133.501 196.285 136.356 193.649Z" fill="black"/>
<path d="M117.729 172.785C119.117 169.18 122.69 167.046 126.553 167.046C130.416 167.046 133.99 169.18 135.377 172.785C137.816 179.126 140.461 189.049 135.477 193.649C132.621 196.285 130.038 198.052 126.553 198.052C123.068 198.052 120.484 196.285 117.628 193.649C112.644 189.049 115.289 179.126 117.729 172.785Z" fill="#814937"/>
<g style="mix-blend-mode:multiply" opacity="0.3">
<path d="M136.842 177.078C138.583 182.985 139.437 189.996 135.479 193.649C132.622 196.285 130.039 198.053 126.554 198.053C123.069 198.053 120.486 196.285 117.63 193.649C117.487 193.518 117.351 193.382 117.221 193.242C129.579 192.331 134.963 184.479 136.842 177.078Z" fill="#17151E"/>
</g>
<path d="M183.496 273.585C184.165 272.168 184.082 269.075 183.957 268.147H190.531V273.585H183.496Z" fill="#FFB78F"/>
<path d="M186.02 272.853C184.927 272.853 184.175 272.073 183.935 271.682C183.446 272.364 182.153 273.877 180.899 274.48C179.331 275.234 178.158 275.452 178.178 277.358H185.087C185.669 276.875 187.004 275.917 187.686 275.948C188.369 275.98 188.738 276.901 188.838 277.358H190.543V271.265C188.321 270.849 187.388 272.853 186.02 272.853Z" fill="#1F1236"/>
<path d="M194.947 273.585C195.616 272.168 195.533 269.075 195.408 268.147H201.983V273.585H194.947Z" fill="#FFB78F"/>
<path d="M197.471 272.853C196.378 272.853 195.626 272.073 195.387 271.682C194.897 272.364 193.604 273.877 192.35 274.48C190.782 275.234 189.609 275.452 189.629 277.358H196.539C197.12 276.875 198.455 275.917 199.138 275.948C199.82 275.98 200.189 276.901 200.289 277.358H201.994V271.265C199.772 270.849 198.839 272.853 197.471 272.853Z" fill="#1F1236"/>
<path d="M181.137 268.254C181.137 242.236 181.872 216.367 183.614 206.094L202.417 207.243C208.936 215.768 211.372 255.022 210.014 267.419C202.242 270.929 187.231 269.439 181.137 268.254Z" fill="#523A54"/>
<path d="M197.768 180.534L193.839 173.175L190.719 175.934L192.313 182.464L197.768 180.534Z" fill="#FFB78F"/>
<path d="M191.271 178.211L194.683 174.77L194.332 174.114L192.071 174.734L190.715 175.934L191.271 178.211Z" fill="black"/>
<path d="M188.298 177.746C184.408 177.043 186.887 168.681 187.936 165.851C191.945 170.981 199.214 169.612 195.97 174.231C194.269 176.362 190.292 178.107 188.298 177.746Z" fill="#FFB78F"/>
<path d="M196.399 177.803C193.045 177.589 190.758 179.962 190.035 181.175H199.351C199.765 180.139 199.754 178.016 196.399 177.803Z" fill="#F0EEF5"/>
<path d="M202.851 207.582C198.614 209.103 189.709 208.215 185.787 207.582C184.468 200.506 182.778 184.806 186.561 182.133C191.289 178.792 202.851 177.243 205.115 182.845C206.926 187.327 204.36 201.791 202.851 207.582Z" fill="#684A6A"/>
<path d="M182.189 215.888C190.354 207.876 190.889 203.471 191.884 190.384L184.871 201.436C185.076 203.175 185.312 204.806 185.547 206.214L183.614 206.096C183.175 208.683 182.688 211.983 182.189 215.888Z" fill="black"/>
<path d="M182.562 213.547L182.299 219.96C178.428 218.216 177.984 215.44 178.568 210.652L182.562 213.547Z" fill="#FFB78F"/>
<path d="M182.444 214.054C185.095 210.519 189.169 204.363 190.228 200.97C193.369 187.567 193.234 178.09 186.698 182.046C183.58 183.933 182.631 195.208 182.348 200.121L178.191 211.021C178.909 213.065 180.296 213.765 182.444 214.054Z" fill="#684A6A"/>
<path d="M187.537 166.06C188.336 168.765 190.695 170.217 191.775 170.606C190.713 179.526 199.582 183.031 202.883 176.839C206.208 170.606 200.213 162.348 195.546 161.153C189.587 159.63 186.538 162.678 187.537 166.06Z" fill="#2A2439"/>
<g style="mix-blend-mode:multiply" opacity="0.3">
<path d="M202.701 168.075C202.442 171.933 200.441 176.336 194.354 178.507C196.995 180.773 200.919 180.516 202.88 176.839C204.367 174.051 203.99 170.859 202.701 168.075Z" fill="#17151E"/>
</g>
<path d="M166.866 184.307L162.937 176.948L159.816 179.708L161.411 186.238L166.866 184.307Z" fill="#FFB78F"/>
<path d="M132.251 196.557C132.658 196.539 134.764 198.655 135.327 199.275L133.995 204.168C133.111 203.835 130.288 201.985 129.598 200.763C128.735 199.235 128.404 196.358 129.267 196.314C129.957 196.278 131.544 197.243 132.251 197.73C132.082 197.347 131.845 196.575 132.251 196.557Z" fill="#FFB78F"/>
<path d="M146.734 271.701L147.3 265.489L154.662 266.379C154.662 266.379 153.668 276.945 152.895 277.323C152.122 277.702 136.992 274.818 137.731 273.946C138.323 273.246 143.98 272.159 146.734 271.701Z" fill="#2A243E"/>
<path d="M166.596 271.61L166.164 265.387L173.574 265.092C173.574 265.092 174.279 275.681 173.575 276.178C172.873 276.674 157.477 276.242 158.067 275.262C158.539 274.478 163.951 272.501 166.596 271.61Z" fill="#2A243E"/>
<path d="M151.76 218.548L147.117 266.859L155.903 267.739L162.498 224.462L165.74 266.859H174.526L173.549 218.548H151.76Z" fill="#523A54"/>
<path d="M162.365 225.338C158.022 226.456 153.789 227.076 150.979 226.689L151.728 218.893L151.786 218.548H173.549L173.606 221.376C170.496 222.834 166.491 224.262 162.562 225.287L162.499 224.462L162.365 225.338Z" fill="black"/>
<path d="M151.303 222.192L153.383 209.154L151.771 192.234C151.468 189.043 152.969 183.645 159.634 182.946C167.965 182.072 171.9 184.152 173.873 187.852C175.164 190.271 174.023 211.17 173.732 221.318C166.904 224.543 156.521 223.244 151.303 222.192Z" fill="#684A6A"/>
<path d="M153.221 207.461L152.402 198.867L159.491 193.889C158.264 197.074 155.696 203.137 153.221 207.461Z" fill="black"/>
<path d="M135.189 199.058L144.169 201.135C146.782 196.475 150.838 188.63 154.396 185.258C156.539 183.227 161.87 184.789 160.768 191.076C159.918 195.925 152.094 208.772 147.72 209.149C144.222 209.451 138.103 207.247 133.119 203.928C132.929 201.952 133.198 199.98 135.189 199.058Z" fill="#684A6A"/>
<path d="M159.241 181.944C155.289 181.856 156.433 173.21 157.027 170.251C161.789 174.693 168.754 172.206 166.272 177.275C164.923 179.644 161.267 181.989 159.241 181.944Z" fill="#FFB78F"/>
<path d="M163.768 164.927C157.705 163.892 155.871 166.309 155.759 169.833C155.543 176.592 162.572 186.041 170.225 178.852C175.373 174.014 172.632 166.438 163.768 164.927Z" fill="#2A2439"/>
</svg>
