<svg width="186" height="73" viewBox="0 0 186 73" fill="none" xmlns="http://www.w3.org/2000/svg">
<path d="M9.11893 39.6721C8.75693 39.873 8.2998 39.7425 8.09863 39.3807C7.49038 38.285 6.5337 36.4703 5.63409 34.5772C4.74082 32.6973 3.87954 30.6891 3.48693 29.2239C3.48556 29.2188 3.48475 29.2135 3.48349 29.2084C3.47994 29.1938 3.47657 29.1793 3.47387 29.1645C3.47219 29.1553 3.47072 29.1462 3.46939 29.1371C3.46771 29.1254 3.46608 29.1137 3.46495 29.1018C3.46364 29.0884 3.46267 29.0751 3.4621 29.0618C3.46182 29.0553 3.46121 29.0486 3.46109 29.0421C3.46051 29.0059 3.46396 28.9706 3.46835 28.9357C3.46903 28.9304 3.46896 28.925 3.46975 28.9196C3.47398 28.8911 3.48226 28.8638 3.48963 28.8364C3.49557 28.8143 3.50139 28.7924 3.5093 28.7711C3.51868 28.7457 3.53059 28.7218 3.54257 28.6978C3.55233 28.6782 3.56132 28.6584 3.57275 28.6397C3.58513 28.6195 3.59964 28.6011 3.61382 28.5822C3.6287 28.5624 3.64377 28.543 3.66059 28.5246C3.67579 28.5081 3.69227 28.4932 3.70889 28.4781C3.72832 28.4604 3.74746 28.4427 3.76883 28.427C3.7866 28.414 3.80544 28.4029 3.82435 28.3914C3.84946 28.3762 3.87414 28.3602 3.90134 28.3479C3.90638 28.3456 3.91189 28.3445 3.91699 28.3423C3.94919 28.3286 3.98242 28.3147 4.01721 28.3054C4.02257 28.304 4.02821 28.3038 4.03357 28.3025C4.04986 28.2985 4.06611 28.2943 4.0828 28.2914C4.08807 28.2905 4.0934 28.2901 4.09868 28.2893C4.11541 28.2868 4.13225 28.285 4.14933 28.2836C4.15755 28.2829 4.16573 28.2824 4.17393 28.282C4.18215 28.2816 4.19071 28.2797 4.19901 28.2796C5.4246 28.2589 7.44186 28.1824 9.49557 28.0178C11.5641 27.8519 13.6152 27.6009 14.9373 27.2467C15.3372 27.1398 15.7486 27.3771 15.8558 27.7769C15.9629 28.1769 15.7253 28.588 15.3255 28.6954C13.8604 29.088 11.6904 29.3462 9.61586 29.5126C8.50035 29.602 7.39574 29.666 6.41803 29.7096C14.3823 35.7839 25.4628 38.412 35.6979 37.2493C34.6834 33.8204 34.7505 30.0625 36.1844 26.8695C38.5521 21.5976 43.2886 17.0072 49.6774 17.8974C51.318 18.126 52.8629 18.7081 54.035 19.7287C55.2227 20.7632 55.9849 22.2138 56.0906 24.0707C56.2511 26.895 54.7866 29.4976 52.8426 31.5616C50.8903 33.6343 48.3643 35.2648 46.1759 36.1574C43.5058 37.2464 40.6611 38.02 37.7307 38.4861C38.5118 40.321 39.6481 41.9873 41.0823 43.2865C47.7221 49.3008 57.6843 50.0968 66.4028 48.9574C66.8134 48.904 67.1902 49.1937 67.2438 49.6043C67.2972 50.0147 67.0074 50.3915 66.597 50.4453C57.7429 51.6024 47.2135 50.8634 40.0754 44.3977C38.3857 42.867 37.0684 40.8826 36.2005 38.7009C25.5906 39.9909 14.0701 37.3333 5.71154 31.0563C6.07917 31.965 6.52273 32.9532 6.98875 33.9339C7.87308 35.795 8.81541 37.5801 9.41031 38.6518C9.61109 39.0137 9.48045 39.4709 9.11893 39.6721ZM37.2039 37.0509C40.1235 36.6084 42.9574 35.8504 45.61 34.7685C47.611 33.9523 49.9539 32.4406 51.7506 30.5331C53.5555 28.6168 54.721 26.3988 54.5935 24.1558C54.5105 22.6964 53.9283 21.6244 53.0497 20.8592C52.1549 20.0802 50.9089 19.5839 49.4701 19.3834C44.0416 18.6272 39.795 22.4906 37.5524 27.4845C36.2443 30.3975 36.2159 33.8868 37.2039 37.0509Z" fill="url(#paint0_linear_1_906)"/>
<path d="M82.5 38.6013C82.5 40.9607 81.3828 42.1404 79.1484 42.1404C77.0078 42.1404 75.9375 41.0056 75.9375 38.7361V33.5974H77.332V38.449C77.332 40.0974 77.9727 40.9216 79.2539 40.9216C80.4883 40.9216 81.1055 40.1267 81.1055 38.5369V33.5974H82.5V38.6013ZM89.666 41.9998H88.3066V38.6189C88.3066 37.4978 87.9102 36.9373 87.1172 36.9373C86.7031 36.9373 86.3613 37.0935 86.0918 37.406C85.8223 37.7146 85.6875 38.1052 85.6875 38.5779V41.9998H84.3223V35.9998H85.6875V36.9958H85.7109C86.1602 36.238 86.8086 35.8591 87.6562 35.8591C88.3086 35.8591 88.8066 36.072 89.1504 36.4978C89.4941 36.9197 89.666 37.531 89.666 38.3318V41.9998ZM92.6953 41.9998H91.3301V33.1169H92.6953V41.9998ZM95.1562 34.74C94.9336 34.74 94.7422 34.6677 94.582 34.5232C94.4258 34.3787 94.3477 34.1951 94.3477 33.9724C94.3477 33.7498 94.4258 33.5642 94.582 33.4158C94.7422 33.2673 94.9336 33.1931 95.1562 33.1931C95.3867 33.1931 95.582 33.2673 95.7422 33.4158C95.9023 33.5642 95.9824 33.7498 95.9824 33.9724C95.9824 34.1833 95.9023 34.365 95.7422 34.5173C95.582 34.6658 95.3867 34.74 95.1562 34.74ZM95.8301 41.9998H94.4707V35.9998H95.8301V41.9998ZM106.582 41.9998H105.223V38.7302C105.223 38.1013 105.133 37.6462 104.953 37.365C104.777 37.0837 104.479 36.9431 104.057 36.9431C103.701 36.9431 103.398 37.1208 103.148 37.4763C102.902 37.8318 102.779 38.2576 102.779 38.7537V41.9998H101.414V38.6189C101.414 37.5017 101.02 36.9431 100.23 36.9431C99.8633 36.9431 99.5605 37.1111 99.3223 37.447C99.0879 37.783 98.9707 38.2185 98.9707 38.7537V41.9998H97.6113V35.9998H98.9707V36.949H98.9941C99.4277 36.2224 100.059 35.8591 100.887 35.8591C101.301 35.8591 101.662 35.9744 101.971 36.2048C102.283 36.4314 102.496 36.7302 102.609 37.1013C103.055 36.2732 103.719 35.8591 104.602 35.8591C105.922 35.8591 106.582 36.6736 106.582 38.3025V41.9998ZM108.926 34.74C108.703 34.74 108.512 34.6677 108.352 34.5232C108.195 34.3787 108.117 34.1951 108.117 33.9724C108.117 33.7498 108.195 33.5642 108.352 33.4158C108.512 33.2673 108.703 33.1931 108.926 33.1931C109.156 33.1931 109.352 33.2673 109.512 33.4158C109.672 33.5642 109.752 33.7498 109.752 33.9724C109.752 34.1833 109.672 34.365 109.512 34.5173C109.352 34.6658 109.156 34.74 108.926 34.74ZM109.6 41.9998H108.24V35.9998H109.6V41.9998ZM114.545 41.9353C114.279 42.0681 113.93 42.1345 113.496 42.1345C112.332 42.1345 111.75 41.5759 111.75 40.4587V37.0662H110.748V35.9998H111.75V34.6111L113.109 34.2244V35.9998H114.545V37.0662H113.109V40.0662C113.109 40.4216 113.174 40.6755 113.303 40.8279C113.432 40.9802 113.646 41.0564 113.947 41.0564C114.178 41.0564 114.377 40.99 114.545 40.8572V41.9353ZM120.727 39.3689H116.637C116.652 39.9236 116.822 40.3513 117.146 40.6521C117.475 40.9529 117.924 41.1033 118.494 41.1033C119.135 41.1033 119.723 40.9119 120.258 40.5291V41.6248C119.711 41.9685 118.988 42.1404 118.09 42.1404C117.207 42.1404 116.514 41.8689 116.01 41.3259C115.51 40.7791 115.26 40.0115 115.26 39.0232C115.26 38.0896 115.535 37.3298 116.086 36.7439C116.641 36.1541 117.328 35.8591 118.148 35.8591C118.969 35.8591 119.604 36.1228 120.053 36.6501C120.502 37.1775 120.727 37.9099 120.727 38.8474V39.3689ZM119.414 38.408C119.41 37.9197 119.295 37.5408 119.068 37.2712C118.842 36.9978 118.529 36.8611 118.131 36.8611C117.74 36.8611 117.408 37.0037 117.135 37.2888C116.865 37.574 116.699 37.947 116.637 38.408H119.414ZM127.477 41.9998H126.117V40.9802H126.094C125.656 41.7537 124.982 42.1404 124.072 42.1404C123.334 42.1404 122.742 41.8728 122.297 41.3376C121.855 40.7986 121.635 40.0662 121.635 39.1404C121.635 38.1482 121.879 37.3533 122.367 36.7556C122.859 36.158 123.514 35.8591 124.33 35.8591C125.139 35.8591 125.727 36.1833 126.094 36.8318H126.117V33.1169H127.477V41.9998ZM126.135 39.2576V38.4724C126.135 38.0466 125.996 37.6853 125.719 37.3884C125.441 37.0916 125.088 36.9431 124.658 36.9431C124.15 36.9431 123.75 37.1326 123.457 37.5115C123.168 37.8904 123.023 38.4158 123.023 39.0876C123.023 39.697 123.162 40.1794 123.439 40.5349C123.721 40.8865 124.098 41.0623 124.57 41.0623C125.035 41.0623 125.412 40.8923 125.701 40.5525C125.99 40.2087 126.135 39.7771 126.135 39.2576ZM135.721 41.9353C135.455 42.0681 135.105 42.1345 134.672 42.1345C133.508 42.1345 132.926 41.5759 132.926 40.4587V37.0662H131.924V35.9998H132.926V34.6111L134.285 34.2244V35.9998H135.721V37.0662H134.285V40.0662C134.285 40.4216 134.35 40.6755 134.479 40.8279C134.607 40.9802 134.822 41.0564 135.123 41.0564C135.354 41.0564 135.553 40.99 135.721 40.8572V41.9353ZM137.578 34.74C137.355 34.74 137.164 34.6677 137.004 34.5232C136.848 34.3787 136.77 34.1951 136.77 33.9724C136.77 33.7498 136.848 33.5642 137.004 33.4158C137.164 33.2673 137.355 33.1931 137.578 33.1931C137.809 33.1931 138.004 33.2673 138.164 33.4158C138.324 33.5642 138.404 33.7498 138.404 33.9724C138.404 34.1833 138.324 34.365 138.164 34.5173C138.004 34.6658 137.809 34.74 137.578 34.74ZM138.252 41.9998H136.893V35.9998H138.252V41.9998ZM149.004 41.9998H147.645V38.7302C147.645 38.1013 147.555 37.6462 147.375 37.365C147.199 37.0837 146.9 36.9431 146.479 36.9431C146.123 36.9431 145.82 37.1208 145.57 37.4763C145.324 37.8318 145.201 38.2576 145.201 38.7537V41.9998H143.836V38.6189C143.836 37.5017 143.441 36.9431 142.652 36.9431C142.285 36.9431 141.982 37.1111 141.744 37.447C141.51 37.783 141.393 38.2185 141.393 38.7537V41.9998H140.033V35.9998H141.393V36.949H141.416C141.85 36.2224 142.48 35.8591 143.309 35.8591C143.723 35.8591 144.084 35.9744 144.393 36.2048C144.705 36.4314 144.918 36.7302 145.031 37.1013C145.477 36.2732 146.141 35.8591 147.023 35.8591C148.344 35.8591 149.004 36.6736 149.004 38.3025V41.9998ZM155.742 39.3689H151.652C151.668 39.9236 151.838 40.3513 152.162 40.6521C152.49 40.9529 152.939 41.1033 153.51 41.1033C154.15 41.1033 154.738 40.9119 155.273 40.5291V41.6248C154.727 41.9685 154.004 42.1404 153.105 42.1404C152.223 42.1404 151.529 41.8689 151.025 41.3259C150.525 40.7791 150.275 40.0115 150.275 39.0232C150.275 38.0896 150.551 37.3298 151.102 36.7439C151.656 36.1541 152.344 35.8591 153.164 35.8591C153.984 35.8591 154.619 36.1228 155.068 36.6501C155.518 37.1775 155.742 37.9099 155.742 38.8474V39.3689ZM154.43 38.408C154.426 37.9197 154.311 37.5408 154.084 37.2712C153.857 36.9978 153.545 36.8611 153.146 36.8611C152.756 36.8611 152.424 37.0037 152.15 37.2888C151.881 37.574 151.715 37.947 151.652 38.408H154.43ZM163.506 41.9353C163.24 42.0681 162.891 42.1345 162.457 42.1345C161.293 42.1345 160.711 41.5759 160.711 40.4587V37.0662H159.709V35.9998H160.711V34.6111L162.07 34.2244V35.9998H163.506V37.0662H162.07V40.0662C162.07 40.4216 162.135 40.6755 162.264 40.8279C162.393 40.9802 162.607 41.0564 162.908 41.0564C163.139 41.0564 163.338 40.99 163.506 40.8572V41.9353ZM167.268 42.1404C166.342 42.1404 165.602 41.8611 165.047 41.3025C164.496 40.74 164.221 39.9958 164.221 39.0701C164.221 38.0623 164.508 37.2751 165.082 36.7087C165.66 36.1423 166.438 35.8591 167.414 35.8591C168.352 35.8591 169.082 36.1345 169.605 36.6853C170.129 37.2361 170.391 37.9998 170.391 38.9763C170.391 39.9333 170.107 40.7009 169.541 41.2791C168.979 41.8533 168.221 42.1404 167.268 42.1404ZM167.332 36.9431C166.801 36.9431 166.381 37.1287 166.072 37.4998C165.764 37.8708 165.609 38.3826 165.609 39.0349C165.609 39.6638 165.766 40.1599 166.078 40.5232C166.391 40.8826 166.809 41.0623 167.332 41.0623C167.867 41.0623 168.277 40.8845 168.562 40.5291C168.852 40.1736 168.996 39.6677 168.996 39.0115C168.996 38.3513 168.852 37.8416 168.562 37.4822C168.277 37.1228 167.867 36.9431 167.332 36.9431ZM80.9648 53.3689H76.875C76.8906 53.9236 77.0605 54.3513 77.3848 54.6521C77.7129 54.9529 78.1621 55.1033 78.7324 55.1033C79.373 55.1033 79.9609 54.9119 80.4961 54.5291V55.6248C79.9492 55.9685 79.2266 56.1404 78.3281 56.1404C77.4453 56.1404 76.752 55.8689 76.248 55.3259C75.748 54.7791 75.498 54.0115 75.498 53.0232C75.498 52.0896 75.7734 51.3298 76.3242 50.7439C76.8789 50.1541 77.5664 49.8591 78.3867 49.8591C79.207 49.8591 79.8418 50.1228 80.291 50.6501C80.7402 51.1775 80.9648 51.9099 80.9648 52.8474V53.3689ZM79.6523 52.408C79.6484 51.9197 79.5332 51.5408 79.3066 51.2712C79.0801 50.9978 78.7676 50.8611 78.3691 50.8611C77.9785 50.8611 77.6465 51.0037 77.373 51.2888C77.1035 51.574 76.9375 51.947 76.875 52.408H79.6523ZM87.2754 49.9998L85.2773 53.0349L87.252 55.9998H85.6758L84.6211 54.1423C84.5547 54.0291 84.4766 53.8845 84.3867 53.7087H84.3633C84.3477 53.7439 84.2656 53.8884 84.1172 54.1423L83.0449 55.9998H81.4746L83.5137 53.0583L81.5801 49.9998H83.1621L84.1992 51.9509C84.2773 52.0955 84.3535 52.2439 84.4277 52.3962H84.4453L85.7871 49.9998H87.2754ZM89.6543 55.115H89.6309V58.7595H88.2715V49.9998H89.6309V51.0544H89.6543C90.1191 50.2576 90.7988 49.8591 91.6934 49.8591C92.4551 49.8591 93.0488 50.1267 93.4746 50.6619C93.9004 51.197 94.1133 51.9158 94.1133 52.8181C94.1133 53.8181 93.873 54.6189 93.3926 55.2205C92.9121 55.822 92.2559 56.1228 91.4238 56.1228C90.6582 56.1228 90.0684 55.7869 89.6543 55.115ZM89.6191 52.7478V53.4919C89.6191 53.9294 89.7578 54.3005 90.0352 54.6052C90.3164 54.9099 90.6719 55.0623 91.1016 55.0623C91.6055 55.0623 92 54.8669 92.2852 54.4763C92.5742 54.0818 92.7188 53.533 92.7188 52.8298C92.7188 52.24 92.584 51.7791 92.3145 51.447C92.0488 51.1111 91.6875 50.9431 91.2305 50.9431C90.7461 50.9431 90.3555 51.115 90.0586 51.4587C89.7656 51.8025 89.6191 52.2322 89.6191 52.7478ZM96.8672 55.9998H95.502V47.1169H96.8672V55.9998ZM101.303 56.1404C100.377 56.1404 99.6367 55.8611 99.082 55.3025C98.5312 54.74 98.2559 53.9958 98.2559 53.0701C98.2559 52.0623 98.543 51.2751 99.1172 50.7087C99.6953 50.1423 100.473 49.8591 101.449 49.8591C102.387 49.8591 103.117 50.1345 103.641 50.6853C104.164 51.2361 104.426 51.9998 104.426 52.9763C104.426 53.9333 104.143 54.7009 103.576 55.2791C103.014 55.8533 102.256 56.1404 101.303 56.1404ZM101.367 50.9431C100.836 50.9431 100.416 51.1287 100.107 51.4998C99.7988 51.8708 99.6445 52.3826 99.6445 53.0349C99.6445 53.6638 99.8008 54.1599 100.113 54.5232C100.426 54.8826 100.844 55.0623 101.367 55.0623C101.902 55.0623 102.312 54.8845 102.598 54.5291C102.887 54.1736 103.031 53.6677 103.031 53.0115C103.031 52.3513 102.887 51.8416 102.598 51.4822C102.312 51.1228 101.902 50.9431 101.367 50.9431ZM109.295 51.2947C109.131 51.1658 108.895 51.1013 108.586 51.1013C108.184 51.1013 107.848 51.283 107.578 51.6462C107.309 52.0095 107.174 52.5037 107.174 53.1287V55.9998H105.814V49.9998H107.174V51.2361H107.197C107.33 50.8142 107.533 50.4861 107.807 50.2517C108.084 50.0134 108.393 49.8943 108.732 49.8943C108.979 49.8943 109.166 49.9314 109.295 50.0056V51.2947ZM115.23 53.3689H111.141C111.156 53.9236 111.326 54.3513 111.65 54.6521C111.979 54.9529 112.428 55.1033 112.998 55.1033C113.639 55.1033 114.227 54.9119 114.762 54.5291V55.6248C114.215 55.9685 113.492 56.1404 112.594 56.1404C111.711 56.1404 111.018 55.8689 110.514 55.3259C110.014 54.7791 109.764 54.0115 109.764 53.0232C109.764 52.0896 110.039 51.3298 110.59 50.7439C111.145 50.1541 111.832 49.8591 112.652 49.8591C113.473 49.8591 114.107 50.1228 114.557 50.6501C115.006 51.1775 115.23 51.9099 115.23 52.8474V53.3689ZM113.918 52.408C113.914 51.9197 113.799 51.5408 113.572 51.2712C113.346 50.9978 113.033 50.8611 112.635 50.8611C112.244 50.8611 111.912 51.0037 111.639 51.2888C111.369 51.574 111.203 51.947 111.141 52.408H113.918ZM125.736 56.0056L124.969 55.1912C124.801 55.3396 124.613 55.4744 124.406 55.5955C124.203 55.7126 123.986 55.8123 123.756 55.8943C123.529 55.9763 123.293 56.0388 123.047 56.0818C122.801 56.1248 122.553 56.1462 122.303 56.1462C121.881 56.1462 121.5 56.0916 121.16 55.9822C120.82 55.8728 120.529 55.7185 120.287 55.5193C120.049 55.3162 119.863 55.074 119.73 54.7927C119.602 54.5115 119.537 54.199 119.537 53.8552C119.537 52.8904 120.178 52.0779 121.459 51.4177C120.869 50.6873 120.574 50.0388 120.574 49.4724C120.574 49.1794 120.631 48.9099 120.744 48.6638C120.861 48.4177 121.023 48.2068 121.23 48.031C121.438 47.8513 121.684 47.7107 121.969 47.6091C122.258 47.5076 122.572 47.4568 122.912 47.4568C123.236 47.4568 123.529 47.5017 123.791 47.5916C124.057 47.6814 124.283 47.8064 124.471 47.9666C124.658 48.1267 124.803 48.3181 124.904 48.5408C125.006 48.7595 125.057 48.9978 125.057 49.2556C125.057 49.5095 125.023 49.74 124.957 49.947C124.895 50.1501 124.791 50.3416 124.646 50.5212C124.506 50.7009 124.318 50.8728 124.084 51.0369C123.854 51.2009 123.57 51.365 123.234 51.5291C123.543 51.8611 123.854 52.1912 124.166 52.5193C124.482 52.8474 124.803 53.1775 125.127 53.5095C125.209 53.3845 125.283 53.2439 125.35 53.0876C125.42 52.9314 125.479 52.7673 125.525 52.5955C125.576 52.4236 125.615 52.2458 125.643 52.0623C125.67 51.8787 125.684 51.699 125.684 51.5232H126.873C126.873 52.5974 126.533 53.5369 125.854 54.3416C126.029 54.5291 126.25 54.7595 126.516 55.033C126.785 55.3064 127.102 55.6306 127.465 56.0056H125.736ZM123.832 49.3611C123.832 49.2322 123.807 49.1111 123.756 48.9978C123.709 48.8845 123.645 48.7869 123.562 48.7048C123.48 48.6189 123.385 48.5525 123.275 48.5056C123.166 48.4548 123.049 48.4294 122.924 48.4294C122.76 48.4294 122.609 48.4548 122.473 48.5056C122.34 48.5525 122.225 48.6228 122.127 48.7166C122.033 48.8064 121.959 48.9138 121.904 49.0388C121.854 49.1638 121.828 49.3025 121.828 49.4548C121.828 49.8142 122.084 50.2791 122.596 50.8494C123.42 50.4275 123.832 49.9314 123.832 49.3611ZM124.26 54.4294C123.803 53.9568 123.088 53.1951 122.115 52.1443C121.686 52.3669 121.375 52.6052 121.184 52.8591C120.996 53.113 120.902 53.4099 120.902 53.7498C120.902 53.9568 120.939 54.1443 121.014 54.3123C121.092 54.4763 121.197 54.6169 121.33 54.7341C121.463 54.8513 121.619 54.9412 121.799 55.0037C121.982 55.0662 122.18 55.0974 122.391 55.0974C123.125 55.0974 123.748 54.8748 124.26 54.4294ZM139.002 55.9998H137.479L133.465 49.824C133.363 49.6677 133.279 49.5056 133.213 49.3376H133.178C133.209 49.5173 133.225 49.9021 133.225 50.4919V55.9998H131.877V47.5974H133.5L137.379 53.6267C137.543 53.8767 137.648 54.0486 137.695 54.1423H137.719C137.68 53.9197 137.66 53.5427 137.66 53.0115V47.5974H139.002V55.9998ZM143.596 56.1404C142.67 56.1404 141.93 55.8611 141.375 55.3025C140.824 54.74 140.549 53.9958 140.549 53.0701C140.549 52.0623 140.836 51.2751 141.41 50.7087C141.988 50.1423 142.766 49.8591 143.742 49.8591C144.68 49.8591 145.41 50.1345 145.934 50.6853C146.457 51.2361 146.719 51.9998 146.719 52.9763C146.719 53.9333 146.436 54.7009 145.869 55.2791C145.307 55.8533 144.549 56.1404 143.596 56.1404ZM143.66 50.9431C143.129 50.9431 142.709 51.1287 142.4 51.4998C142.092 51.8708 141.938 52.3826 141.938 53.0349C141.938 53.6638 142.094 54.1599 142.406 54.5232C142.719 54.8826 143.137 55.0623 143.66 55.0623C144.195 55.0623 144.605 54.8845 144.891 54.5291C145.18 54.1736 145.324 53.6677 145.324 53.0115C145.324 52.3513 145.18 51.8416 144.891 51.4822C144.605 51.1228 144.195 50.9431 143.66 50.9431ZM155.707 55.7244C155.227 56.0017 154.658 56.1404 154.002 56.1404C153.111 56.1404 152.393 55.863 151.846 55.3083C151.299 54.7498 151.025 54.0271 151.025 53.1404C151.025 52.1521 151.318 51.3591 151.904 50.7615C152.494 50.1599 153.281 49.8591 154.266 49.8591C154.812 49.8591 155.295 49.9548 155.713 50.1462V51.4119C155.295 51.0994 154.85 50.9431 154.377 50.9431C153.803 50.9431 153.332 51.1384 152.965 51.5291C152.598 51.9158 152.414 52.4236 152.414 53.0525C152.414 53.6736 152.586 54.1638 152.93 54.5232C153.277 54.8826 153.742 55.0623 154.324 55.0623C154.812 55.0623 155.273 54.8884 155.707 54.5408V55.7244ZM160.541 51.2947C160.377 51.1658 160.141 51.1013 159.832 51.1013C159.43 51.1013 159.094 51.283 158.824 51.6462C158.555 52.0095 158.42 52.5037 158.42 53.1287V55.9998H157.061V49.9998H158.42V51.2361H158.443C158.576 50.8142 158.779 50.4861 159.053 50.2517C159.33 50.0134 159.639 49.8943 159.979 49.8943C160.225 49.8943 160.412 49.9314 160.541 50.0056V51.2947ZM166.477 53.3689H162.387C162.402 53.9236 162.572 54.3513 162.896 54.6521C163.225 54.9529 163.674 55.1033 164.244 55.1033C164.885 55.1033 165.473 54.9119 166.008 54.5291V55.6248C165.461 55.9685 164.738 56.1404 163.84 56.1404C162.957 56.1404 162.264 55.8689 161.76 55.3259C161.26 54.7791 161.01 54.0115 161.01 53.0232C161.01 52.0896 161.285 51.3298 161.836 50.7439C162.391 50.1541 163.078 49.8591 163.898 49.8591C164.719 49.8591 165.354 50.1228 165.803 50.6501C166.252 51.1775 166.477 51.9099 166.477 52.8474V53.3689ZM165.164 52.408C165.16 51.9197 165.045 51.5408 164.818 51.2712C164.592 50.9978 164.279 50.8611 163.881 50.8611C163.49 50.8611 163.158 51.0037 162.885 51.2888C162.615 51.574 162.449 51.947 162.387 52.408H165.164ZM173.227 55.9998H171.867V54.9802H171.844C171.406 55.7537 170.732 56.1404 169.822 56.1404C169.084 56.1404 168.492 55.8728 168.047 55.3376C167.605 54.7986 167.385 54.0662 167.385 53.1404C167.385 52.1482 167.629 51.3533 168.117 50.7556C168.609 50.158 169.264 49.8591 170.08 49.8591C170.889 49.8591 171.477 50.1833 171.844 50.8318H171.867V47.1169H173.227V55.9998ZM171.885 53.2576V52.4724C171.885 52.0466 171.746 51.6853 171.469 51.3884C171.191 51.0916 170.838 50.9431 170.408 50.9431C169.9 50.9431 169.5 51.1326 169.207 51.5115C168.918 51.8904 168.773 52.4158 168.773 53.0876C168.773 53.697 168.912 54.1794 169.189 54.5349C169.471 54.8865 169.848 55.0623 170.32 55.0623C170.785 55.0623 171.162 54.8923 171.451 54.5525C171.74 54.2087 171.885 53.7771 171.885 53.2576ZM175.688 48.74C175.465 48.74 175.273 48.6677 175.113 48.5232C174.957 48.3787 174.879 48.1951 174.879 47.9724C174.879 47.7498 174.957 47.5642 175.113 47.4158C175.273 47.2673 175.465 47.1931 175.688 47.1931C175.918 47.1931 176.113 47.2673 176.273 47.4158C176.434 47.5642 176.514 47.7498 176.514 47.9724C176.514 48.1833 176.434 48.365 176.273 48.5173C176.113 48.6658 175.918 48.74 175.688 48.74ZM176.361 55.9998H175.002V49.9998H176.361V55.9998ZM181.307 55.9353C181.041 56.0681 180.691 56.1345 180.258 56.1345C179.094 56.1345 178.512 55.5759 178.512 54.4587V51.0662H177.51V49.9998H178.512V48.6111L179.871 48.2244V49.9998H181.307V51.0662H179.871V54.0662C179.871 54.4216 179.936 54.6755 180.064 54.8279C180.193 54.9802 180.408 55.0564 180.709 55.0564C180.939 55.0564 181.139 54.99 181.307 54.8572V55.9353ZM80.1797 69.7244C79.6992 70.0017 79.1309 70.1404 78.4746 70.1404C77.584 70.1404 76.8652 69.863 76.3184 69.3083C75.7715 68.7498 75.498 68.0271 75.498 67.1404C75.498 66.1521 75.791 65.3591 76.377 64.7615C76.9668 64.1599 77.7539 63.8591 78.7383 63.8591C79.2852 63.8591 79.7676 63.9548 80.1855 64.1462V65.4119C79.7676 65.0994 79.3223 64.9431 78.8496 64.9431C78.2754 64.9431 77.8047 65.1384 77.4375 65.5291C77.0703 65.9158 76.8867 66.4236 76.8867 67.0525C76.8867 67.6736 77.0586 68.1638 77.4023 68.5232C77.75 68.8826 78.2148 69.0623 78.7969 69.0623C79.2852 69.0623 79.7461 68.8884 80.1797 68.5408V69.7244ZM86.1387 69.9998H84.8203V69.0623H84.7969C84.3828 69.781 83.7754 70.1404 82.9746 70.1404C82.3848 70.1404 81.9219 69.9802 81.5859 69.6599C81.2539 69.3396 81.0879 68.9158 81.0879 68.3884C81.0879 67.2556 81.7402 66.5955 83.0449 66.408L84.8262 66.156C84.8262 65.3005 84.4199 64.8728 83.6074 64.8728C82.8926 64.8728 82.248 65.1189 81.6738 65.6111V64.4216C82.3066 64.0466 83.0371 63.8591 83.8652 63.8591C85.3809 63.8591 86.1387 64.6052 86.1387 66.0974V69.9998ZM84.8262 67.0525L83.5664 67.2283C83.1758 67.2791 82.8809 67.3748 82.6816 67.5154C82.4863 67.6521 82.3887 67.8943 82.3887 68.2419C82.3887 68.4958 82.4785 68.7048 82.6582 68.8689C82.8418 69.0291 83.0859 69.1091 83.3906 69.1091C83.8047 69.1091 84.1465 68.9646 84.416 68.6755C84.6895 68.3826 84.8262 68.0154 84.8262 67.574V67.0525ZM91.2832 65.2947C91.1191 65.1658 90.8828 65.1013 90.5742 65.1013C90.1719 65.1013 89.8359 65.283 89.5664 65.6462C89.2969 66.0095 89.1621 66.5037 89.1621 67.1287V69.9998H87.8027V63.9998H89.1621V65.2361H89.1855C89.3184 64.8142 89.5215 64.4861 89.7949 64.2517C90.0723 64.0134 90.3809 63.8943 90.7207 63.8943C90.9668 63.8943 91.1543 63.9314 91.2832 64.0056V65.2947ZM97.5938 69.9998H96.2344V68.9802H96.2109C95.7734 69.7537 95.0996 70.1404 94.1895 70.1404C93.4512 70.1404 92.8594 69.8728 92.4141 69.3376C91.9727 68.7986 91.752 68.0662 91.752 67.1404C91.752 66.1482 91.9961 65.3533 92.4844 64.7556C92.9766 64.158 93.6309 63.8591 94.4473 63.8591C95.2559 63.8591 95.8438 64.1833 96.2109 64.8318H96.2344V61.1169H97.5938V69.9998ZM96.252 67.2576V66.4724C96.252 66.0466 96.1133 65.6853 95.8359 65.3884C95.5586 65.0916 95.2051 64.9431 94.7754 64.9431C94.2676 64.9431 93.8672 65.1326 93.5742 65.5115C93.2852 65.8904 93.1406 66.4158 93.1406 67.0876C93.1406 67.697 93.2793 68.1794 93.5566 68.5349C93.8379 68.8865 94.2148 69.0623 94.6875 69.0623C95.1523 69.0623 95.5293 68.8923 95.8184 68.5525C96.1074 68.2087 96.252 67.7771 96.252 67.2576ZM106.154 65.2947C105.99 65.1658 105.754 65.1013 105.445 65.1013C105.043 65.1013 104.707 65.283 104.438 65.6462C104.168 66.0095 104.033 66.5037 104.033 67.1287V69.9998H102.674V63.9998H104.033V65.2361H104.057C104.189 64.8142 104.393 64.4861 104.666 64.2517C104.943 64.0134 105.252 63.8943 105.592 63.8943C105.838 63.8943 106.025 63.9314 106.154 64.0056V65.2947ZM112.09 67.3689H108C108.016 67.9236 108.186 68.3513 108.51 68.6521C108.838 68.9529 109.287 69.1033 109.857 69.1033C110.498 69.1033 111.086 68.9119 111.621 68.5291V69.6248C111.074 69.9685 110.352 70.1404 109.453 70.1404C108.57 70.1404 107.877 69.8689 107.373 69.3259C106.873 68.7791 106.623 68.0115 106.623 67.0232C106.623 66.0896 106.898 65.3298 107.449 64.7439C108.004 64.1541 108.691 63.8591 109.512 63.8591C110.332 63.8591 110.967 64.1228 111.416 64.6501C111.865 65.1775 112.09 65.9099 112.09 66.8474V67.3689ZM110.777 66.408C110.773 65.9197 110.658 65.5408 110.432 65.2712C110.205 64.9978 109.893 64.8611 109.494 64.8611C109.104 64.8611 108.771 65.0037 108.498 65.2888C108.229 65.574 108.062 65.947 108 66.408H110.777ZM118.84 72.7595H117.48V68.9685H117.457C117.047 69.7498 116.377 70.1404 115.447 70.1404C114.709 70.1404 114.115 69.8728 113.666 69.3376C113.221 68.7986 112.998 68.0662 112.998 67.1404C112.998 66.1443 113.242 65.3494 113.73 64.7556C114.223 64.158 114.883 63.8591 115.711 63.8591C116.516 63.8591 117.098 64.1833 117.457 64.8318H117.48V63.9998H118.84V72.7595ZM117.498 67.2693V66.4958C117.498 66.0623 117.357 65.6951 117.076 65.3943C116.799 65.0935 116.445 64.9431 116.016 64.9431C115.512 64.9431 115.113 65.1326 114.82 65.5115C114.531 65.8865 114.387 66.4177 114.387 67.1052C114.387 67.7146 114.527 68.1931 114.809 68.5408C115.09 68.8884 115.453 69.0623 115.898 69.0623C116.387 69.0623 116.775 68.8923 117.064 68.5525C117.354 68.2126 117.498 67.7849 117.498 67.2693ZM125.848 69.9998H124.488V69.0505H124.465C124.07 69.7771 123.457 70.1404 122.625 70.1404C121.207 70.1404 120.498 69.2888 120.498 67.5857V63.9998H121.857V67.4451C121.857 68.5232 122.273 69.0623 123.105 69.0623C123.508 69.0623 123.838 68.9138 124.096 68.6169C124.357 68.3201 124.488 67.9314 124.488 67.4509V63.9998H125.848V69.9998ZM128.309 62.74C128.086 62.74 127.895 62.6677 127.734 62.5232C127.578 62.3787 127.5 62.1951 127.5 61.9724C127.5 61.7498 127.578 61.5642 127.734 61.4158C127.895 61.2673 128.086 61.1931 128.309 61.1931C128.539 61.1931 128.734 61.2673 128.895 61.4158C129.055 61.5642 129.135 61.7498 129.135 61.9724C129.135 62.1833 129.055 62.365 128.895 62.5173C128.734 62.6658 128.539 62.74 128.309 62.74ZM128.982 69.9998H127.623V63.9998H128.982V69.9998ZM134.244 65.2947C134.08 65.1658 133.844 65.1013 133.535 65.1013C133.133 65.1013 132.797 65.283 132.527 65.6462C132.258 66.0095 132.123 66.5037 132.123 67.1287V69.9998H130.764V63.9998H132.123V65.2361H132.146C132.279 64.8142 132.482 64.4861 132.756 64.2517C133.033 64.0134 133.342 63.8943 133.682 63.8943C133.928 63.8943 134.115 63.9314 134.244 64.0056V65.2947ZM140.18 67.3689H136.09C136.105 67.9236 136.275 68.3513 136.6 68.6521C136.928 68.9529 137.377 69.1033 137.947 69.1033C138.588 69.1033 139.176 68.9119 139.711 68.5291V69.6248C139.164 69.9685 138.441 70.1404 137.543 70.1404C136.66 70.1404 135.967 69.8689 135.463 69.3259C134.963 68.7791 134.713 68.0115 134.713 67.0232C134.713 66.0896 134.988 65.3298 135.539 64.7439C136.094 64.1541 136.781 63.8591 137.602 63.8591C138.422 63.8591 139.057 64.1228 139.506 64.6501C139.955 65.1775 140.18 65.9099 140.18 66.8474V67.3689ZM138.867 66.408C138.863 65.9197 138.748 65.5408 138.521 65.2712C138.295 64.9978 137.982 64.8611 137.584 64.8611C137.193 64.8611 136.861 65.0037 136.588 65.2888C136.318 65.574 136.152 65.947 136.09 66.408H138.867ZM146.93 69.9998H145.57V68.9802H145.547C145.109 69.7537 144.436 70.1404 143.525 70.1404C142.787 70.1404 142.195 69.8728 141.75 69.3376C141.309 68.7986 141.088 68.0662 141.088 67.1404C141.088 66.1482 141.332 65.3533 141.82 64.7556C142.312 64.158 142.967 63.8591 143.783 63.8591C144.592 63.8591 145.18 64.1833 145.547 64.8318H145.57V61.1169H146.93V69.9998ZM145.588 67.2576V66.4724C145.588 66.0466 145.449 65.6853 145.172 65.3884C144.895 65.0916 144.541 64.9431 144.111 64.9431C143.604 64.9431 143.203 65.1326 142.91 65.5115C142.621 65.8904 142.477 66.4158 142.477 67.0876C142.477 67.697 142.615 68.1794 142.893 68.5349C143.174 68.8865 143.551 69.0623 144.023 69.0623C144.488 69.0623 144.865 68.8923 145.154 68.5525C145.443 68.2087 145.588 67.7771 145.588 67.2576Z" fill="url(#paint1_linear_1_906)"/>
<defs>
<linearGradient id="paint0_linear_1_906" x1="107.482" y1="101.808" x2="56.7708" y2="-29.5437" gradientUnits="userSpaceOnUse">
<stop stop-color="#FFC51B"/>
<stop offset="1" stop-color="#B054B6"/>
</linearGradient>
<linearGradient id="paint1_linear_1_906" x1="-27.5909" y1="30.1816" x2="64.5756" y2="170.325" gradientUnits="userSpaceOnUse">
<stop stop-color="#FFC51B"/>
<stop offset="1" stop-color="#B054B6"/>
</linearGradient>
</defs>
</svg>
