<svg width="13" height="13" viewBox="0 0 13 13" fill="none" xmlns="http://www.w3.org/2000/svg">
<g clip-path="url(#clip0_1_678)">
<path d="M6.5 1.17051C8.23675 1.17051 8.44236 1.17813 9.12541 1.20859C9.76018 1.23652 10.103 1.34317 10.3314 1.43203C10.6336 1.54883 10.852 1.69102 11.0779 1.91699C11.3064 2.14551 11.4461 2.36133 11.5629 2.66348C11.6517 2.89199 11.7584 3.2373 11.7863 3.86953C11.8168 4.55508 11.8244 4.76074 11.8244 6.49491C11.8244 8.23165 11.8168 8.43733 11.7863 9.12031C11.7584 9.75509 11.6517 10.0979 11.5629 10.3264C11.4461 10.6285 11.3039 10.8469 11.0779 11.0729C10.8494 11.3014 10.6336 11.441 10.3314 11.5578C10.103 11.6467 9.75764 11.7533 9.12541 11.7812C8.43987 11.8117 8.2342 11.8193 6.5 11.8193C4.76328 11.8193 4.55762 11.8117 3.87461 11.7812C3.23984 11.7533 2.89707 11.6467 2.66855 11.5578C2.36641 11.441 2.14805 11.2988 1.92207 11.0729C1.69355 10.8443 1.55391 10.6285 1.43711 10.3264C1.34824 10.0979 1.2416 9.75255 1.21367 9.12031C1.18321 8.43478 1.17558 8.22911 1.17558 6.49491C1.17558 4.75821 1.18321 4.55254 1.21367 3.86953C1.2416 3.23476 1.34824 2.89199 1.43711 2.66348C1.55391 2.36133 1.69609 2.14297 1.92207 1.91699C2.15058 1.68848 2.36641 1.54883 2.66855 1.43203C2.89707 1.34317 3.24238 1.23652 3.87461 1.20859C4.55762 1.17813 4.76328 1.17051 6.5 1.17051ZM6.5 0C4.73535 0 4.51446 0.00761719 3.82129 0.0380859C3.13067 0.068555 2.65586 0.180273 2.24453 0.340234C1.81543 0.507812 1.45234 0.72871 1.0918 1.09179C0.72871 1.45234 0.507812 1.81543 0.340234 2.24199C0.180273 2.65586 0.068555 3.12813 0.0380859 3.81875C0.00761719 4.51445 0 4.73535 0 6.5C0 8.26464 0.00761719 8.48553 0.0380859 9.1787C0.068555 9.86933 0.180273 10.3442 0.340234 10.7555C0.507812 11.1846 0.72871 11.5477 1.0918 11.9082C1.45234 12.2688 1.81543 12.4922 2.24199 12.6572C2.65586 12.8172 3.12813 12.9289 3.81875 12.9594C4.51192 12.9898 4.73281 12.9975 6.49745 12.9975C8.2621 12.9975 8.48299 12.9898 9.17616 12.9594C9.86678 12.9289 10.3416 12.8172 10.753 12.6572C11.1795 12.4922 11.5426 12.2688 11.9031 11.9082C12.2637 11.5477 12.4871 11.1846 12.6521 10.758C12.8121 10.3442 12.9238 9.87188 12.9543 9.18125C12.9848 8.48808 12.9924 8.26719 12.9924 6.50255C12.9924 4.73789 12.9848 4.51699 12.9543 3.82383C12.9238 3.13321 12.8121 2.6584 12.6521 2.24707C12.4922 1.81543 12.2713 1.45234 11.9082 1.09179C11.5477 0.73125 11.1846 0.507813 10.758 0.342773C10.3442 0.182813 9.87188 0.0710938 9.18125 0.040625C8.48553 0.00761719 8.26464 0 6.5 0Z" fill="white" fill-opacity="0.5"/>
<path d="M6.49902 3.16113C4.65567 3.16113 3.16016 4.65664 3.16016 6.5C3.16016 8.34334 4.65567 9.83889 6.49902 9.83889C8.34237 9.83889 9.83791 8.34334 9.83791 6.5C9.83791 4.65664 8.34237 3.16113 6.49902 3.16113ZM6.49902 8.6658C5.30313 8.6658 4.3332 7.69589 4.3332 6.5C4.3332 5.3041 5.30313 4.33418 6.49902 4.33418C7.69491 4.33418 8.66482 5.3041 8.66482 6.5C8.66482 7.69589 7.69491 8.6658 6.49902 8.6658Z" fill="white" fill-opacity="0.5"/>
<path d="M10.7504 3.029C10.7504 3.46065 10.4 3.80849 9.97087 3.80849C9.53921 3.80849 9.19141 3.45811 9.19141 3.029C9.19141 2.59736 9.54176 2.24951 9.97087 2.24951C10.4 2.24951 10.7504 2.5999 10.7504 3.029Z" fill="white" fill-opacity="0.5"/>
</g>
<defs>
<clipPath id="clip0_1_678">
<rect width="13" height="13" fill="white"/>
</clipPath>
</defs>
</svg>
