<svg width="85" height="24" viewBox="0 0 85 24" fill="none" xmlns="http://www.w3.org/2000/svg">
<path d="M4.35421 0.0841502C2.62262 0.80898 0.719023 2.85671 0.117805 5.42706C-0.64359 8.68379 2.52493 10.061 2.78482 9.60941C3.0907 9.07882 2.21705 8.89939 2.03722 7.20965C1.8048 5.02721 2.8194 2.58857 4.09632 1.51857C4.33367 1.31977 4.32238 1.59646 4.32238 2.10825C4.32238 3.02346 4.27181 11.2393 4.27181 12.954C4.27181 15.2742 4.17598 16.0068 4.00387 16.7308C3.82949 17.4644 3.54914 17.9602 3.76157 18.1511C3.99892 18.3647 5.01229 17.8566 5.59895 17.0378C6.30244 16.0558 6.54869 14.8765 6.5929 13.5957C6.6463 12.0518 6.64403 9.60191 6.6463 8.20452C6.64844 6.9229 6.66789 3.17004 6.62384 0.913964C6.61304 0.360595 5.07837 -0.219972 4.35413 0.0834772M65.843 10.9423C65.7871 12.1485 65.5201 13.0913 65.1888 13.7563C64.5473 15.0437 63.2161 15.4435 62.6509 13.5928C62.3429 12.5839 62.3285 10.8991 62.55 9.4913C62.7754 8.05717 63.4048 6.97407 64.447 7.07174C65.475 7.1683 65.9562 8.49298 65.843 10.9423ZM48.5129 18.4258C48.4989 20.43 48.1835 22.1872 47.5071 22.6976C46.5478 23.4212 45.2583 22.8784 45.5253 21.4159C45.7616 20.1218 46.8788 18.8002 48.5156 17.1853C48.5156 17.1853 48.519 17.5536 48.5129 18.4258ZM48.2509 10.9306C48.1922 12.0292 47.9074 13.1329 47.5967 13.7564C46.9553 15.0438 45.6145 15.4463 45.0588 13.5929C44.6789 12.3266 44.7699 10.6876 44.9579 9.65492C45.2018 8.31505 45.793 7.07203 46.8549 7.07203C47.8873 7.07203 48.3964 8.20461 48.2509 10.9306ZM38.2115 10.9138C38.1486 12.0773 37.9216 13.05 37.5573 13.7564C36.8983 15.035 35.5945 15.4405 35.0195 13.5929C34.605 12.2607 34.7461 10.4441 34.9185 9.46281C35.1744 8.00662 35.8152 6.97421 36.8156 7.07203C37.8431 7.17242 38.3427 8.49298 38.2115 10.9138ZM84.2195 12.2729C83.9683 12.2729 83.8537 12.5318 83.7589 12.9676C83.4299 14.4831 83.0842 14.8253 82.6383 14.8253C82.1402 14.8253 81.6926 14.0749 81.5776 12.5727C81.4872 11.3916 81.5017 9.21705 81.6173 7.05396C81.6409 6.60953 81.5183 6.16979 80.3263 5.73675C79.8134 5.55048 79.0678 5.27622 78.6965 6.17236C77.6476 8.70411 77.2372 10.7141 77.1407 11.5307C77.1357 11.5729 77.0839 11.5815 77.0748 11.4828C77.0132 10.8288 76.8757 9.6404 76.8586 7.14354C76.8553 6.65638 76.7521 6.24171 76.2144 5.90222C75.8655 5.68193 74.806 5.29232 74.4245 5.75583C74.094 6.13491 73.7113 7.15507 73.3135 8.36434C72.9903 9.3472 72.7652 10.0121 72.7652 10.0121C72.7652 10.0121 72.7694 7.36013 72.7733 6.3542C72.775 5.97471 72.5147 5.84825 72.4362 5.82533C72.0829 5.72279 71.3869 5.55149 71.0914 5.55149C70.7268 5.55149 70.6376 5.75526 70.6376 6.05217C70.6376 6.09104 70.58 9.54372 70.58 11.958C70.58 12.0629 70.58 12.1773 70.5811 12.2988C70.3795 13.4084 69.7256 14.9147 69.0144 14.9147C68.3024 14.9147 67.9665 14.285 67.9665 11.4068C67.9665 9.72775 68.0169 8.99766 68.0417 7.78326C68.0561 7.08378 68.0838 6.54664 68.0823 6.42475C68.077 6.05094 67.4306 5.86254 67.1299 5.79292C66.8277 5.7227 66.5651 5.6955 66.3601 5.70718C66.0699 5.72356 65.8645 5.91396 65.8645 6.17583C65.8645 6.31624 65.8661 6.58324 65.8661 6.58324C65.4923 5.99583 64.8911 5.587 64.4911 5.46852C63.4137 5.14855 62.2895 5.43206 61.4415 6.6187C60.7675 7.56154 60.3612 8.62941 60.2013 10.1637C60.0844 11.2853 60.1226 12.4227 60.3303 13.3846C60.0793 14.47 59.6132 14.9147 59.1029 14.9147C58.3619 14.9147 57.8248 13.7054 57.8872 11.6139C57.9283 10.2382 58.2036 9.27278 58.5045 7.8761C58.6328 7.28072 58.5286 6.969 58.2671 6.67024C58.0273 6.39627 57.5164 6.25629 56.7819 6.42845C56.2587 6.5512 55.5107 6.6832 54.8263 6.7846C54.8263 6.7846 54.8676 6.61983 54.9015 6.32934C55.0795 4.80592 53.4241 4.92953 52.8959 5.41611C52.5806 5.70661 52.366 6.04923 52.2846 6.66527C52.1554 7.64286 52.9527 8.10395 52.9527 8.10395C52.6911 9.30141 52.0499 10.8657 51.3879 11.9966C51.0333 12.6026 50.7621 13.0516 50.4119 13.5289C50.4106 13.3512 50.4097 13.1734 50.409 12.9965C50.401 10.479 50.4345 8.49765 50.4493 7.7835C50.4637 7.08403 50.4917 6.56113 50.4902 6.43923C50.4862 6.16582 50.3266 6.06258 49.9945 5.93185C49.7009 5.81622 49.3537 5.73619 48.9935 5.70828C48.539 5.67283 48.2652 5.91391 48.2723 6.199C48.2737 6.25283 48.2737 6.58334 48.2737 6.58334C47.8999 5.99593 47.2987 5.5871 46.8987 5.46862C45.8213 5.14878 44.697 5.43231 43.849 6.6188C43.1752 7.56164 42.7339 8.88469 42.6088 10.1521C42.4924 11.3333 42.5139 12.3371 42.6727 13.1827C42.5013 14.0294 42.0088 14.9148 41.4519 14.9148C40.7399 14.9148 40.3347 14.2851 40.3347 11.4069C40.3347 9.72786 40.3851 8.99776 40.4099 7.7835C40.4243 7.08403 40.4521 6.54675 40.4505 6.42499C40.4453 6.05119 39.7989 5.86279 39.4981 5.79301C39.1834 5.72024 38.9117 5.69348 38.7031 5.70885C38.4278 5.72936 38.2343 5.97586 38.2343 6.1597V6.58334C37.8605 5.99593 37.2593 5.5871 36.8593 5.46862C35.7819 5.14878 34.6639 5.43687 33.8097 6.6188C33.2526 7.38948 32.8016 8.24389 32.5695 10.1353C32.5024 10.6818 32.4728 11.1937 32.4767 11.6721C32.2545 13.0306 31.2734 14.5964 30.4708 14.5964C30.0012 14.5964 29.5539 13.6855 29.5539 11.7441C29.5539 9.1581 29.714 5.47617 29.741 5.1213C29.741 5.1213 30.755 5.10407 30.9514 5.10179C31.4572 5.09623 31.9153 5.1082 32.589 5.07374C32.9269 5.05651 33.2525 3.84381 32.9037 3.69373C32.7457 3.6258 31.6285 3.56628 31.1857 3.55688C30.8133 3.54844 29.7766 3.47172 29.7766 3.47172C29.7766 3.47172 29.8696 1.02781 29.8913 0.769648C29.9096 0.554476 29.6312 0.443691 29.4716 0.376468C29.0834 0.212283 28.7361 0.133673 28.3244 0.0488029C27.7557 -0.0685304 27.4977 0.0462394 27.4472 0.526275C27.3713 1.25481 27.332 3.3887 27.332 3.3887C26.9147 3.3887 25.489 3.30711 25.0714 3.30711C24.6836 3.30711 24.2649 4.97534 24.8012 4.99584C25.4182 5.01977 26.4935 5.04042 27.2063 5.06192C27.2063 5.06192 27.1746 8.80452 27.1746 9.95997C27.1746 10.0829 27.1756 10.2013 27.1758 10.3161C26.7835 12.361 25.4017 13.4656 25.4017 13.4656C25.6984 12.1128 25.0922 11.0969 24.0003 10.237C23.598 9.92008 22.8039 9.32014 21.9153 8.66272C21.9153 8.66272 22.4299 8.15549 22.8863 7.13504C23.2097 6.41221 23.2237 5.58499 22.4299 5.40258C21.1184 5.10097 20.037 6.06417 19.7145 7.09246C19.4646 7.88905 19.5979 8.48016 20.0875 9.09419C20.1232 9.13906 20.1619 9.18491 20.2019 9.23104C19.9059 9.80167 19.4992 10.5699 19.1547 11.1657C18.1986 12.8199 17.4764 14.1282 16.9306 14.1282C16.4943 14.1282 16.5001 12.7999 16.5001 11.5562C16.5001 10.484 16.5793 8.87205 16.6425 7.2031C16.6634 6.65115 16.3875 6.33672 15.9248 6.05193C15.6437 5.87891 15.0438 5.53871 14.6963 5.53871C14.1763 5.53871 12.6758 5.60948 11.2581 9.71051C11.0794 10.2274 10.7284 11.1693 10.7284 11.1693L10.7586 6.23762C10.7586 6.12199 10.697 6.0102 10.556 5.93373C10.3171 5.804 9.67905 5.53871 9.11167 5.53871C8.84134 5.53871 8.70643 5.66445 8.70643 5.91508L8.65694 13.6307C8.65694 14.2169 8.67223 14.9008 8.73019 15.2C8.78794 15.4995 8.88149 15.7431 8.99736 15.8881C9.11306 16.0327 9.24689 16.1431 9.46755 16.1887C9.67293 16.2309 10.7975 16.3753 10.856 15.9456C10.926 15.4305 10.9287 14.8735 11.5192 12.7958C12.4385 9.56113 13.6371 7.98289 14.2006 7.4224C14.2991 7.32443 14.4116 7.31859 14.4062 7.47893C14.3821 8.1881 14.2975 9.96015 14.2406 11.4656C14.0879 15.4945 14.8208 16.2412 15.8682 16.2412C16.6695 16.2412 17.799 15.445 19.0098 13.4296C19.7647 12.1737 20.4976 10.9421 21.0242 10.0546C21.3912 10.3943 21.803 10.7599 22.2145 11.1505C23.1709 12.0582 23.4849 12.9207 23.2766 13.7389C23.1172 14.3644 22.5171 15.0091 21.4491 14.3825C21.1379 14.1997 21.005 14.0585 20.692 13.8524C20.5238 13.7417 20.2671 13.7086 20.1131 13.8246C19.7133 14.1261 19.4846 14.5096 19.354 14.9843C19.227 15.4463 19.6896 15.6905 20.1693 15.9041C20.5822 16.088 21.4698 16.2545 22.0358 16.2735C24.2413 16.3473 26.0081 15.2086 27.238 12.2715C27.4581 14.8081 28.3951 16.2435 30.0231 16.2435C31.1114 16.2435 32.2026 14.8366 32.6798 13.4527C32.8168 14.0168 33.0196 14.5074 33.2814 14.9223C34.5359 16.9098 36.9693 16.482 38.1917 14.7943C38.5696 14.2728 38.6271 14.0854 38.6271 14.0854C38.8054 15.679 40.0887 16.2358 40.8235 16.2358C41.6465 16.2358 42.4961 15.8467 43.0917 14.506C43.1614 14.6515 43.2376 14.7905 43.3208 14.9222C44.5752 16.9097 47.0087 16.4819 48.231 14.7942C48.2887 14.7151 48.3387 14.6433 48.3824 14.5788L48.4183 15.6256C48.4183 15.6256 47.7209 16.2653 47.2929 16.6577C45.4089 18.3862 43.9764 19.6975 43.871 21.2247C43.7357 23.1719 45.315 23.8955 46.5097 23.9904C47.7785 24.0911 48.865 23.3902 49.5328 22.4093C50.1202 21.5459 50.5047 19.6877 50.4765 17.8524C50.4653 17.1175 50.4468 16.1831 50.4322 15.1814C51.0944 14.4124 51.8404 13.4405 52.5274 12.3029C53.276 11.0631 54.0783 9.39819 54.4891 8.10247C54.4891 8.10247 55.1861 8.10845 55.93 8.05975C56.168 8.04423 56.2363 8.09278 56.1923 8.26723C56.1392 8.47798 55.2525 11.8982 56.0617 14.1766C56.6157 15.7363 57.8644 16.2382 58.6047 16.2382C59.4714 16.2382 60.3004 15.5837 60.7447 14.6118C60.7982 14.7202 60.8542 14.825 60.9153 14.9218C62.1697 16.9093 64.5946 16.479 65.8255 14.7938C66.1034 14.4136 66.261 14.0849 66.261 14.0849C66.5251 15.7342 67.8077 16.2437 68.5424 16.2437C69.3076 16.2437 70.0339 15.93 70.6231 14.5358C70.6478 15.1496 70.6865 15.6516 70.7477 15.8099C70.785 15.9066 71.0025 16.0281 71.1607 16.0868C71.8607 16.3464 72.5747 16.2237 72.8389 16.1703C73.0219 16.1332 73.1646 15.9864 73.1841 15.6073C73.2353 14.612 73.2039 12.9396 73.5056 11.6967C74.0121 9.61078 74.4846 8.80166 74.7087 8.40109C74.8342 8.17666 74.9757 8.13963 74.9809 8.37716C74.9914 8.85776 75.0153 10.2691 75.2116 12.1653C75.3557 13.5599 75.5482 14.3842 75.6961 14.6451C76.1184 15.3912 76.6398 15.4265 77.0645 15.4265C77.3346 15.4265 77.8995 15.3518 77.8489 14.8771C77.8243 14.6457 77.8675 13.2155 78.3669 11.1605C78.6929 9.81855 79.2366 8.60598 79.4327 8.1627C79.5051 7.99922 79.5387 8.12809 79.5375 8.15319C79.4962 9.07738 79.4035 12.1003 79.78 13.7536C80.2904 15.9933 81.7668 16.2439 82.2813 16.2439C83.3796 16.2439 84.2779 15.4084 84.5805 13.21C84.6534 12.681 84.5454 12.2725 84.222 12.2725" fill="#000008"/>
</svg>
