<svg width="13" height="13" viewBox="0 0 13 13" fill="none" xmlns="http://www.w3.org/2000/svg">
<g clip-path="url(#clip0_1_685)">
<path d="M12.0377 0H0.959763C0.429101 0 0 0.418946 0 0.936915V12.0605C0 12.5785 0.429101 13 0.959763 13H12.0377C12.5683 13 13 12.5785 13 12.0631V0.936915C13 0.418946 12.5683 0 12.0377 0ZM3.85683 11.0779H1.92715V4.87246H3.85683V11.0779ZM2.89199 4.02696C2.27246 4.02696 1.77227 3.52676 1.77227 2.90976C1.77227 2.29277 2.27246 1.79258 2.89199 1.79258C3.50899 1.79258 4.00918 2.29277 4.00918 2.90976C4.00918 3.52422 3.50899 4.02696 2.89199 4.02696ZM11.0779 11.0779H9.15075V8.06152C9.15075 7.343 9.13808 6.4162 8.14786 6.4162C7.14491 6.4162 6.99259 7.20081 6.99259 8.01076V11.0779H5.06797V4.87246H6.91638V5.72049H6.94178C7.19826 5.23301 7.82795 4.71758 8.76487 4.71758C10.7174 4.71758 11.0779 6.00237 11.0779 7.67303V11.0779Z" fill="white" fill-opacity="0.5"/>
</g>
<defs>
<clipPath id="clip0_1_685">
<rect width="13" height="13" fill="white"/>
</clipPath>
</defs>
</svg>
