<svg width="32" height="19" viewBox="0 0 23 19" fill="none" xmlns="http://www.w3.org/2000/svg">
                <path
                  d="M2.17871 2H15.1787C15.7287 2 16.1787 1.55 16.1787 1C16.1787 0.45 15.7287 0 15.1787 0H2.17871C1.62871 0 1.17871 0.45 1.17871 1C1.17871 1.55 1.62871 2 2.17871 2Z"
                  fill="#4C2B5E" />
                <path
                  d="M14.1788 13H16.1788V10H16.3588C16.9888 10 17.4588 9.42 17.3388 8.8L16.3388 3.8C16.2488 3.34 15.8388 3 15.3588 3H1.99878C1.51878 3 1.10878 3.34 1.01878 3.8L0.0187845 8.8C-0.101215 9.42 0.368785 10 0.998785 10H1.17878V15C1.17878 15.55 1.62878 16 2.17878 16H9.17878C9.72878 16 10.1788 15.55 10.1788 15V10H14.1788V13ZM8.17878 14H3.17878V10H8.17878V14Z"
                  fill="#4C2B5E" />
                <path
                  d="M21.1787 14H19.1787V12C19.1787 11.45 18.7287 11 18.1787 11C17.6287 11 17.1787 11.45 17.1787 12V14H15.1787C14.6287 14 14.1787 14.45 14.1787 15C14.1787 15.55 14.6287 16 15.1787 16H17.1787V18C17.1787 18.55 17.6287 19 18.1787 19C18.7287 19 19.1787 18.55 19.1787 18V16H21.1787C21.7287 16 22.1787 15.55 22.1787 15C22.1787 14.45 21.7287 14 21.1787 14Z"
                  fill="#4C2B5E" />
              </svg>
