<svg width="94" height="24" viewBox="0 0 94 24" fill="none" xmlns="http://www.w3.org/2000/svg">
<g clip-path="url(#clip0_1_545)">
<path d="M4.56124 12.3873C4.40488 12.3794 4.24812 12.39 4.09428 12.4189C3.83757 12.4603 3.59168 12.5524 3.37093 12.6898C3.15018 12.8272 2.95898 13.0071 2.80846 13.2191C2.65795 13.4312 2.55114 13.671 2.49425 13.9247C2.43736 14.1785 2.43154 14.4409 2.47711 14.6969C2.58899 15.7527 3.71456 16.6429 4.75652 16.6695C4.86346 16.6722 4.97045 16.6651 5.07609 16.6482C6.20363 16.4657 6.49882 15.3038 6.31299 14.1625C6.10305 12.8739 5.18461 12.4197 4.56124 12.3873ZM5.66603 15.4403C5.61847 15.5116 5.55237 15.5685 5.4749 15.6052C5.39743 15.6418 5.31146 15.6567 5.22617 15.6482C5.07628 15.6364 4.93647 15.5679 4.83514 15.4568C4.73377 15.3458 4.67842 15.2003 4.68027 15.05C4.67767 14.8496 4.7163 14.6508 4.79378 14.466C4.84217 14.3486 4.84679 14.2178 4.80689 14.0972C4.76695 13.9767 4.68513 13.8745 4.57622 13.8092C4.44241 13.7262 4.28189 13.6978 4.12774 13.7298C3.97845 13.7584 3.84652 13.8449 3.76069 13.9704C3.70275 14.0641 3.65752 14.165 3.62619 14.2706C3.62008 14.289 3.61524 14.3035 3.61155 14.313C3.56046 14.4433 3.47894 14.4814 3.42381 14.4743C3.40351 14.4706 3.38471 14.4611 3.36965 14.447C3.35459 14.4329 3.3439 14.4148 3.33887 14.3947C3.31028 14.2208 3.32368 14.0426 3.37795 13.8749C3.43222 13.7072 3.5258 13.5549 3.65088 13.4307C3.75981 13.3219 3.89212 13.2395 4.03775 13.1897C4.18333 13.1399 4.33839 13.1239 4.49112 13.1431C4.65147 13.1623 4.80472 13.2204 4.93766 13.3121C5.07056 13.4038 5.17916 13.5266 5.25402 13.6697C5.32608 13.8419 5.3552 14.0291 5.33896 14.215C5.32268 14.401 5.26149 14.5802 5.16063 14.7374C5.14791 14.7645 5.13622 14.7894 5.12626 14.8116C5.08999 14.8732 5.06996 14.943 5.06807 15.0144C5.06621 15.0858 5.08253 15.1565 5.11547 15.2199C5.14451 15.2585 5.18236 15.2897 5.22593 15.3106C5.26947 15.3316 5.31743 15.3417 5.36571 15.3403C5.41185 15.3397 5.45772 15.3336 5.50236 15.3221C5.56027 15.3093 5.62017 15.2961 5.65663 15.3394C5.66872 15.3531 5.67615 15.3702 5.67785 15.3883C5.67954 15.4065 5.6754 15.4247 5.66603 15.4403V15.4403Z" fill="white"/>
<path d="M18.97 17.6051C19.2053 17.0081 19.3413 16.3767 19.3727 15.7358C19.3727 14.9479 18.9265 14.6213 18.6425 14.6213C18.6338 14.5909 18.5776 14.3854 18.5002 14.1381C18.4559 13.9947 18.4034 13.8539 18.3429 13.7165C18.5754 13.3954 18.6738 12.9963 18.6173 12.6039C18.5708 12.3014 18.4269 12.0222 18.2075 11.8087C17.7909 11.4551 17.294 11.2093 16.7601 11.0929C16.6798 11.0705 16.4147 10.9978 16.3914 10.9907C16.3896 10.9755 16.372 10.1227 16.3561 9.75653C16.3492 9.38939 16.2945 9.02475 16.1933 8.67176C16.0676 8.16518 15.8077 7.70185 15.4409 7.33053C16.3592 6.37997 16.9324 5.3329 16.931 4.43464C16.9284 2.70717 14.8038 2.18441 12.1857 3.26704C12.1828 3.26825 11.6349 3.50023 11.6309 3.50222C11.6285 3.49979 10.6281 2.51968 10.613 2.50649C7.62802 -0.093419 -1.70516 10.2658 1.27884 12.7817L1.93096 13.3333C1.75499 13.8049 1.69286 14.3113 1.74963 14.8114C1.83803 15.5389 2.19766 16.2064 2.7567 16.6803C3.29932 17.1728 4.00036 17.4547 4.73285 17.4748C5.89409 20.147 8.54721 21.7862 11.6581 21.8784C14.9951 21.9774 17.7963 20.4138 18.97 17.6051ZM19.655 14.4428C19.9409 14.8118 20.0879 15.2695 20.0705 15.7358C20.0405 16.4633 19.8884 17.1806 19.6205 17.8576L19.6142 17.8735C19.0086 19.3296 17.9514 20.5527 16.5983 21.3626C15.1899 22.1818 13.5853 22.6026 11.9562 22.5798H11.9558C11.8504 22.5798 11.7433 22.5782 11.6374 22.5751C10.0296 22.5415 8.45998 22.0782 7.09156 21.2332C5.8871 20.4784 4.91236 19.4081 4.27319 18.1384C3.53681 18.0241 2.84934 17.6988 2.2939 17.202C1.6033 16.612 1.16091 15.7831 1.05521 14.8809C1.00811 14.4426 1.03352 13.9995 1.13043 13.5695L0.827683 13.3135C0.58263 13.1018 0.383486 12.8423 0.242507 12.5508C0.101528 12.2593 0.0216971 11.942 0.00792813 11.6185C-0.0169113 10.947 0.099145 10.2777 0.348625 9.65377C0.970091 7.95706 2.39974 5.93671 4.1732 4.24923C4.96463 3.48125 5.84258 2.80777 6.78934 2.24233C7.57903 1.73725 8.48597 1.44514 9.42199 1.39438C10.0257 1.37864 10.6137 1.58782 11.0718 1.9813C11.0979 2.00411 11.4899 2.38742 11.7871 2.67862C11.8617 2.64714 11.9154 2.6245 11.917 2.6239C12.7964 2.24083 13.7415 2.03109 14.7005 2.00619C16.4772 2.00619 17.6267 2.95899 17.629 4.43359C17.6303 5.34345 17.1837 6.36346 16.3601 7.35088C16.5841 7.69734 16.7536 8.07617 16.8627 8.47408C16.9796 8.88146 17.0437 9.3022 17.0533 9.72591C17.0613 9.90819 17.0694 10.2007 17.076 10.4589C17.6836 10.6127 18.2451 10.9109 18.7128 11.3281C19.0299 11.6427 19.2378 12.0506 19.3061 12.492C19.3748 12.9276 19.3075 13.3739 19.1133 13.77C19.1306 13.8196 19.1486 13.8734 19.1665 13.9305C19.182 13.9803 19.1967 14.0282 19.2104 14.0738C19.3815 14.1663 19.5325 14.2918 19.655 14.4428H19.655Z" fill="white"/>
<path d="M17.5396 13.5802C17.6528 13.4739 17.7411 13.3438 17.7981 13.1994C17.8552 13.0549 17.8796 12.8996 17.8696 12.7447C17.847 12.5884 17.7741 12.4438 17.662 12.3327C17.333 12.0597 16.9417 11.8722 16.5227 11.7872C16.3314 11.7329 16.2015 11.6981 16.0617 11.6516C15.8129 11.5688 15.69 11.5021 15.6622 11.0293C15.65 10.8225 15.6143 10.102 15.6015 9.80433C15.5788 9.28269 15.5167 8.56964 15.0791 8.27528C14.9678 8.20145 14.8384 8.15965 14.705 8.15439C14.6303 8.14981 14.5553 8.1572 14.4829 8.17636C14.2608 8.22823 14.0587 8.34375 13.9013 8.50872C13.6975 8.69484 13.4572 8.83655 13.1956 8.92484C12.9341 9.0131 12.6571 9.04601 12.3822 9.02151C12.0759 9.00852 11.7514 8.96032 11.3794 8.938C11.307 8.93373 11.2344 8.92919 11.1619 8.92536C10.6812 8.93958 10.2216 9.12609 9.86692 9.45091C9.51228 9.77573 9.28622 10.2172 9.22993 10.6948C9.01695 12.1763 10.0781 12.9419 10.3844 13.3911C10.4318 13.4485 10.4611 13.5185 10.4687 13.5925C10.4608 13.6746 10.4218 13.7505 10.3597 13.8047L10.3598 13.8052C9.93555 14.2827 9.63771 14.8589 9.49347 15.4812C9.3492 16.1035 9.3631 16.752 9.53393 17.3674C9.57442 17.5153 9.62633 17.6597 9.68919 17.7995C10.4635 19.6289 12.8655 20.4808 15.2122 19.706C15.5195 19.6045 15.8178 19.4771 16.1036 19.3252C16.6182 19.068 17.0809 18.7183 17.4689 18.2937C18.0742 17.6798 18.4717 16.8915 18.6055 16.0399C18.6762 15.5684 18.5727 15.386 18.4318 15.2982C18.3323 15.2422 18.217 15.2209 18.104 15.2377C18.0443 14.8676 17.9394 14.5062 17.7918 14.1616L17.5396 13.5802Z" fill="white"/>
<path d="M13.6938 6.51497C13.7316 6.52366 13.7557 6.45824 13.7218 6.43924C13.1612 6.14875 12.5428 5.98693 11.9118 5.96556C11.9057 5.96548 11.8998 5.9637 11.8947 5.96046C11.8895 5.95722 11.8854 5.95264 11.8827 5.94719C11.88 5.94174 11.8789 5.93565 11.8795 5.92961C11.88 5.92356 11.8822 5.9178 11.8859 5.91294C11.984 5.78474 12.0985 5.66997 12.2265 5.5716C12.2322 5.56714 12.2364 5.56098 12.2384 5.55398C12.2403 5.54703 12.24 5.5396 12.2375 5.53281C12.2349 5.52601 12.2303 5.5202 12.2242 5.51625C12.2181 5.5123 12.2109 5.51037 12.2036 5.5108C11.431 5.58669 10.6881 5.84858 10.0387 6.27406C10.0332 6.27778 10.0266 6.27979 10.0199 6.27975C10.0132 6.27975 10.0067 6.27774 10.0012 6.27394C9.99571 6.27019 9.99144 6.26486 9.98899 6.25865C9.98654 6.25241 9.98599 6.24562 9.98745 6.2391C10.0398 6.04402 10.1168 5.8564 10.2165 5.6808C10.2198 5.67475 10.2211 5.66784 10.2202 5.66104C10.2192 5.65425 10.2161 5.64793 10.2113 5.64303C10.2065 5.63813 10.2003 5.63489 10.1935 5.63379C10.1867 5.63272 10.1797 5.63382 10.1736 5.63699C9.23581 6.15211 8.39997 6.83414 7.70723 7.64963C7.70182 7.65583 7.6989 7.66381 7.69898 7.67203C7.69906 7.68028 7.70218 7.68819 7.70771 7.69427C7.71324 7.70039 7.72086 7.70423 7.72904 7.70509C7.73722 7.70592 7.74544 7.70375 7.75215 7.69897C8.55492 7.13798 9.45929 6.73881 10.4147 6.5237C11.4932 6.27493 12.6139 6.27193 13.6937 6.51497" fill="white"/>
<path d="M10.9317 3.86854C10.9317 3.86854 10.1192 2.92797 9.87397 2.85859C8.36511 2.45144 5.10581 4.69602 3.02473 7.66154C2.18268 8.86142 0.977264 10.9862 1.55366 12.0791C1.75853 12.3245 1.98948 12.5468 2.24243 12.7423C2.62862 12.201 3.20985 11.8307 3.86366 11.7094C4.6842 9.41542 6.12456 7.39377 8.02476 5.86903C8.9366 5.12276 9.90889 4.45362 10.9317 3.86854Z" fill="white"/>
<path d="M5.61133 15.3993C5.62303 15.4135 5.63018 15.4308 5.6318 15.4492C5.63342 15.4675 5.62951 15.4858 5.6205 15.5019C5.57669 15.573 5.51391 15.6304 5.43921 15.6677C5.36454 15.705 5.2809 15.7207 5.19778 15.713C5.0496 15.697 4.91302 15.6255 4.81564 15.5127C4.71826 15.3999 4.66733 15.2543 4.67314 15.1054C4.67061 14.9025 4.70767 14.701 4.78222 14.5122C4.82927 14.394 4.83417 14.2631 4.79612 14.1416C4.75804 14.0202 4.67934 13.9155 4.57323 13.8453C4.51042 13.8037 4.4399 13.7751 4.36586 13.7613C4.29187 13.7474 4.21578 13.7485 4.14222 13.7646C4.07012 13.7797 4.00177 13.8092 3.94121 13.8511C3.88065 13.8931 3.8291 13.9467 3.78958 14.0089C3.73368 14.1046 3.69022 14.2071 3.66024 14.3138C3.65446 14.3325 3.64979 14.3473 3.64626 14.3568C3.59715 14.4893 3.51885 14.5279 3.4658 14.5208C3.44073 14.5173 3.40624 14.5006 3.38414 14.44C3.35639 14.2647 3.36898 14.0854 3.42095 13.9157C3.47292 13.746 3.5629 13.5904 3.68404 13.4608C3.78578 13.3515 3.91206 13.268 4.05246 13.2173C4.19283 13.1665 4.3433 13.1499 4.49137 13.1688C4.64825 13.1904 4.79735 13.2505 4.92527 13.3438C5.05319 13.4371 5.15599 13.5607 5.22445 13.7035C5.29378 13.879 5.32175 14.0681 5.30619 14.2562C5.29066 14.4442 5.23204 14.6262 5.13481 14.7879C5.12252 14.8154 5.11126 14.8406 5.10178 14.8635C5.06682 14.9266 5.04766 14.9973 5.04584 15.0695C5.04403 15.1417 5.05967 15.2132 5.09143 15.278C5.11826 15.3167 5.15429 15.3481 5.19624 15.3694C5.2382 15.3907 5.28478 15.4013 5.33183 15.4003C5.37619 15.3996 5.42028 15.3934 5.46311 15.3817C5.51881 15.3687 5.57637 15.3553 5.61133 15.3993V15.3993ZM19.3426 15.7421C19.3114 16.3815 19.1763 17.0116 18.9426 17.6075C17.7765 20.4103 14.9937 21.9706 11.6785 21.8719C8.58805 21.7798 5.95223 20.144 4.79861 17.4775C4.07032 17.4571 3.37362 17.1757 2.83546 16.6846C2.27954 16.2107 1.92236 15.5449 1.83496 14.8196C1.77855 14.3206 1.84026 13.8154 2.01511 13.3447L1.36723 12.7942C-1.5972 10.2835 7.67474 -0.053899 10.6403 2.54061C10.6553 2.55367 11.6491 3.53182 11.6516 3.53423C11.6555 3.53221 12.1999 3.30066 12.2027 3.29953C14.8038 2.21916 16.9144 2.7408 16.917 4.46457C16.9184 5.36104 16.3489 6.40594 15.4366 7.3544C15.8012 7.72548 16.0594 8.18774 16.184 8.69279C16.2846 9.04511 16.339 9.40904 16.3458 9.77542C16.3616 10.1407 16.3791 10.9918 16.3809 11.0069C16.404 11.014 16.6674 11.0864 16.7472 11.1089C17.2779 11.2253 17.7717 11.4707 18.185 11.8233C18.4032 12.0366 18.5461 12.3151 18.5922 12.6168C18.6484 13.0082 18.5507 13.4062 18.3197 13.7271C18.3798 13.8642 18.432 14.0047 18.4759 14.1478C18.5527 14.3946 18.6085 14.5995 18.6172 14.6299C18.8994 14.6299 19.3426 14.9558 19.3426 15.7421ZM6.24197 14.2041C6.04041 12.8953 5.15772 12.4341 4.55881 12.4012C4.40849 12.3932 4.25773 12.404 4.11006 12.4332C3.04108 12.6495 2.43734 13.5616 2.55614 14.7468C2.64266 15.2784 2.90592 15.7653 3.30336 16.1289C3.7008 16.4924 4.20922 16.7113 4.74643 16.7502C4.84922 16.7529 4.95205 16.7457 5.05347 16.7285C6.13692 16.5432 6.42058 15.3632 6.24197 14.2041ZM8.06913 5.89599C8.97465 5.15153 9.94058 4.4838 10.9569 3.8997C10.9569 3.8997 10.1499 2.96114 9.90621 2.89197C8.40727 2.48554 5.16922 4.72546 3.10185 7.68471C2.26532 8.88207 1.06782 11.0025 1.64037 12.093C1.84377 12.3378 2.07321 12.5597 2.32465 12.7548C2.70743 12.2152 3.28501 11.8457 3.93531 11.7242C4.74887 9.43713 6.17963 7.4199 8.06913 5.89599ZM11.3269 16.253C11.3667 16.4269 11.4526 16.5869 11.5758 16.716C11.6989 16.8451 11.8546 16.9386 12.0265 16.9865C12.2053 17.0531 12.3897 17.1034 12.5776 17.1366C14.9487 17.5457 17.1653 16.1859 17.6644 15.8434C17.7019 15.8177 17.7266 15.8427 17.6966 15.8881C17.6815 15.9123 17.6652 15.9356 17.6477 15.9581C17.0369 16.7483 15.3948 17.6635 13.2583 17.6632C12.3266 17.663 11.3953 17.3337 11.0533 16.8278C10.5229 16.0428 11.0271 14.8969 11.911 15.0163C11.9121 15.0165 12.2135 15.0508 12.2982 15.0602C13.6723 15.1923 15.0574 14.97 16.3211 14.4145C17.5271 13.8529 17.9827 13.2349 17.9144 12.7347C17.8915 12.5793 17.8185 12.4357 17.7064 12.3257C17.3766 12.0542 16.985 11.8681 16.5662 11.784C16.3747 11.73 16.2447 11.6956 16.1047 11.6493C15.8558 11.5671 15.7327 11.5009 15.7048 11.0313C15.6926 10.826 15.657 10.1106 15.644 9.81493C15.6213 9.29692 15.5592 8.58885 15.1211 8.29651C15.0096 8.2231 14.8802 8.18158 14.7467 8.17645C14.6719 8.1719 14.5969 8.17929 14.5244 8.19829C14.3025 8.24965 14.1003 8.36434 13.9423 8.52837C13.7376 8.71341 13.4968 8.85417 13.2352 8.94176C12.9735 9.02938 12.6965 9.06198 12.4216 9.03752C12.1152 9.02472 11.7903 8.9768 11.418 8.95464C11.3456 8.95037 11.2728 8.94587 11.2003 8.94215C10.7209 8.95472 10.2619 9.13905 9.907 9.46154C9.55207 9.78403 9.32476 10.2233 9.26645 10.6993C9.05331 12.1704 10.1154 12.9307 10.4221 13.3768C10.4695 13.4336 10.4988 13.5032 10.5065 13.5768C10.4984 13.6584 10.4593 13.7338 10.3973 13.7875V13.7879C9.97317 14.2605 9.6751 14.8324 9.53058 15.4507C9.38611 16.069 9.39994 16.7138 9.5708 17.3254C9.61133 17.4722 9.66328 17.6157 9.72614 17.7544C10.5012 19.5711 12.9054 20.417 15.2543 19.6475C15.5619 19.5468 15.8604 19.4204 16.1467 19.2695C16.6611 19.0146 17.1243 18.6674 17.5133 18.2451C18.1182 17.6371 18.5163 16.8541 18.651 16.007C18.7217 15.5388 18.6182 15.3577 18.477 15.2705C18.3772 15.2149 18.2619 15.1938 18.1489 15.2104C18.0891 14.8427 17.9842 14.4838 17.8365 14.1417C17.1656 14.6479 16.4073 15.0262 15.5994 15.2577C14.6274 15.5324 13.6162 15.642 12.6079 15.5822C11.9592 15.5296 11.5301 15.3397 11.3687 15.8658C12.3499 16.1939 13.3917 16.3003 14.419 16.177C14.4262 16.1763 14.4335 16.177 14.4405 16.1791C14.4474 16.1812 14.4539 16.1846 14.4595 16.1892C14.4651 16.1938 14.4698 16.1995 14.4732 16.2059C14.4766 16.2123 14.4788 16.2193 14.4795 16.2265C14.4805 16.2387 14.4779 16.2509 14.4717 16.2614C14.4656 16.272 14.4563 16.2803 14.4452 16.2854C14.4452 16.2854 13.2404 16.8465 11.3269 16.253ZM7.79832 7.72181C8.59524 7.16232 9.4938 6.76398 10.4435 6.54911C11.5148 6.30085 12.6284 6.29785 13.7011 6.54034C13.7386 6.54895 13.7626 6.48373 13.7289 6.46488C13.1723 6.17506 12.5579 6.01348 11.9307 5.99207C11.9247 5.99199 11.9187 5.99021 11.9136 5.98697C11.9085 5.98374 11.9044 5.97911 11.9018 5.9737C11.8991 5.96829 11.898 5.9622 11.8986 5.9562C11.8991 5.95019 11.9013 5.94443 11.9049 5.93961C12.0024 5.81173 12.1162 5.6972 12.2434 5.59895C12.2492 5.59452 12.2533 5.58836 12.2552 5.5814C12.2572 5.57445 12.2569 5.56702 12.2543 5.56027C12.2518 5.55347 12.2472 5.54771 12.2411 5.54376C12.2351 5.53976 12.2279 5.53787 12.2207 5.53826C11.4526 5.61419 10.7145 5.87557 10.0699 6.29994C10.0644 6.30366 10.0579 6.30563 10.0512 6.30563C10.0446 6.30563 10.0381 6.30362 10.0326 6.29982C10.0271 6.29607 10.0229 6.29078 10.0204 6.28457C10.018 6.27837 10.0175 6.27158 10.019 6.2651C10.0709 6.07049 10.1474 5.88327 10.2466 5.70798C10.2498 5.70198 10.2511 5.6951 10.2502 5.68831C10.2493 5.68155 10.2462 5.67523 10.2414 5.67033C10.2367 5.66543 10.2304 5.66219 10.2237 5.66109C10.217 5.65998 10.21 5.66109 10.2039 5.66421C9.27162 6.17882 8.44124 6.85951 7.75371 7.67274C7.7483 7.67891 7.74538 7.68685 7.74546 7.69502C7.74554 7.7032 7.74866 7.7111 7.75415 7.71715C7.75964 7.72319 7.76719 7.72702 7.77532 7.72789C7.7835 7.72876 7.79168 7.72659 7.79832 7.72181ZM14.0422 12.7156C14.1071 12.7567 14.1849 12.7724 14.2606 12.7599C14.3364 12.7473 14.4049 12.7072 14.453 12.6474C14.5128 12.5316 14.426 12.3746 14.259 12.2966C14.1941 12.2555 14.1163 12.2398 14.0405 12.2524C13.9648 12.2651 13.8963 12.3051 13.8482 12.365C13.7883 12.4807 13.8752 12.6377 14.0422 12.7156ZM14.5545 10.8385C14.5945 11.0469 14.681 11.2437 14.8074 11.4141C14.938 11.3981 15.0701 11.3981 15.2007 11.4141C15.2771 11.1854 15.2837 10.9391 15.2199 10.7065C15.1255 10.2774 14.9978 10.0177 14.7338 10.058C14.4699 10.0985 14.4602 10.4094 14.5545 10.8385ZM15.116 11.8243C15.0495 11.8052 14.9786 11.8074 14.9133 11.8306C14.8481 11.8539 14.7918 11.897 14.7523 11.9539C14.7128 12.0108 14.6922 12.0787 14.6933 12.148C14.6944 12.2172 14.7171 12.2844 14.7583 12.34C14.7995 12.3957 14.8572 12.437 14.9231 12.4583C14.989 12.4795 15.0599 12.4795 15.1259 12.4584C15.1918 12.4372 15.2495 12.3959 15.2907 12.3403C15.332 12.2847 15.3549 12.2175 15.356 12.1483C15.3656 12.0738 15.3459 11.9984 15.3012 11.938C15.2565 11.8776 15.1901 11.8369 15.116 11.8243Z" fill="black"/>
<path d="M12.1896 12.2618C12.2637 11.9982 12.2679 11.7197 12.2019 11.4539C12.1064 11.0241 11.962 10.7786 11.6943 10.819C11.4266 10.8594 11.4197 11.2058 11.5059 11.6374C11.5456 11.8352 11.6229 12.0235 11.7336 12.1921C11.9466 12.4893 12.091 12.4124 12.1892 12.2618H12.1896Z" fill="black"/>
<path d="M32.5018 10.8396C31.2124 10.8396 30.5759 11.8581 30.2819 12.5155C30.1198 12.8812 30.0735 13.1706 29.9416 13.1706C29.7518 13.1706 29.8883 12.9206 29.7356 12.3604C29.5342 11.6243 28.9277 10.8442 27.6406 10.8442C26.2888 10.8442 25.7078 11.9924 25.4346 12.6243C25.2448 13.0549 25.2448 13.1752 25.1013 13.1752C24.8929 13.1752 25.0665 12.8326 25.1591 12.4299C25.2725 11.9692 25.2887 11.4901 25.2054 11.0225H23.0596V19.1291H25.9832V15.1013C25.9832 14.305 26.3165 13.2981 26.8837 13.2981C27.5434 13.2981 27.6707 13.805 27.6707 14.7425V19.1384H30.6105V15.1013C30.6105 14.393 30.8975 13.2981 31.5132 13.2981C32.1799 13.2981 32.2956 14.011 32.2956 14.7425V19.1361H35.1845V14.3652C35.1868 12.2495 34.4437 10.8398 32.5017 10.8398L32.5018 10.8396Z" fill="black"/>
<path d="M82.2025 10.8396C80.9154 10.8396 80.2765 11.8581 79.985 12.5155C79.8206 12.8812 79.7768 13.1706 79.6425 13.1706C79.4548 13.1706 79.5824 12.8512 79.4386 12.3604C79.2233 11.6289 78.6888 10.8442 77.3436 10.8442C75.9964 10.8442 75.411 11.9924 75.1356 12.6243C74.948 13.0549 74.948 13.1752 74.8045 13.1752C74.5936 13.1752 74.7674 12.8326 74.8622 12.4299C74.9756 11.9692 74.9894 11.4901 74.9061 11.0225H72.7605V19.1291H75.6863V15.1013C75.6863 14.305 76.0174 13.2981 76.5843 13.2981C77.2397 13.2981 77.3736 13.805 77.3736 14.7425V19.1384H80.3113V15.1013C80.3113 14.393 80.6005 13.2981 81.2164 13.2981C81.8761 13.2981 81.9986 14.011 81.9986 14.7425V19.1361H84.8853V14.3652C84.8877 12.2495 84.147 10.8398 82.2025 10.8398V10.8396Z" fill="black"/>
<path d="M40.1864 10.8419C38.8577 10.835 37.5429 11.1174 36.3323 11.6683V14.1058C36.3323 14.1058 38.11 13.078 39.5523 13.078C40.7028 13.078 40.8438 13.703 40.7928 14.2169C40.7928 14.2169 40.4618 14.129 39.448 14.129C37.0615 14.129 35.8555 15.2192 35.8555 16.9669C35.8555 18.6244 37.2097 19.3164 38.3508 19.3164C40.0153 19.3164 40.7466 18.1938 40.9734 17.659C41.1286 17.2887 41.1563 17.041 41.2977 17.041C41.4573 17.041 41.4016 17.2192 41.3925 17.5872C41.3787 18.2331 41.4087 18.7192 41.5083 19.1312H43.7191V15.1451C43.7191 12.6544 42.844 10.8419 40.1864 10.8419V10.8419ZM39.4712 17.2378C38.7698 17.3998 38.4086 17.1822 38.4086 16.7169C38.4086 16.0781 39.0684 15.8211 40.0035 15.8211C40.4179 15.8211 40.8067 15.8581 40.8067 15.8581C40.809 16.1313 40.2188 17.0642 39.4712 17.2378Z" fill="black"/>
<path d="M48.5432 8.57104H51.4738V19.1334H48.5432V8.57104Z" fill="black"/>
<path d="M54.6962 15.0802C54.6962 14.351 55.3698 13.689 56.6059 13.689C57.9554 13.689 59.0387 14.3418 59.2817 14.4876V11.6682C59.2817 11.6682 58.4252 10.8418 56.3211 10.8418C54.1012 10.8418 52.2539 12.1474 52.2539 14.9552C52.2539 17.7631 53.9298 19.3163 56.312 19.3163C58.1731 19.3163 59.284 18.2886 59.284 18.2886V15.615C58.932 15.8117 57.9554 16.4946 56.6174 16.4946C55.2054 16.4946 54.6962 15.8395 54.6962 15.0803V15.0802Z" fill="black"/>
<path d="M65.2128 10.8421C63.514 10.8421 62.8728 12.4533 62.7429 12.7379C62.6109 13.0227 62.5461 13.1801 62.4398 13.1755C62.2522 13.1708 62.3841 12.8329 62.4584 12.6129C62.7405 11.6963 62.8819 10.7426 62.8819 9.78197C62.8819 8.87689 62.759 8.57593 62.759 8.57593H60.2314V19.1336H63.1573V15.1011C63.1573 14.4437 63.4188 13.2979 64.1572 13.2979C64.7683 13.2979 64.9584 13.7539 64.9584 14.6705V19.1358H67.8842V14.8442C67.8913 12.7609 67.5464 10.8419 65.2128 10.8419V10.8421Z" fill="black"/>
<path d="M68.8455 11.0361V19.1333H71.7717V11.0361C71.7717 11.0361 71.2783 11.3209 70.3084 11.3209C69.3409 11.3209 68.8455 11.0361 68.8455 11.0361Z" fill="black"/>
<path d="M72.0929 9.66618C72.0929 9.01567 71.2897 8.49023 70.2989 8.49023C69.3105 8.49023 68.5073 9.01567 68.5073 9.66618C68.5073 10.3144 69.3105 10.8421 70.2989 10.8421C71.2897 10.8421 72.0929 10.3143 72.0929 9.66618Z" fill="black"/>
<path d="M44.6685 11.0361V19.1333H47.5943V11.0361C47.5943 11.0361 47.1012 11.3209 46.1337 11.3209C45.1662 11.3209 44.6685 11.0361 44.6685 11.0361Z" fill="black"/>
<path d="M47.9159 9.66618C47.9159 9.01567 47.1123 8.49023 46.1239 8.49023C45.1335 8.49023 44.3323 9.01567 44.3323 9.66618C44.3323 10.3144 45.1335 10.8421 46.1239 10.8421C47.1123 10.8421 47.9159 10.3143 47.9159 9.66618Z" fill="black"/>
<path d="M90.7061 10.8396C89.2013 10.8396 88.5115 11.9785 88.2132 12.6197C88.0141 13.0456 88.0232 13.1706 87.8798 13.1706C87.6712 13.1706 87.845 12.828 87.9375 12.4253C88.0509 11.9669 88.0651 11.4878 87.9817 11.0225H85.8381V21.3721H88.764V18.0897C89.1112 18.6822 89.7524 19.3142 90.7456 19.3142C92.8635 19.3142 93.9282 17.5109 93.9282 15.0804C93.9262 12.3235 92.6506 10.8397 90.7061 10.8397V10.8396ZM89.9029 17.3931C89.2317 17.3931 88.7387 16.5389 88.7387 15.3445C88.7387 14.1848 89.2455 13.2959 89.8796 13.2959C90.6946 13.2959 91.0419 14.0482 91.0419 15.3445C91.0419 16.694 90.7223 17.3931 89.9029 17.3931Z" fill="black"/>
</g>
<defs>
<clipPath id="clip0_1_545">
<rect width="94" height="24" fill="white"/>
</clipPath>
</defs>
</svg>
