<svg width="32" height="24" viewBox="0 0 22 21" fill="none" xmlns="http://www.w3.org/2000/svg">
                <g clip-path="url(#clip0_1_422)">
                  <path
                    d="M2.35245 12.807C2.35245 13.6387 2.53498 14.2771 2.77356 14.6634C3.08636 15.1693 3.55292 15.3837 4.02856 15.3837C4.64204 15.3837 5.20327 15.2315 6.28482 13.7356C7.15127 12.5367 8.17224 10.8537 8.85919 9.7987L10.0225 8.01126C10.8307 6.7699 11.7661 5.38993 12.8385 4.45456C13.7141 3.69111 14.6585 3.26697 15.609 3.26697C17.2049 3.26697 18.7249 4.19174 19.8883 5.92616C21.1615 7.8257 21.7795 10.2183 21.7795 12.6874C21.7795 14.1552 21.4902 15.2337 20.9979 16.0858C20.5222 16.9098 19.5952 17.7331 18.0357 17.7331V15.3837C19.371 15.3837 19.7043 14.1567 19.7043 12.7525C19.7043 10.7515 19.2377 8.53083 18.2099 6.9441C17.4806 5.81861 16.5353 5.1309 15.4954 5.1309C14.3707 5.1309 13.4656 5.97918 12.4485 7.49169C11.9077 8.29528 11.3525 9.27458 10.7292 10.3796L10.043 11.5952C8.66454 14.0393 8.31538 14.596 7.62616 15.5147C6.41812 17.1234 5.38656 17.7331 4.02856 17.7331C2.41759 17.7331 1.3989 17.0356 0.767993 15.9843C0.252968 15.1277 0 14.0037 0 12.723L2.35245 12.807Z"
                    fill="#0081FB" />
                  <path
                    d="M1.85449 6.09203C2.93302 4.42956 4.48945 3.26697 6.27462 3.26697C7.30846 3.26697 8.33623 3.57295 9.40946 4.44925C10.5834 5.40735 11.8346 6.98499 13.3956 9.58511L13.9553 10.5182C15.3065 12.7692 16.0752 13.9272 16.5251 14.4733C17.1038 15.1747 17.509 15.3837 18.0354 15.3837C19.3706 15.3837 19.7039 14.1567 19.7039 12.7525L21.7791 12.6874C21.7791 14.1552 21.4898 15.2337 20.9975 16.0858C20.5219 16.9098 19.5948 17.7331 18.0354 17.7331C17.0659 17.7331 16.207 17.5226 15.2573 16.6266C14.5271 15.9389 13.6736 14.7172 13.0169 13.619L11.0636 10.3561C10.0835 8.71866 9.18451 7.49775 8.66418 6.94485C8.10447 6.3503 7.38495 5.6323 6.23675 5.6323C5.30743 5.6323 4.51823 6.28441 3.85779 7.28189L1.85449 6.09203Z"
                    fill="url(#paint0_linear_1_422)" />
                  <path
                    d="M6.2371 5.6323C5.30779 5.6323 4.51859 6.28441 3.85814 7.28189C2.92428 8.69139 2.35245 10.7909 2.35245 12.807C2.35245 13.6387 2.53498 14.2771 2.77356 14.6634L0.767993 15.9843C0.252968 15.1277 0 14.0037 0 12.723C0 10.394 0.639237 7.96657 1.85485 6.09203C2.93337 4.42956 4.48981 3.26697 6.27497 3.26697L6.2371 5.6323Z"
                    fill="url(#paint1_linear_1_422)" />
                </g>
                <defs>
                  <linearGradient id="paint0_linear_1_422" x1="4.61972" y1="12.1284" x2="19.616" y2="12.8858"
                    gradientUnits="userSpaceOnUse">
                    <stop stop-color="#0064E1" />
                    <stop offset="0.4" stop-color="#0064E1" />
                    <stop offset="0.83" stop-color="#0073EE" />
                    <stop offset="1" stop-color="#0082FB" />
                  </linearGradient>
                  <linearGradient id="paint1_linear_1_422" x1="3.40825" y1="13.7947" x2="3.40825" y2="8.26574"
                    gradientUnits="userSpaceOnUse">
                    <stop stop-color="#0082FB" />
                    <stop offset="1" stop-color="#0064E0" />
                  </linearGradient>
                  <clipPath id="clip0_1_422">
                    <rect width="21.7795" height="21" fill="white" />
                  </clipPath>
                </defs>
              </svg>

