<svg width="11" height="11" viewBox="0 0 11 11" fill="none" xmlns="http://www.w3.org/2000/svg">
<path d="M2.21189 10.7799C2.21189 10.6586 2.18856 10.5979 2.14189 10.5979L1.81989 10.7519C1.81989 10.6866 1.78256 10.6399 1.70789 10.6119L1.59589 10.5979C1.52122 10.5979 1.42789 10.6306 1.31589 10.6959C1.29722 10.6493 1.27389 10.6026 1.24589 10.5559C1.21789 10.5093 1.19456 10.4673 1.17589 10.4299C1.05456 10.1966 0.933222 9.93994 0.811889 9.65994C0.699889 9.37061 0.592555 9.09527 0.489889 8.83394C0.396555 8.57261 0.321889 8.36727 0.265889 8.21794C0.228555 8.09661 0.186555 7.91461 0.139889 7.67194C0.093222 7.42927 0.0465554 7.12127 -0.000111289 6.74794C0.102555 6.81327 0.181889 6.84594 0.237889 6.84594C0.303222 6.84594 0.363889 6.74794 0.419889 6.55194C0.447889 6.58927 0.499222 6.60794 0.573889 6.60794C0.629889 6.60794 0.671889 6.58927 0.699889 6.55194L0.923889 6.21594L1.17589 6.29994H1.18989C1.20856 6.29994 1.22722 6.29061 1.24589 6.27194C1.26456 6.25327 1.29256 6.23461 1.32989 6.21594C1.40456 6.16927 1.46056 6.14594 1.49789 6.14594L1.53989 6.15994C1.77322 6.27194 1.92256 6.47727 1.98789 6.77594C2.15589 7.48527 2.32389 7.83994 2.49189 7.83994C2.65989 7.83994 2.85589 7.66261 3.07989 7.30794C3.19189 7.13061 3.30389 6.92527 3.41589 6.69194C3.53722 6.45861 3.65856 6.19727 3.77989 5.90794C3.79856 6.01994 3.81722 6.07594 3.83589 6.07594C3.88256 6.07594 3.96189 5.95927 4.07389 5.72594C4.19522 5.49261 4.38656 5.17061 4.64789 4.75994C4.79722 4.50794 4.98389 4.22327 5.20789 3.90594C5.44122 3.58861 5.68856 3.26194 5.94989 2.92594C6.21122 2.58994 6.46322 2.27261 6.70589 1.97394C6.95789 1.67527 7.18189 1.41861 7.37789 1.20394C7.57389 0.989273 7.71856 0.849273 7.81189 0.78394C8.16656 0.541273 8.44656 0.30794 8.65189 0.08394C8.64256 0.149273 8.62856 0.20994 8.60989 0.26594C8.60056 0.312607 8.59589 0.345273 8.59589 0.36394C8.59589 0.401273 8.61456 0.41994 8.65189 0.41994L9.04389 0.22394V0.27994C9.04389 0.354607 9.06256 0.39194 9.09989 0.39194C9.12789 0.39194 9.18389 0.34994 9.26789 0.26594C9.35189 0.18194 9.39856 0.121273 9.40789 0.08394L9.37989 0.27994L9.85589 -5.97239e-05L9.74389 0.25194C9.89322 0.149273 10.0006 0.0979398 10.0659 0.0979398C10.1032 0.0979398 10.1312 0.121273 10.1499 0.16794C10.1686 0.205273 10.1779 0.242607 10.1779 0.27994C10.1779 0.33594 10.1546 0.401273 10.1079 0.47594C10.0612 0.550607 10.0006 0.639273 9.92589 0.74194C9.86989 0.816607 9.77656 0.928607 9.64589 1.07794C9.52456 1.21794 9.33789 1.42794 9.08589 1.70794C8.83389 1.97861 8.49789 2.35661 8.07789 2.84194C7.96589 2.96327 7.79322 3.17794 7.55989 3.48594C7.32656 3.78461 7.06056 4.13461 6.76189 4.53594C6.47256 4.92794 6.18322 5.32461 5.89389 5.72594C5.60456 6.12727 5.34789 6.49127 5.12389 6.81794C4.89989 7.13527 4.74122 7.37327 4.64789 7.53194L3.77989 9.00194C3.59322 9.31927 3.43922 9.58061 3.31789 9.78594C3.19656 9.98194 3.10322 10.1173 3.03789 10.1919C2.89789 10.3599 2.74389 10.5093 2.57589 10.6399L2.44989 10.5699L2.33789 10.6399L2.21189 10.7799Z" fill="#63C381"/>
</svg>
