<svg width="11" height="11" viewBox="0 0 11 11" fill="none" xmlns="http://www.w3.org/2000/svg">
<path d="M2.21189 10.78C2.21189 10.6587 2.18856 10.598 2.14189 10.598L1.81989 10.752C1.81989 10.6867 1.78256 10.64 1.70789 10.612L1.59589 10.598C1.52122 10.598 1.42789 10.6307 1.31589 10.696C1.29722 10.6493 1.27389 10.6027 1.24589 10.556C1.21789 10.5093 1.19456 10.4673 1.17589 10.43C1.05456 10.1967 0.933222 9.94 0.811889 9.66C0.699889 9.37067 0.592555 9.09533 0.489889 8.834C0.396555 8.57267 0.321889 8.36733 0.265889 8.218C0.228555 8.09667 0.186555 7.91467 0.139889 7.672C0.093222 7.42933 0.0465554 7.12133 -0.000111289 6.748C0.102555 6.81333 0.181889 6.846 0.237889 6.846C0.303222 6.846 0.363889 6.748 0.419889 6.552C0.447889 6.58933 0.499222 6.608 0.573889 6.608C0.629889 6.608 0.671889 6.58933 0.699889 6.552L0.923889 6.216L1.17589 6.3H1.18989C1.20856 6.3 1.22722 6.29067 1.24589 6.272C1.26456 6.25333 1.29256 6.23467 1.32989 6.216C1.40456 6.16933 1.46056 6.146 1.49789 6.146L1.53989 6.16C1.77322 6.272 1.92256 6.47733 1.98789 6.776C2.15589 7.48533 2.32389 7.84 2.49189 7.84C2.65989 7.84 2.85589 7.66267 3.07989 7.308C3.19189 7.13067 3.30389 6.92533 3.41589 6.692C3.53722 6.45867 3.65856 6.19733 3.77989 5.908C3.79856 6.02 3.81722 6.076 3.83589 6.076C3.88256 6.076 3.96189 5.95933 4.07389 5.726C4.19522 5.49267 4.38656 5.17067 4.64789 4.76C4.79722 4.508 4.98389 4.22333 5.20789 3.906C5.44122 3.58867 5.68856 3.262 5.94989 2.926C6.21122 2.59 6.46322 2.27267 6.70589 1.974C6.95789 1.67533 7.18189 1.41867 7.37789 1.204C7.57389 0.989334 7.71856 0.849334 7.81189 0.784001C8.16656 0.541334 8.44656 0.308001 8.65189 0.0840011C8.64256 0.149334 8.62856 0.210001 8.60989 0.266001C8.60056 0.312668 8.59589 0.345334 8.59589 0.364001C8.59589 0.401334 8.61456 0.420001 8.65189 0.420001L9.04389 0.224001V0.280001C9.04389 0.354668 9.06256 0.392001 9.09989 0.392001C9.12789 0.392001 9.18389 0.350001 9.26789 0.266001C9.35189 0.182001 9.39856 0.121334 9.40789 0.0840011L9.37989 0.280001L9.85589 1.3113e-06L9.74389 0.252001C9.89322 0.149334 10.0006 0.0980009 10.0659 0.0980009C10.1032 0.0980009 10.1312 0.121334 10.1499 0.168001C10.1686 0.205334 10.1779 0.242668 10.1779 0.280001C10.1779 0.336001 10.1546 0.401334 10.1079 0.476001C10.0612 0.550668 10.0006 0.639334 9.92589 0.742001C9.86989 0.816668 9.77656 0.928668 9.64589 1.078C9.52456 1.218 9.33789 1.428 9.08589 1.708C8.83389 1.97867 8.49789 2.35667 8.07789 2.842C7.96589 2.96333 7.79322 3.178 7.55989 3.486C7.32656 3.78467 7.06056 4.13467 6.76189 4.536C6.47256 4.928 6.18322 5.32467 5.89389 5.726C5.60456 6.12733 5.34789 6.49133 5.12389 6.818C4.89989 7.13533 4.74122 7.37333 4.64789 7.532L3.77989 9.002C3.59322 9.31933 3.43922 9.58067 3.31789 9.786C3.19656 9.982 3.10322 10.1173 3.03789 10.192C2.89789 10.36 2.74389 10.5093 2.57589 10.64L2.44989 10.57L2.33789 10.64L2.21189 10.78Z" fill="#2B233A"/>
</svg>
