<svg width="16" height="16" viewBox="0 0 16 16" fill="none" xmlns="http://www.w3.org/2000/svg">
<path d="M1.8594 2.26905C1.67845 2.46398 1.58694 2.71346 1.60347 2.96679V13.9719C1.58788 14.2252 1.67928 14.4743 1.8594 14.6696L1.90129 14.7072L8.76508 8.54036V8.39412L1.90129 2.23145L1.8594 2.26905Z" fill="url(#paint0_linear_1_652)"/>
<path d="M11.0512 10.5912L8.76172 8.53559V8.38935L11.0512 6.33789L11.1024 6.36295L13.8153 7.7459C14.5924 8.13863 14.5924 8.78623 13.8153 9.18319L11.1024 10.5661L11.0512 10.5912Z" fill="url(#paint1_linear_1_652)"/>
<path d="M11.1018 10.5636L8.77506 8.47461L1.85547 14.6624C2.01496 14.78 2.21354 14.8468 2.41994 14.8521C2.62633 14.8574 2.82884 14.8009 2.99556 14.6916L11.0879 10.5636" fill="url(#paint2_linear_1_652)"/>
<path d="M11.1018 6.36173L2.99556 2.22959C2.83062 2.11575 2.62678 2.05683 2.41884 2.06293C2.21091 2.06903 2.01178 2.13975 1.85547 2.26302L8.76114 8.46328L11.1018 6.36173Z" fill="url(#paint3_linear_1_652)"/>
<path opacity="0.1" d="M11.0529 10.5186L2.9978 14.6215C2.83712 14.729 2.64209 14.787 2.44171 14.787C2.24133 14.787 2.04631 14.729 1.88563 14.6215L1.84375 14.6591L1.88563 14.6967C2.04631 14.8042 2.24133 14.8622 2.44171 14.8622C2.64209 14.8622 2.83712 14.8042 2.9978 14.6967L11.0901 10.5687L11.0529 10.5186Z" fill="#1D1D1B"/>
<path opacity="0.07" d="M1.85866 14.5955C1.67865 14.3987 1.58751 14.1481 1.60332 13.8936V13.9646C1.58776 14.2178 1.67896 14.467 1.85866 14.6624L1.90044 14.6248L1.85866 14.5955Z" fill="#1D1D1B"/>
<path opacity="0.07" d="M13.8188 9.10352L11.0547 10.5157L11.1059 10.5617L13.8188 9.162C13.978 9.09912 14.1156 8.99952 14.2178 8.87328C14.32 8.74704 14.3831 8.59864 14.4005 8.44336C14.3688 8.58688 14.2994 8.7216 14.1983 8.8364C14.0972 8.9512 13.9671 9.04272 13.8188 9.10352Z" fill="#1D1D1B"/>
<path opacity="0.3" d="M2.99758 2.3041L13.8168 7.81502C13.9636 7.8743 14.0928 7.96382 14.1939 8.07632C14.2949 8.18888 14.365 8.3212 14.3984 8.46264C14.382 8.30704 14.3193 8.15832 14.217 8.03192C14.1147 7.90553 13.9764 7.80609 13.8168 7.74399L2.99758 2.2289C2.23443 1.83616 1.60156 2.16205 1.60156 2.96006V3.0311C1.60156 2.23726 2.23443 1.90718 2.99758 2.3041Z" fill="white"/>
<defs>
<linearGradient id="paint0_linear_1_652" x1="8.16012" y1="2.84981" x2="-0.14363" y2="12.0983" gradientUnits="userSpaceOnUse">
<stop stop-color="#008EFF"/>
<stop offset="0.01" stop-color="#008FFF"/>
<stop offset="0.26" stop-color="#00ACFF"/>
<stop offset="0.51" stop-color="#00C0FF"/>
<stop offset="0.76" stop-color="#00CDFF"/>
<stop offset="1" stop-color="#00D1FF"/>
</linearGradient>
<linearGradient id="paint1_linear_1_652" x1="13.9084" y1="8.46455" x2="0.497308" y2="8.46455" gradientUnits="userSpaceOnUse">
<stop stop-color="#FFD800"/>
<stop offset="1" stop-color="#FF8A00"/>
</linearGradient>
<linearGradient id="paint2_linear_1_652" x1="9.83146" y1="9.60269" x2="-1.42584" y2="22.1406" gradientUnits="userSpaceOnUse">
<stop stop-color="#FF3A44"/>
<stop offset="1" stop-color="#B11162"/>
</linearGradient>
<linearGradient id="paint3_linear_1_652" x1="0.115093" y1="-1.40117" x2="5.14599" y2="4.19743" gradientUnits="userSpaceOnUse">
<stop stop-color="#328E71"/>
<stop offset="0.07" stop-color="#2D9571"/>
<stop offset="0.48" stop-color="#15BD74"/>
<stop offset="0.8" stop-color="#06D575"/>
<stop offset="1" stop-color="#00DE76"/>
</linearGradient>
</defs>
</svg>
