<svg width="11" height="16" viewBox="0 0 11 16" fill="none" xmlns="http://www.w3.org/2000/svg">
                <path fill-rule="evenodd" clip-rule="evenodd"
                  d="M4.3062 4.61721C4.3062 3.948 4.85902 3.64735 5.7513 3.64735C7.2299 3.67932 8.68084 4.05451 9.98961 4.74329V0.776546C8.64305 0.248498 7.20731 -0.0149417 5.761 0.000654076C2.30828 0.000654076 0 1.8046 0 4.84998C0 9.56352 6.4787 8.79733 6.4787 10.834C6.4787 11.6196 5.79009 11.8718 4.84932 11.8718C3.192 11.7804 1.5785 11.3057 0.135781 10.4849V14.5486C1.60586 15.1839 3.18968 15.5138 4.79113 15.5185C8.33114 15.5185 10.7752 13.7727 10.7752 10.6692C10.8043 5.61617 4.3062 6.52784 4.3062 4.61721Z"
                  fill="white" />
              </svg>

