<svg width="108" height="50" viewBox="0 0 108 50" fill="none" xmlns="http://www.w3.org/2000/svg">
<g clip-path="url(#clip0_80_21)">
<path d="M107.075 29.7824C107.084 30.8532 106.827 31.9094 106.329 32.8569C105.827 33.8011 105.128 34.6259 104.279 35.2751C103.356 35.9807 102.315 36.5164 101.205 36.8572C99.9395 37.2538 98.6198 37.448 97.2941 37.4326C96.6302 37.4311 95.9669 37.3921 95.3074 37.3157C94.5972 37.2438 93.896 37.1359 93.2128 37.0011C92.5296 36.8662 91.8464 36.7044 91.1992 36.5156C90.6242 36.3522 90.0647 36.1386 89.5271 35.8774L90.0485 33.6929C92.332 34.7012 94.798 35.2305 97.2941 35.2481C99.1229 35.3178 100.93 34.8354 102.481 33.8637C103.151 33.4354 103.696 32.8369 104.059 32.1294C104.422 31.4218 104.591 30.6306 104.549 29.8364C104.567 29.06 104.368 28.294 103.973 27.625C103.58 26.9828 103.075 26.4165 102.481 25.9529C101.835 25.4557 101.143 25.0222 100.413 24.6584C99.6404 24.2808 98.8583 23.9123 98.0492 23.5707C96.9795 23.1122 95.9546 22.6717 94.9748 22.1593C94.0509 21.7168 93.182 21.1677 92.3858 20.5232C91.6655 19.9457 91.0563 19.2421 90.5879 18.4466C90.134 17.6217 89.9075 16.691 89.9316 15.7497C89.8844 14.7953 90.0719 13.8438 90.4778 12.9787C90.8837 12.1135 91.4957 11.3612 92.2599 10.7875C94.0114 9.54126 96.1259 8.90914 98.274 8.98957C100.898 8.93208 103.492 9.55127 105.807 10.7875L105.232 12.918C104.106 12.3782 102.932 11.9448 101.726 11.6235C100.577 11.3314 99.3962 11.1865 98.211 11.192C96.7054 11.0942 95.2098 11.4989 93.959 12.3427C93.4588 12.7367 93.0611 13.2457 92.7997 13.8263C92.5383 14.4069 92.421 15.0421 92.4577 15.6778C92.4427 16.3757 92.6233 17.0639 92.9791 17.6645C93.3448 18.2465 93.8249 18.7481 94.3905 19.1388C95.0239 19.585 95.6981 19.9702 96.4041 20.2895C97.1503 20.6311 97.9234 20.9996 98.7324 21.3862C99.5415 21.7727 100.315 22.1143 101.294 22.5369C102.253 22.9548 103.159 23.486 103.991 24.119C104.846 24.7573 105.577 25.5464 106.149 26.4473C106.778 27.4443 107.1 28.604 107.075 29.7824Z" fill="white"/>
<path d="M74.0561 8.98957C72.1459 8.98434 70.2546 9.36641 68.4963 10.1127C66.7379 10.859 65.1492 11.954 63.8259 13.3315L64.2035 16.406C65.5673 14.3992 67.5106 12.8561 69.7741 11.9824C72.0376 11.1087 74.5137 10.9459 76.8721 11.5159C79.2305 12.0859 81.359 13.3614 82.9737 15.1724C84.5884 16.9834 85.6125 19.2437 85.9093 21.6518C86.2062 24.0598 85.7617 26.5012 84.6351 28.6501C83.5086 30.799 81.7536 32.5533 79.6042 33.6789C77.4548 34.8046 75.0133 35.248 72.6054 34.9502C70.1974 34.6523 67.9376 33.6273 66.1273 32.0119L66.5228 35.1043C68.7734 36.5302 71.3827 37.2878 74.0471 37.2887C77.8022 37.2887 81.4035 35.797 84.0587 33.1418C86.7139 30.4865 88.2057 26.8853 88.2057 23.1302C88.2057 19.3751 86.7139 15.7738 84.0587 13.1185C81.4035 10.4633 77.8022 8.97159 74.0471 8.97159L74.0561 8.98957Z" fill="white"/>
<path d="M11.6055 14.3294H10.7875C9.04313 14.2874 7.32161 14.7326 5.81625 15.6149C4.29293 16.5909 3.021 17.9121 2.10356 19.4714V35.7875H0V12.7742H1.9867V17.5297C2.7303 16.022 3.86306 14.7403 5.26789 13.817C6.73685 12.8783 8.45128 12.3965 10.1942 12.4326C10.4549 12.4326 10.7156 12.4326 10.9673 12.4326C11.1851 12.443 11.4001 12.4854 11.6055 12.5584V14.3294Z" fill="white"/>
<path d="M14.3832 24.5236C14.3832 27.6519 15.1114 30.0791 16.5677 31.8231C18.024 33.5671 20.2084 34.4301 23.1211 34.4301C24.2577 34.4349 25.3904 34.2959 26.4922 34.0165C27.5825 33.7335 28.6447 33.3513 29.6655 32.8749L30.1509 34.5739C29.0875 35.11 27.9652 35.5202 26.8068 35.7965C25.5187 36.1157 24.1964 36.2757 22.8694 36.2729C21.3025 36.3125 19.7462 36.0055 18.3117 35.374C17.0215 34.7939 15.8831 33.9231 14.9855 32.8299C14.0684 31.6953 13.3841 30.3909 12.9718 28.9914C12.5037 27.4409 12.2733 25.8284 12.2886 24.2089C12.2701 22.5833 12.5005 20.9644 12.9718 19.4085C13.3743 18.0412 14.0333 16.7629 14.9136 15.6419C15.7324 14.5937 16.7812 13.7479 17.979 13.1697C19.2521 12.5599 20.6488 12.2523 22.0603 12.2708C23.2107 12.2123 24.3599 12.4083 25.4259 12.845C26.4918 13.2816 27.4483 13.9481 28.2271 14.7968C29.8048 16.7538 30.5993 19.2271 30.4566 21.7368C30.4553 22.1902 30.4313 22.6432 30.3846 23.0942C30.3307 23.5527 30.2768 23.9932 30.2138 24.5056L14.3832 24.5236ZM28.2631 22.6807C28.4609 19.9718 27.9994 17.8473 26.8787 16.3071C26.3014 15.5317 25.539 14.9132 24.6612 14.508C23.7835 14.1029 22.8182 13.924 21.8535 13.9878C20.7113 13.9605 19.5822 14.2366 18.5813 14.7878C17.6766 15.3022 16.8896 16.0004 16.271 16.8375C15.6522 17.6887 15.1783 18.6364 14.8686 19.6422C14.5521 20.6242 14.3884 21.649 14.3832 22.6807H28.2631Z" fill="white"/>
<path d="M47.9593 29.8184C47.9678 30.7231 47.7515 31.6158 47.33 32.4164C46.9078 33.2101 46.319 33.9031 45.604 34.448C44.8236 35.0439 43.9441 35.4974 43.006 35.7875C41.9385 36.1211 40.8252 36.2849 39.7068 36.2729C39.1481 36.269 38.59 36.236 38.0348 36.174C37.4325 36.1111 36.8482 36.0212 36.2369 35.9044C35.6639 35.7992 35.0967 35.6642 34.5378 35.4998C34.052 35.3633 33.5796 35.1827 33.1265 34.9604L33.567 33.1625C35.4937 34.0125 37.574 34.4591 39.6799 34.475C41.2249 34.5174 42.747 34.0945 44.0488 33.2614C44.6221 32.9045 45.0905 32.4019 45.4063 31.805C45.7221 31.2081 45.8741 30.5381 45.8467 29.8634C45.8585 29.2075 45.6906 28.5609 45.3613 27.9935C45.0147 27.4486 44.5696 26.973 44.0488 26.5912C43.5064 26.1671 42.922 25.7996 42.3048 25.4944C41.6576 25.1708 40.9923 24.8652 40.3091 24.5955C39.4102 24.2089 38.5112 23.8134 37.7201 23.4088C36.9381 23.0334 36.2021 22.5688 35.5267 22.0245C34.9223 21.5414 34.4132 20.95 34.0254 20.2805C33.6491 19.5734 33.4661 18.7796 33.495 17.9791C33.4558 17.1719 33.6147 16.3673 33.9578 15.6355C34.301 14.9037 34.818 14.2671 35.4638 13.781C36.9439 12.7407 38.7265 12.2192 40.5339 12.2977C42.7471 12.2455 44.9363 12.7657 46.8895 13.808L46.4041 15.6059C45.4539 15.1503 44.4639 14.7832 43.4465 14.5092C42.4799 14.2642 41.4861 14.1434 40.4889 14.1496C39.2162 14.069 37.9523 14.4102 36.8931 15.1205C36.4713 15.4526 36.1364 15.8822 35.9172 16.3723C35.6979 16.8624 35.601 17.3984 35.6346 17.9342C35.6187 18.521 35.7682 19.1004 36.0661 19.6063C36.3809 20.093 36.7869 20.5143 37.2617 20.8468C37.7955 21.2193 38.361 21.5442 38.9517 21.8177C39.587 22.1054 40.2432 22.405 40.9204 22.7167C41.5976 23.0283 42.3168 23.3519 43.0779 23.6875C43.899 24.0397 44.6746 24.4894 45.3882 25.027C46.1006 25.5667 46.7097 26.2306 47.1862 26.9867C47.7164 27.8342 47.9853 28.8191 47.9593 29.8184Z" fill="white"/>
<path d="M64.725 49.3617C64.4742 49.3617 64.232 49.2705 64.0434 49.1051C63.8549 48.9397 63.7329 48.7114 63.7002 48.4628L57.9289 1.15965C57.9052 0.893267 57.9856 0.628049 58.1533 0.41971C58.321 0.211372 58.5629 0.0761254 58.8282 0.0423806C59.0935 0.00863585 59.3615 0.0790187 59.576 0.238745C59.7905 0.398471 59.9348 0.63511 59.9785 0.898955L65.7858 48.1931C65.8188 48.4648 65.7427 48.7386 65.5742 48.9543C65.4057 49.17 65.1585 49.3101 64.8868 49.3438L64.725 49.3617Z" fill="#FFC720"/>
<path d="M54.5846 50C54.3111 49.9977 54.0495 49.888 53.8562 49.6946C53.6628 49.5012 53.5531 49.2397 53.5508 48.9662V2.22042C53.5508 1.94624 53.6597 1.68329 53.8536 1.48942C54.0474 1.29554 54.3104 1.18662 54.5846 1.18662C54.8588 1.18662 55.1217 1.29554 55.3156 1.48942C55.5095 1.68329 55.6184 1.94624 55.6184 2.22042V48.9662C55.6184 49.2404 55.5095 49.5033 55.3156 49.6972C55.1217 49.8911 54.8588 50 54.5846 50Z" fill="#FFC720"/>
</g>
<defs>
<clipPath id="clip0_80_21">
<rect width="107.075" height="50" fill="white"/>
</clipPath>
</defs>
</svg>
