<svg width="32" height="26" viewBox="0 0 26 26" fill="none" xmlns="http://www.w3.org/2000/svg">
                <path
                  d="M17.1379 1.11019C13.9004 1.11019 12.9543 1.11247 12.7696 1.12843C12.1061 1.18316 11.6912 1.28806 11.242 1.51382C10.8955 1.68713 10.6219 1.88553 10.3506 2.16602C9.85813 2.67683 9.55946 3.30623 9.45231 4.05192C9.39987 4.41451 9.38391 4.48976 9.38163 6.34146C9.37935 6.95945 9.38163 7.77128 9.38163 8.86131C9.38163 12.0972 9.38619 13.0436 9.39987 13.2283C9.45459 13.8759 9.5549 14.2819 9.76922 14.7265C10.1796 15.5794 10.9639 16.2179 11.8873 16.4574C12.2065 16.5395 12.5598 16.5851 13.0136 16.6056C13.2051 16.6147 15.1635 16.6193 17.122 16.6193C19.0804 16.6193 21.0389 16.617 21.2259 16.6079C21.7502 16.5828 22.0557 16.5417 22.3932 16.4551C23.3234 16.2156 24.0917 15.5862 24.5112 14.722C24.721 14.2887 24.8281 13.8645 24.876 13.2511C24.8874 13.1166 24.892 10.9867 24.892 8.85903C24.892 6.73141 24.8874 4.60378 24.876 4.46924C24.8281 3.84668 24.721 3.42709 24.5021 2.98469C24.3243 2.6221 24.1259 2.35073 23.8387 2.0748C23.3257 1.58452 22.6987 1.28578 21.9509 1.1786C21.5884 1.12615 21.5154 1.11019 19.6618 1.10791H17.1379V1.11019Z"
                  fill="url(#paint0_radial_1_495)" />
                <path
                  d="M17.1379 1.11019C13.9004 1.11019 12.9543 1.11247 12.7696 1.12843C12.1061 1.18316 11.6912 1.28806 11.242 1.51382C10.8955 1.68713 10.6219 1.88553 10.3506 2.16602C9.85813 2.67683 9.55946 3.30623 9.45231 4.05192C9.39987 4.41451 9.38391 4.48976 9.38163 6.34146C9.37935 6.95945 9.38163 7.77128 9.38163 8.86131C9.38163 12.0972 9.38619 13.0436 9.39987 13.2283C9.45459 13.8759 9.5549 14.2819 9.76922 14.7265C10.1796 15.5794 10.9639 16.2179 11.8873 16.4574C12.2065 16.5395 12.5598 16.5851 13.0136 16.6056C13.2051 16.6147 15.1635 16.6193 17.122 16.6193C19.0804 16.6193 21.0389 16.617 21.2259 16.6079C21.7502 16.5828 22.0557 16.5417 22.3932 16.4551C23.3234 16.2156 24.0917 15.5862 24.5112 14.722C24.721 14.2887 24.8281 13.8645 24.876 13.2511C24.8874 13.1166 24.892 10.9867 24.892 8.85903C24.892 6.73141 24.8874 4.60378 24.876 4.46924C24.8281 3.84668 24.721 3.42709 24.5021 2.98469C24.3243 2.6221 24.1259 2.35073 23.8387 2.0748C23.3257 1.58452 22.6987 1.28578 21.9509 1.1786C21.5884 1.12615 21.5154 1.11019 19.6618 1.10791H17.1379V1.11019Z"
                  fill="url(#paint1_radial_1_495)" />
                <path
                  d="M17.1379 1.11019C13.9004 1.11019 12.9543 1.11247 12.7696 1.12843C12.1061 1.18316 11.6912 1.28806 11.242 1.51382C10.8955 1.68713 10.6219 1.88553 10.3506 2.16602C9.85813 2.67683 9.55946 3.30623 9.45231 4.05192C9.39987 4.41451 9.38391 4.48976 9.38163 6.34146C9.37935 6.95945 9.38163 7.77128 9.38163 8.86131C9.38163 12.0972 9.38619 13.0436 9.39987 13.2283C9.45459 13.8759 9.5549 14.2819 9.76922 14.7265C10.1796 15.5794 10.9639 16.2179 11.8873 16.4574C12.2065 16.5395 12.5598 16.5851 13.0136 16.6056C13.2051 16.6147 15.1635 16.6193 17.122 16.6193C19.0804 16.6193 21.0389 16.617 21.2259 16.6079C21.7502 16.5828 22.0557 16.5417 22.3932 16.4551C23.3234 16.2156 24.0917 15.5862 24.5112 14.722C24.721 14.2887 24.8281 13.8645 24.876 13.2511C24.8874 13.1166 24.892 10.9867 24.892 8.85903C24.892 6.73141 24.8874 4.60378 24.876 4.46924C24.8281 3.84668 24.721 3.42709 24.5021 2.98469C24.3243 2.6221 24.1259 2.35073 23.8387 2.0748C23.3257 1.58452 22.6987 1.28578 21.9509 1.1786C21.5884 1.12615 21.5154 1.11019 19.6618 1.10791H17.1379V1.11019Z"
                  fill="url(#paint2_radial_1_495)" />
                <path
                  d="M17.1379 1.11019C13.9004 1.11019 12.9543 1.11247 12.7696 1.12843C12.1061 1.18316 11.6912 1.28806 11.242 1.51382C10.8955 1.68713 10.6219 1.88553 10.3506 2.16602C9.85813 2.67683 9.55946 3.30623 9.45231 4.05192C9.39987 4.41451 9.38391 4.48976 9.38163 6.34146C9.37935 6.95945 9.38163 7.77128 9.38163 8.86131C9.38163 12.0972 9.38619 13.0436 9.39987 13.2283C9.45459 13.8759 9.5549 14.2819 9.76922 14.7265C10.1796 15.5794 10.9639 16.2179 11.8873 16.4574C12.2065 16.5395 12.5598 16.5851 13.0136 16.6056C13.2051 16.6147 15.1635 16.6193 17.122 16.6193C19.0804 16.6193 21.0389 16.617 21.2259 16.6079C21.7502 16.5828 22.0557 16.5417 22.3932 16.4551C23.3234 16.2156 24.0917 15.5862 24.5112 14.722C24.721 14.2887 24.8281 13.8645 24.876 13.2511C24.8874 13.1166 24.892 10.9867 24.892 8.85903C24.892 6.73141 24.8874 4.60378 24.876 4.46924C24.8281 3.84668 24.721 3.42709 24.5021 2.98469C24.3243 2.6221 24.1259 2.35073 23.8387 2.0748C23.3257 1.58452 22.6987 1.28578 21.9509 1.1786C21.5884 1.12615 21.5154 1.11019 19.6618 1.10791H17.1379V1.11019Z"
                  fill="url(#paint3_radial_1_495)" />
                <path
                  d="M17.1379 3.10327C15.5716 3.10327 15.3756 3.11011 14.76 3.13748C14.1467 3.16484 13.7272 3.2629 13.3601 3.40428C12.9816 3.55251 12.6602 3.74863 12.3387 4.06789C12.0172 4.38714 11.8212 4.70868 11.673 5.08951C11.5293 5.45666 11.4336 5.87397 11.4062 6.4874C11.3788 7.10311 11.372 7.29923 11.372 8.86359C11.372 10.428 11.3788 10.6241 11.4062 11.2398C11.4336 11.8532 11.5316 12.2728 11.673 12.6377C11.8212 13.0162 12.0172 13.3378 12.3387 13.6593C12.6602 13.9808 12.9816 14.177 13.3601 14.3252C13.7272 14.4666 14.1467 14.5646 14.76 14.592C15.3756 14.6194 15.5716 14.6262 17.1379 14.6262C18.7043 14.6262 18.9003 14.6194 19.5159 14.592C20.1292 14.5646 20.5487 14.4666 20.9158 14.3252C21.2943 14.177 21.6157 13.9808 21.9372 13.6593C22.2587 13.34 22.4547 13.0185 22.6029 12.6377C22.7443 12.2705 22.8423 11.8532 22.8697 11.2398C22.897 10.6241 22.9039 10.428 22.9039 8.86359C22.9039 7.29923 22.897 7.10083 22.8697 6.4874C22.84 5.87397 22.7443 5.45438 22.6029 5.08951C22.4547 4.71096 22.2587 4.38942 21.9372 4.06789C21.6157 3.74635 21.2965 3.55023 20.9158 3.40428C20.5487 3.2629 20.1292 3.16484 19.5159 3.13748C18.898 3.11011 18.7043 3.10327 17.1379 3.10327ZM16.6204 4.14086C16.7732 4.14086 16.9441 4.14086 17.1379 4.14086C18.6769 4.14086 18.8593 4.14542 19.468 4.17507C20.0312 4.20015 20.3344 4.29365 20.5396 4.37346C20.8086 4.47836 21.0001 4.60378 21.2031 4.80446C21.406 5.00513 21.5291 5.19897 21.634 5.46806C21.7138 5.67101 21.8072 5.97659 21.8323 6.53757C21.8597 7.14416 21.8665 7.32659 21.8665 8.86587C21.8665 10.4052 21.8597 10.5853 21.8323 11.1942C21.8072 11.7552 21.7138 12.0607 21.634 12.2637C21.5291 12.5328 21.4037 12.7243 21.2031 12.925C21.0001 13.1257 20.8086 13.2511 20.5396 13.356C20.3367 13.4358 20.0312 13.5293 19.468 13.5544C18.8593 13.5818 18.6769 13.5886 17.1379 13.5886C15.599 13.5886 15.4166 13.5818 14.8079 13.5544C14.2447 13.5293 13.9415 13.4335 13.7363 13.356C13.4673 13.2511 13.2757 13.1257 13.0728 12.925C12.8699 12.7243 12.7468 12.5328 12.6419 12.2637C12.5621 12.0607 12.4687 11.7552 12.4436 11.1942C12.4162 10.5876 12.4094 10.4052 12.4094 8.86587C12.4094 7.32659 12.4139 7.14644 12.4436 6.53757C12.4687 5.97659 12.5621 5.67101 12.6419 5.46806C12.7468 5.19897 12.8722 5.00741 13.0728 4.80446C13.2757 4.60378 13.4673 4.47836 13.7363 4.37346C13.9392 4.29365 14.2447 4.20015 14.8079 4.17507C15.3414 4.1477 15.5466 4.14086 16.6204 4.14086ZM20.2158 5.09863C19.8328 5.09863 19.525 5.40877 19.525 5.7896C19.525 6.17043 19.8351 6.48056 20.2158 6.48056C20.5989 6.48056 20.9067 6.17043 20.9067 5.7896C20.9067 5.40877 20.5989 5.09863 20.2158 5.09863ZM17.1379 5.9059C15.5032 5.9059 14.1763 7.23082 14.1763 8.86587C14.1763 10.5009 15.5032 11.8258 17.1379 11.8258C18.7727 11.8258 20.0996 10.5009 20.0996 8.86587C20.0996 7.23082 18.7727 5.9059 17.1379 5.9059ZM17.1379 6.94577C18.2004 6.94577 19.0599 7.80548 19.0599 8.86587C19.0599 9.92626 18.2004 10.786 17.1379 10.786C16.0755 10.786 15.216 9.92626 15.216 8.86587C15.216 7.80548 16.0778 6.94577 17.1379 6.94577Z"
                  fill="white" />
                <circle cx="8.8631" cy="16.7728" r="7.75568" fill="url(#paint4_linear_1_495)" />
                <path
                  d="M11.7512 19.1445L12.0957 16.9555H9.94053V15.5356C9.94053 14.9366 10.241 14.3523 11.2063 14.3523H12.1868V12.4887C12.1868 12.4887 11.2974 12.3408 10.4474 12.3408C8.67172 12.3408 7.51214 13.3895 7.51214 15.2871V16.9555H5.53906V19.1445H7.51214V24.4366C7.90826 24.4973 8.31351 24.5283 8.72634 24.5283C9.13916 24.5283 9.54441 24.4973 9.94053 24.4366V19.1445H11.7512Z"
                  fill="white" />
                <defs>
                  <radialGradient id="paint0_radial_1_495" cx="0" cy="0" r="1"
                    gradientTransform="matrix(-9.53719 2.69025 1.93786 6.87257 24.3896 8.38071)"
                    gradientUnits="userSpaceOnUse">
                    <stop stop-color="#FF005F" />
                    <stop offset="1" stop-color="#FC01D8" />
                  </radialGradient>
                  <radialGradient id="paint1_radial_1_495" cx="0" cy="0" r="1" gradientUnits="userSpaceOnUse"
                    gradientTransform="translate(13.5006 17.8167) rotate(-90) scale(12.382 13.1343)">
                    <stop stop-color="#FFCC00" />
                    <stop offset="0.1242" stop-color="#FFCC00" />
                    <stop offset="0.5672" stop-color="#FE4A05" />
                    <stop offset="0.6942" stop-color="#FF0F3F" />
                    <stop offset="1" stop-color="#FE0657" stop-opacity="0" />
                  </radialGradient>
                  <radialGradient id="paint2_radial_1_495" cx="0" cy="0" r="1"
                    gradientTransform="matrix(2.5695 -4.42824 -5.76386 -3.34602 17.5277 16.4043)"
                    gradientUnits="userSpaceOnUse">
                    <stop stop-color="#FFCC00" />
                    <stop offset="1" stop-color="#FFCC00" stop-opacity="0" />
                  </radialGradient>
                  <radialGradient id="paint3_radial_1_495" cx="0" cy="0" r="1"
                    gradientTransform="matrix(-9.43257 2.65663 0.904681 3.21437 11.4841 1.74326)"
                    gradientUnits="userSpaceOnUse">
                    <stop stop-color="#780CFF" />
                    <stop offset="1" stop-color="#820BFF" stop-opacity="0" />
                  </radialGradient>
                  <linearGradient id="paint4_linear_1_495" x1="8.8631" y1="9.01709" x2="8.8631" y2="24.4825"
                    gradientUnits="userSpaceOnUse">
                    <stop stop-color="#18ACFE" />
                    <stop offset="1" stop-color="#0163E0" />
                  </linearGradient>
                </defs>
              </svg>
