<svg width="52" height="24" viewBox="0 0 52 24" fill="none" xmlns="http://www.w3.org/2000/svg">
<g clip-path="url(#clip0_1_549)">
<path fill-rule="evenodd" clip-rule="evenodd" d="M51.4668 12.3412C51.4668 8.70028 49.7032 5.82739 46.3325 5.82739C42.9477 5.82739 40.8997 8.70028 40.8997 12.3127C40.8997 16.5936 43.3174 18.7554 46.7877 18.7554C48.4801 18.7554 49.7601 18.3714 50.7272 17.8309V14.9865C49.7601 15.4701 48.6508 15.7687 47.2428 15.7687C45.8632 15.7687 44.6401 15.2852 44.4837 13.6069H51.4383C51.4383 13.4221 51.4668 12.6825 51.4668 12.3412ZM44.441 10.9901C44.441 9.38295 45.4223 8.7145 46.3183 8.7145C47.1859 8.7145 48.1103 9.38295 48.1103 10.9901H44.441Z" fill="#635BFF"/>
<path fill-rule="evenodd" clip-rule="evenodd" d="M35.4097 5.82739C34.0159 5.82739 33.1199 6.48161 32.6221 6.93673L32.4372 6.05495H29.3083V22.638L32.8639 21.8843L32.8781 17.8594C33.3901 18.2292 34.1439 18.7554 35.3955 18.7554C37.9412 18.7554 40.2595 16.7074 40.2595 12.1989C40.2452 8.0745 37.8986 5.82739 35.4097 5.82739ZM34.5564 15.6265C33.7172 15.6265 33.2195 15.3278 32.8781 14.9581L32.8639 9.68161C33.2337 9.26917 33.7457 8.98473 34.5564 8.98473C35.8506 8.98473 36.7466 10.4354 36.7466 12.2985C36.7466 14.2043 35.8648 15.6265 34.5564 15.6265Z" fill="#635BFF"/>
<path fill-rule="evenodd" clip-rule="evenodd" d="M24.416 4.98836L27.9858 4.22036V1.33325L24.416 2.08703V4.98836Z" fill="#635BFF"/>
<path d="M27.9858 6.06934H24.416V18.5138H27.9858V6.06934Z" fill="#635BFF"/>
<path fill-rule="evenodd" clip-rule="evenodd" d="M20.5903 7.12157L20.3628 6.06913H17.2908V18.5136H20.8463V10.0798C21.6854 8.98468 23.1077 9.18379 23.5485 9.34024V6.06913C23.0934 5.89846 21.4294 5.58557 20.5903 7.12157Z" fill="#635BFF"/>
<path fill-rule="evenodd" clip-rule="evenodd" d="M13.4791 2.98315L10.0089 3.72271L9.99463 15.1147C9.99463 17.2196 11.5733 18.7698 13.6782 18.7698C14.8444 18.7698 15.6978 18.5565 16.1671 18.3005V15.4134C15.712 15.5983 13.4649 16.2525 13.4649 14.1476V9.09871H16.1671V6.06938H13.4649L13.4791 2.98315Z" fill="#635BFF"/>
<path fill-rule="evenodd" clip-rule="evenodd" d="M3.86482 9.68161C3.86482 9.12695 4.31993 8.91361 5.07371 8.91361C6.1546 8.91361 7.51993 9.24073 8.60082 9.82384V6.48161C7.42038 6.01228 6.25416 5.82739 5.07371 5.82739C2.1866 5.82739 0.266602 7.33495 0.266602 9.85228C0.266602 13.7776 5.67105 13.1518 5.67105 14.8443C5.67105 15.4985 5.10216 15.7118 4.30571 15.7118C3.12527 15.7118 1.61771 15.2283 0.423046 14.5741V17.9589C1.74571 18.5278 3.0826 18.7696 4.30571 18.7696C7.26394 18.7696 9.29771 17.3047 9.29771 14.7589C9.28349 10.5207 3.86482 11.2745 3.86482 9.68161Z" fill="#635BFF"/>
</g>
<defs>
<clipPath id="clip0_1_549">
<rect width="51.3333" height="24" fill="white"/>
</clipPath>
</defs>
</svg>
