<svg width="54" height="24" viewBox="0 0 54 24" fill="none" xmlns="http://www.w3.org/2000/svg">
<g clip-path="url(#clip0_1_541)">
<path fill-rule="evenodd" clip-rule="evenodd" d="M35.8889 2.79172H33.9307L35.3152 1.41503C35.2065 1.26303 35.085 1.1204 34.9526 0.988872C34.8204 0.857346 34.677 0.736921 34.5243 0.628649L33.1396 2.00534V0.0584657C32.9586 0.0282737 32.772 0.0123099 32.5826 0.0119629H32.5786C32.3889 0.0123099 32.2027 0.0282737 32.0217 0.0584657V2.00534L30.6369 0.628649C30.4842 0.736921 30.3408 0.857346 30.2087 0.988872L30.2081 0.989566C30.0757 1.12075 29.9548 1.26303 29.8461 1.41503L31.2308 2.79172H29.2727C29.2727 2.79172 29.2258 3.15718 29.2258 3.34628V3.34871C29.2258 3.5375 29.242 3.72317 29.2727 3.90366H31.2308L29.8461 5.27999C30.0641 5.58398 30.3313 5.85015 30.6369 6.06635L32.0217 4.68968V6.63654C32.2027 6.66676 32.3886 6.68272 32.578 6.68304H32.5829C32.7723 6.68272 32.9588 6.66676 33.1396 6.63654V4.68968L34.5246 6.06635C34.677 5.95844 34.8204 5.83769 34.9526 5.70612H34.9529C35.085 5.57461 35.2065 5.43197 35.3152 5.27999L33.9304 3.90366H35.8889C35.9189 3.72352 35.9351 3.53854 35.9351 3.34975V3.34527C35.9351 3.15645 35.9189 2.97183 35.8889 2.79172ZM33.2905 4.05321C33.3735 3.83389 33.4192 3.59687 33.4192 3.34909V3.34597C33.4192 3.09816 33.3735 2.86079 33.2905 2.64181C33.0702 2.55921 32.8316 2.51375 32.5824 2.51375H32.5789C32.3299 2.51375 32.0911 2.55921 31.8705 2.64181C31.7878 2.86079 31.7421 3.09816 31.7418 3.34597V3.34909C31.7421 3.59687 31.7878 3.83421 31.8707 4.05321C32.0911 4.1358 32.3299 4.18125 32.5789 4.18125H32.5824C32.8316 4.18125 33.0702 4.1358 33.2905 4.05321Z" fill="#FF4600"/>
<path fill-rule="evenodd" clip-rule="evenodd" d="M39.1647 16.9708C38.6055 16.4485 38.3126 15.6246 38.2854 14.4992H45.3385C45.3518 14.3521 45.3654 14.1751 45.3787 13.9669C45.3923 13.7593 45.3992 13.5618 45.3992 13.3741C45.3992 12.6908 45.3047 12.0581 45.1162 11.4755C44.9276 10.8928 44.6515 10.3906 44.288 9.96861C43.924 9.54664 43.4726 9.21521 42.9336 8.97403C42.3949 8.73284 41.7683 8.61206 41.0544 8.61206C40.2187 8.61206 39.4947 8.75609 38.8816 9.04412C38.2686 9.33249 37.76 9.72083 37.3558 10.2095C36.9521 10.6988 36.652 11.2745 36.4568 11.9374C36.2613 12.6009 36.1636 13.3141 36.1636 14.0772C36.1636 14.8546 36.2648 15.5677 36.4669 16.2174C36.669 16.867 36.9891 17.4299 37.4269 17.9054C37.8644 18.3808 38.4207 18.749 39.0942 19.0103C39.7673 19.2717 40.5758 19.4021 41.5193 19.4021C42.1659 19.4021 42.7549 19.3549 43.2875 19.2616C43.8193 19.1676 44.308 19.0273 44.7527 18.8396C44.7388 18.5581 44.6989 18.2739 44.6315 17.9855C44.5636 17.6975 44.4765 17.4532 44.3684 17.2522C43.5061 17.5871 42.5973 17.7548 41.6405 17.7548C40.5489 17.7548 39.724 17.4931 39.1647 16.9708ZM43.4191 13.0129C43.4191 12.6377 43.3682 12.2795 43.2673 11.9374C43.1661 11.5959 43.0177 11.2981 42.8226 11.0434C42.6271 10.789 42.3781 10.5846 42.0748 10.4309C41.7718 10.2768 41.4112 10.1994 40.9936 10.1994C40.1716 10.1994 39.5421 10.4475 39.1037 10.9431C38.6662 11.4387 38.4002 12.1286 38.3056 13.0129H43.4191Z" fill="#FF4600"/>
<path fill-rule="evenodd" clip-rule="evenodd" d="M20.28 8.85314C20.4144 8.82677 20.5526 8.80662 20.694 8.79309C20.8357 8.77993 20.9802 8.77299 21.1285 8.77299C21.2629 8.77299 21.4046 8.77993 21.553 8.79309C21.701 8.80662 21.8427 8.82677 21.9774 8.85314C21.9907 8.88056 22.0078 8.96386 22.0277 9.10477C22.0479 9.2453 22.0682 9.39592 22.0884 9.55657C22.1087 9.71726 22.1289 9.8717 22.1491 10.0188C22.1694 10.1663 22.1792 10.26 22.1792 10.3003C22.3139 10.0858 22.4755 9.87829 22.6643 9.67736C22.8528 9.47642 23.079 9.29529 23.3414 9.13493C23.6039 8.97389 23.9003 8.8469 24.2308 8.75318C24.5603 8.65949 24.9275 8.6123 25.3321 8.6123C25.938 8.6123 26.5007 8.71296 27.0197 8.91387C27.538 9.1148 27.9824 9.42611 28.353 9.84776C28.7232 10.2701 29.0132 10.8059 29.2223 11.4552C29.4307 12.1056 29.5351 12.8718 29.5351 13.7561C29.5351 15.5242 29.0534 16.9075 28.0906 17.9052C27.1268 18.9034 25.7631 19.4024 23.998 19.4024C23.7017 19.4024 23.3987 19.3823 23.0888 19.342C22.7785 19.3018 22.5093 19.2479 22.2804 19.1813V23.9031C22.1188 23.9295 21.947 23.9496 21.7652 23.9631C21.5833 23.9763 21.4179 23.9833 21.2699 23.9833C21.1215 23.9833 20.9568 23.9763 20.7749 23.9631C20.5931 23.9496 20.428 23.9295 20.28 23.9031V8.85314ZM23.0685 17.6741C22.799 17.6342 22.5359 17.5673 22.2804 17.4732V13.2942C22.2804 12.7847 22.3544 12.3468 22.5031 11.9779C22.6511 11.6097 22.8461 11.3046 23.0888 11.0634C23.3313 10.8222 23.6071 10.6414 23.9174 10.5213C24.227 10.4006 24.5505 10.3402 24.8874 10.3402C25.7896 10.3402 26.4399 10.6553 26.8375 11.2845C27.2347 11.9144 27.4336 12.765 27.4336 13.8366C27.4336 14.5064 27.3492 15.0856 27.1809 15.5742C27.0123 16.0635 26.7834 16.4685 26.4937 16.7899C26.2043 17.1116 25.8574 17.35 25.4532 17.5034C25.049 17.6575 24.6047 17.7345 24.1195 17.7345C23.6881 17.7345 23.338 17.714 23.0685 17.6741Z" fill="#FF4600"/>
<path fill-rule="evenodd" clip-rule="evenodd" d="M16.1369 12.3697C16.1369 11.5791 15.9348 11.0301 15.5306 10.7219C15.1264 10.4141 14.5404 10.2601 13.7725 10.2601C13.3006 10.2601 12.8598 10.2972 12.4489 10.3704C12.0377 10.4443 11.6367 10.5411 11.2465 10.6616C10.9903 10.2194 10.8625 9.69089 10.8625 9.0742C11.3201 8.92708 11.8252 8.81324 12.378 8.73274C12.9303 8.65221 13.4622 8.6123 13.9746 8.6123C15.3215 8.6123 16.3456 8.91737 17.0462 9.52642C17.7467 10.1362 18.0971 11.1106 18.0971 12.4498V18.8999C17.6256 19.0071 17.0532 19.1175 16.3795 19.2313C15.7055 19.3448 15.0182 19.402 14.3181 19.402C13.6577 19.402 13.0619 19.342 12.5296 19.2212C11.9973 19.1005 11.546 18.9068 11.1756 18.6382C10.8049 18.371 10.5187 18.0288 10.3166 17.6138C10.1145 17.1987 10.0137 16.6965 10.0137 16.1066C10.0137 15.5312 10.1313 15.0252 10.3672 14.5897C10.6028 14.1548 10.9229 13.7929 11.3271 13.5048C11.7313 13.2171 12.1962 13.0023 12.7215 12.8621C13.2472 12.7212 13.7994 12.6508 14.3788 12.6508C14.8099 12.6508 15.1634 12.6612 15.4395 12.681C15.7156 12.7014 15.9481 12.7247 16.1369 12.7514V12.3697ZM15.369 14.2385C15.679 14.2655 15.9348 14.2919 16.1369 14.3186V17.594C15.8807 17.661 15.5879 17.7109 15.2577 17.7442C14.9278 17.7783 14.6078 17.7949 14.2978 17.7949C14.0556 17.7949 13.7994 17.7817 13.5299 17.7546C13.2605 17.7276 13.0147 17.654 12.7924 17.5336C12.57 17.4128 12.3847 17.2389 12.2367 17.0109C12.088 16.7836 12.0144 16.4685 12.0144 16.0666C12.0144 15.4375 12.2329 14.9686 12.6713 14.6601C13.1086 14.3523 13.7453 14.1979 14.5809 14.1979C14.7962 14.1979 15.0591 14.2117 15.369 14.2385Z" fill="#FF4600"/>
<path d="M0.394287 18.88L5.85088 10.4407H1.04106C1.00057 10.1995 0.98033 9.93196 0.98033 9.63699C0.98033 9.35587 1.00057 9.09421 1.04106 8.85303H8.82159L8.92245 9.11466L3.42572 17.5737H8.57902C8.61915 17.842 8.63974 18.1161 8.63974 18.3972C8.63974 18.6658 8.61915 18.9199 8.57902 19.1614H0.495509L0.394287 18.88Z" fill="#FF4600"/>
<path d="M32.021 10.4206H30.7074C30.6805 10.3134 30.6603 10.1895 30.6469 10.0489C30.6334 9.90833 30.6267 9.77093 30.6267 9.63699C30.6267 9.50337 30.6334 9.36559 30.6469 9.22506C30.6603 9.08447 30.6805 8.96059 30.7074 8.85303H33.9818V19.1614C33.8329 19.1878 33.6683 19.2076 33.4865 19.2211C33.3046 19.2343 33.1392 19.2412 32.9911 19.2412C32.8564 19.2412 32.6976 19.2343 32.5163 19.2211C32.3342 19.2076 32.1691 19.1878 32.021 19.1614V10.4206Z" fill="#FF4600"/>
<path d="M48.0275 8.7931C47.8928 8.80664 47.7511 8.82676 47.603 8.85313V19.1612C47.7647 19.1875 47.9364 19.2077 48.1186 19.2212C48.3005 19.2344 48.465 19.2413 48.6139 19.2413C48.7614 19.2413 48.9271 19.2344 49.1084 19.2212C49.2905 19.2077 49.4557 19.1875 49.604 19.1612V14.0372C49.604 13.341 49.6812 12.7715 49.8362 12.3298C49.9909 11.8876 50.1999 11.5392 50.4625 11.2845C50.7253 11.0301 51.0214 10.8527 51.3519 10.7521C51.6822 10.6518 52.0289 10.6015 52.3929 10.6015H52.6653C52.7795 10.6015 52.8905 10.615 52.999 10.6414C53.0259 10.4811 53.0496 10.3135 53.0698 10.1392C53.0898 9.96537 53.0999 9.79775 53.0999 9.63709C53.0999 9.48959 53.093 9.34904 53.0797 9.21507C53.0661 9.08148 53.0458 8.95376 53.0189 8.83301C52.9385 8.82017 52.8402 8.81011 52.726 8.80314C52.6115 8.79623 52.5002 8.7931 52.3929 8.7931C51.6651 8.7931 51.0689 8.9607 50.6042 9.29525C50.1395 9.63015 49.7653 10.0257 49.4828 10.4811C49.4828 10.2531 49.462 9.97544 49.4218 9.64681C49.3816 9.31919 49.3409 9.05407 49.3007 8.85313C49.1795 8.82676 49.0445 8.80664 48.8964 8.7931C48.7481 8.77989 48.6 8.77295 48.452 8.77295C48.3037 8.77295 48.162 8.77989 48.0275 8.7931Z" fill="#FF4600"/>
</g>
<defs>
<clipPath id="clip0_1_541">
<rect width="53.494" height="24" fill="white"/>
</clipPath>
</defs>
</svg>
